<svg width="744" height="207" viewBox="0 0 744 207" fill="none" xmlns="http://www.w3.org/2000/svg">
<path opacity="0.5" fill-rule="evenodd" clip-rule="evenodd" d="M682.929 324.016C677.983 332.767 673.085 341.558 667.787 350.095C659.607 363.271 647.134 369.839 632.1 371.776C627.826 372.327 623.419 371.873 619.075 371.789C618.64 371.776 617.962 371.18 617.837 370.727C617.248 368.622 616.812 366.465 616.352 364.456C620.176 364.029 623.831 363.841 627.396 363.18C641.317 360.589 652.504 353.716 661.268 342.393C670.158 330.915 677.096 318.309 684.046 305.671C687.118 300.087 689.989 294.394 693.064 288.81C693.895 287.3 693.721 286.601 692.212 285.687C685.714 281.736 679.404 277.474 672.845 273.633C664.074 268.501 655.308 263.307 646.219 258.792C637.5 254.458 628.325 250.935 618.39 250.74C614.401 250.663 610.364 251.446 606.398 252.133C603.226 252.677 600.038 253.416 597.024 254.523C594.026 255.624 591.236 257.296 588.024 258.876C587.245 256.272 586.58 254.05 585.865 251.66C592.922 248.084 599.174 243.089 607.282 241.24C618.418 238.7 628.915 239.843 638.907 244.956C646.307 248.745 653.413 253.124 660.586 257.348C671.013 263.481 681.36 269.759 691.789 275.893C696.482 278.653 701.291 281.218 705.548 283.595C698.091 296.933 690.567 310.51 682.929 324.016ZM619.332 357.512C615.822 356.819 613.01 355.401 611.28 351.851C606.502 342.031 599.727 333.933 589.232 328.427C590.522 328.265 591.133 328.078 591.723 328.129C595.041 328.427 598.352 328.829 601.672 329.108C606.795 329.542 611.4 331.349 615.327 334.588C624.317 342.011 633.95 348.295 645.297 352.175C636.877 355.776 628.671 359.352 619.332 357.512ZM635.103 326.944C642.537 329.606 650.112 331.893 657.669 334.206C659.378 334.724 661.272 334.64 663.655 334.892C660.486 338.746 657.448 342.406 654.443 346.092C650.643 350.756 645.535 349.836 641.497 347.705C633.465 343.456 625.961 338.209 618.276 333.318C615.718 331.686 613.27 329.885 610.646 328.071C618.627 323.129 626.729 323.938 635.103 326.944ZM580.17 323.265C575.801 322.481 571.446 321.619 567.24 320.823C573.243 315.822 579.309 310.458 585.703 305.522C594.22 298.947 603.773 296.382 614.309 299.848C616.562 300.593 618.671 302.057 620.55 303.559C622.278 304.946 622.984 306.857 622.034 309.26C618.328 318.633 610.91 323.025 601.518 324.916C594.239 326.381 587.227 324.541 580.17 323.265ZM517.268 330.241C517.692 325.318 520.67 322.021 524.949 320.065C527.277 319.002 529.961 318.724 532.484 318.089C541.098 318.53 546.423 325.02 544.763 333.473C543.961 337.561 540.48 339.278 537.323 341.001C532.684 343.52 527.715 343.793 523.05 341.124C518.978 338.792 516.855 335.041 517.268 330.241ZM558.099 334.95C557.309 340.729 555.96 346.507 554.13 352.039C552.18 357.94 547.517 361.651 542.384 365.13C534.624 370.39 525.952 371.115 517.144 371.724C516.602 371.757 515.683 370.656 515.432 369.911C512.795 362.15 509.843 354.526 502.889 349.519C499.792 347.29 496.212 345.736 492.541 343.702C498.139 342.05 503.622 340.431 509.108 338.818C509.886 338.591 510.735 338.513 511.445 338.157C513.842 336.946 515.43 337.166 517.167 339.673C522.695 347.66 536.986 349.104 544.887 341.15C552.135 333.856 549.93 321.956 543.334 317.247C537.164 312.842 527.996 311.611 520.577 318.588C517.178 321.788 514.798 325.409 514.397 330.131C514.204 332.392 513.038 333.221 510.805 333.713C504.293 335.132 497.858 336.913 491.083 338.636C493.316 334.86 495.456 331.64 497.189 328.214C500.015 322.63 499.652 316.605 499.063 310.601C499.044 310.4 498.936 310.219 498.896 310.018C497.251 302.121 497.252 302.121 504.712 298.76C513.118 294.97 521.751 293.888 530.856 295.909C537.985 297.49 542.823 302.147 547.422 307.213C549.459 309.454 551.162 312.006 552.96 314.461C557.447 320.589 559.107 327.585 558.099 334.95ZM459.396 370.053C452.663 372.638 452.626 372.541 450.214 365.421C453.511 363.834 456.953 362.532 460.022 360.628C465.147 357.441 466.318 353.107 464.277 346.85C462.935 342.737 458.88 340.068 453.75 340.184C450.33 340.262 446.917 340.651 443.502 340.897C443.173 338.746 442.853 336.654 442.471 334.16C446.704 332.541 451.17 331.187 455.795 332.346C462.448 334.024 468.25 336.933 471.194 343.916C476.14 355.634 467.927 366.782 459.396 370.053ZM445.105 360.563C441.637 358.458 437.346 357.7 433.338 356.327C437.924 354.053 441.156 350.076 443.145 345.036C443.279 344.699 443.662 344.304 444 344.22C448.611 343.086 453.236 341.772 457.934 343.805C461.257 345.244 462.445 348.165 462.549 351.436C462.651 354.623 460.756 356.968 458.15 358.6C456.701 359.507 454.984 359.98 453.472 360.797C450.603 362.358 448.235 362.468 445.105 360.563ZM426.495 360.939C425.521 367.125 418.965 372.184 412.6 371.86C412.031 371.828 411.196 371.692 410.958 371.31C408.447 367.294 404.069 366.989 399.966 365.661C402.933 362.565 406.584 360.265 406.571 355.549C406.57 355.122 407.288 354.617 407.77 354.286C413.263 350.562 421.754 351.721 425.687 356.916C426.441 357.907 426.698 359.65 426.495 360.939ZM333.086 371.323C332.844 371.698 332.006 371.821 331.434 371.847C325.099 372.171 318.57 367.086 317.507 360.92C316.897 357.383 319.504 355.621 321.893 353.982C325.868 351.255 332.731 351.585 336.556 354.5C336.937 354.792 337.384 355.141 337.54 355.556C339.756 361.515 339.744 361.522 344.08 365.661C339.966 366.976 335.622 367.352 333.086 371.323ZM296.46 362.086C296.165 362.351 295.415 362.384 295.017 362.209C291.357 360.576 287.364 359.371 284.193 357.046C281.088 354.772 280.666 351.035 282.498 347.401C284.141 344.142 286.957 342.762 290.462 342.853C292.981 342.924 295.499 343.248 298.004 343.579C299.762 343.812 300.704 344.693 301.709 346.481C303.494 349.655 306.299 352.265 308.757 355.038C309.381 355.737 310.306 356.171 311.734 357.182C305.609 357.195 300.597 358.38 296.46 362.086ZM293.978 365.493C293.708 366.082 293.326 366.885 292.973 367.695C291.046 372.12 291.124 371.809 286.207 370.63C278.545 368.796 270.204 358.043 271.399 350.154C272.259 344.479 274.078 339.439 279.197 336.136C286.441 331.465 293.38 330.798 301.6 334.238C301.252 336.602 300.931 338.785 300.618 340.916C297.112 340.664 293.612 340.269 290.104 340.184C285.106 340.068 280.952 342.931 279.742 347.057C277.902 353.334 279.082 357.609 283.988 360.602C287.077 362.487 290.505 363.815 293.978 365.493ZM217.654 342.465C211.311 343.689 203.202 340.78 200.489 336.246C197.687 331.576 199.802 327.164 201.593 322.928C203.482 318.465 207.72 318.516 211.76 318.529C219.122 318.536 224.863 322.403 226.47 328.44C228.112 334.607 223.934 341.253 217.654 342.465ZM228.585 369.891C228.342 370.63 227.454 371.737 226.915 371.711C223.383 371.53 219.864 371.083 216.341 370.727C208.412 369.93 202.079 365.745 196.072 360.997C192 357.778 189.822 353.166 188.533 348.34C187.235 343.488 186.477 338.448 185.905 333.441C184.949 325.065 188.166 317.914 193.182 311.462C197.44 305.982 201.877 300.593 208.374 297.658C211.183 296.389 214.288 295.495 217.345 295.106C227.46 293.81 236.665 296.771 245.231 301.934C245.897 302.335 246.158 303.942 246.084 304.952C245.715 309.946 244.787 314.934 244.789 319.929C244.791 325.467 247.387 330.286 250.586 334.73C251.403 335.864 252.213 337.01 253.402 338.675C245.731 336.796 238.643 335.158 231.632 333.234C230.786 333.001 229.969 331.317 229.791 330.202C228.48 321.982 223.698 316.372 215.896 314.539C205.094 312.006 194.642 317.707 194.904 331.096C195.061 339.09 200.107 343.086 206.044 345.548C212.017 348.022 218.482 346.986 223.925 342.743C224.721 342.121 225.806 341.59 226.177 340.754C227.97 336.738 230.648 337.347 234.06 338.533C239.687 340.482 245.501 341.901 252.072 343.78C250.464 344.486 249.537 344.933 248.578 345.302C237.188 349.661 232.118 359.132 228.585 369.891ZM128 317.707C125.75 315.355 123.976 312.499 122.271 309.7C120.669 307.07 121.793 304.771 124.033 303.067C130.173 298.397 137.138 297.496 144.513 298.928C152.38 300.457 158.456 305.27 164.417 310.173C168.684 313.684 172.74 317.448 176.614 320.848C168.936 322.299 160.893 324.334 152.726 325.214C143.632 326.193 134.77 324.768 128 317.707ZM114.428 341.402C108.921 344.958 103.369 348.541 96.4311 349.104C93.7046 349.324 92.001 348.379 90.4139 346.584C87.0908 342.814 83.7931 339.025 80.1014 334.808C90.5947 334.568 99.3725 330.766 108.215 327.248C113.99 324.955 119.887 323.744 126.016 325.001C128.621 325.532 131.064 326.86 133.718 327.877C127.058 332.58 120.895 337.224 114.428 341.402ZM132.267 352.842C130.152 357.162 125.607 358.024 121.529 357.843C116.441 357.622 111.369 356.359 106.362 355.219C103.842 354.643 101.491 353.341 99.677 352.609C106.077 349.059 112.769 345.587 119.192 341.674C123.246 339.206 126.874 336.045 130.731 333.247C134.732 330.338 139.277 329.23 144.18 329.075C147.468 328.971 150.744 328.473 154.025 328.149C144.027 334.16 137.26 342.646 132.267 352.842ZM115.394 362.979C119.375 363.66 123.415 363.99 127.68 364.502C127.289 366.315 126.99 368.395 126.33 370.351C126.115 370.992 124.98 371.679 124.233 371.718C121.013 371.893 117.721 372.236 114.566 371.77C109.29 370.992 103.985 370.021 98.8998 368.447C86.9936 364.754 79.3435 355.906 73.3647 345.613C65.1379 331.465 57.3712 317.052 49.3582 302.776C45.7436 296.33 42.0254 289.95 38.534 283.861C45.9703 279.456 53.8149 274.87 61.614 270.18C72.4965 263.637 83.2561 256.868 94.2416 250.488C102.598 245.636 111.246 241.336 121.062 240.09C127.345 239.292 133.546 239.98 139.325 242.21C145.795 244.709 151.922 248.097 158.342 251.161C157.473 254.089 156.812 256.318 156.092 258.74C155.356 258.514 154.598 258.481 154.118 258.099C148.624 253.733 141.817 252.917 135.356 251.479C125.661 249.322 116.284 251.382 107.133 254.886C90.7896 261.156 76.2471 270.718 61.3808 279.689C58.1808 281.619 55.1039 283.751 51.891 285.674C50.5307 286.491 50.0384 287.054 50.9646 288.725C55.0845 296.175 58.8221 303.838 63.0586 311.222C68.0528 319.942 73.0537 328.706 78.7282 336.984C83.6642 344.175 89.235 351.119 96.937 355.614C100.811 357.882 105.216 359.242 109.407 360.932C111.363 361.723 113.341 362.623 115.394 362.979ZM52.3444 188.444C76.4739 182.378 100.234 176.406 124.362 170.341C124.362 175.446 124.449 179.787 124.281 184.119C124.251 184.884 123.271 186.104 122.534 186.279C106.368 190.095 90.18 193.827 73.98 197.49C69.8925 198.415 69.7047 198.54 70.9873 202.669C75.282 216.513 79.5962 230.352 83.8708 244.204C84.525 246.329 85.3218 248.493 85.4715 250.676C85.5427 251.744 84.5387 253.312 83.5605 253.947C80.4189 255.994 77.0633 257.71 73.2026 259.88C64.7816 236.469 59.3339 212.438 52.3444 188.444ZM122.31 237.11C121.816 237.069 121.14 236.609 120.933 236.164C119.316 232.703 117.793 229.198 116.046 225.268C119.944 224.898 123.08 224.643 126.207 224.287C128.114 224.071 129.177 224.735 130.298 226.434C132.798 230.222 135.751 233.709 138.505 237.33C138.796 237.712 138.987 238.17 139.112 238.392C133.501 237.976 127.902 237.583 122.31 237.11ZM102.488 242.818C98.1871 245.144 93.5096 247.676 88.5808 250.345C83.4828 233.653 78.4561 217.231 73.4164 200.735C90.2132 196.85 106.861 192.999 123.792 189.084C124.079 194.634 124.344 199.778 124.614 205.01C116.482 206.36 108.305 207.697 100.143 209.084C98.3491 209.389 96.5929 210.064 94.7928 210.218C91.9361 210.463 91.3337 211.788 92.2471 214.31C95.635 223.662 98.9775 233.03 102.488 242.818ZM94.5402 213.09C100.033 212.019 105.041 210.974 110.074 210.082C113.865 209.412 117.703 209.025 121.488 208.348C123.762 207.941 125.039 208.055 125.318 210.954C125.644 214.351 126.728 217.673 127.49 221.056C122.664 221.854 118.034 222.619 112.872 223.472C113.881 226.374 114.564 228.567 115.404 230.698C116.257 232.863 117.266 234.965 118.295 237.295C113.986 238.691 109.802 240.046 105.183 241.544C101.698 232.227 98.226 222.941 94.5402 213.09ZM127.507 167.759C127.65 157.177 127.905 146.596 127.986 136.014C128.005 133.527 127.515 131.036 127.272 128.665C139.981 128.665 152.652 128.785 165.32 128.619C172.994 128.52 180.685 127.442 188.328 127.762C199.62 128.235 211.276 127.486 221.796 132.684C230.586 137.027 238.073 143.064 242.557 152.194C244.031 155.197 245.874 158.021 247.399 160.666C245.699 162.532 244.055 164.337 242.286 166.279C239.908 162.89 238.012 159.344 235.338 156.542C228.076 148.938 220.184 142.302 209.439 139.799C198.114 137.16 186.688 136.262 175.131 136.379C164.119 136.489 153.108 136.654 142.098 136.847C140.588 136.873 139.06 137.094 137.589 137.434C137.066 137.554 136.419 138.237 136.296 138.771C136.003 140.047 135.891 141.386 135.874 142.703C135.69 156.654 135.321 170.609 135.448 184.558C135.549 195.606 136.868 206.576 140.919 216.971C143.108 222.589 146.258 227.659 151.074 231.575C152.846 233.015 153.984 235.231 155.754 236.674C158.638 239.024 161.804 241.029 165.198 243.425C163.203 245.17 161.441 246.711 159.104 248.752C153.802 245.157 147.55 241.695 142.246 237.132C134.137 230.156 129.33 221.044 128.036 210.253C126.948 201.178 126.47 192.122 127.38 182.971C127.881 177.946 127.438 172.832 127.507 167.759ZM208.652 126.17C207.997 126.013 207.065 124.71 207.16 124.072C208.561 114.782 210.116 105.516 211.753 95.5112C221.689 99.2236 231.026 102.713 240.397 106.214C238.947 110.799 237.639 114.931 236.291 119.192C231.896 117.464 227.541 115.754 222.334 113.707C221.485 119.13 220.758 123.773 220.026 128.446C216.346 127.738 212.469 127.078 208.652 126.17ZM169.28 125.465C175.298 101.447 181.271 77.6127 187.348 53.3583C211.363 60.36 235.328 65.8841 258.838 74.2029C256.251 78.6913 253.885 82.7987 251.443 87.0384C247.273 85.9378 243.434 85.0711 239.686 83.911C227.076 80.0081 214.505 75.9823 201.906 72.0431C197.406 70.6356 197.509 70.7133 196.462 75.383C193.871 86.9406 191.166 98.4734 188.496 110.014C187.492 114.354 186.401 118.674 185.468 123.027C185.123 124.64 184.477 125.51 182.708 125.484C178.493 125.423 174.277 125.465 169.28 125.465ZM209.337 95.0857C207.528 105.228 205.606 115.349 203.769 125.232L187.938 125.232C191.904 107.98 195.744 91.2703 199.609 74.4516C215.96 79.4466 232.42 84.4752 249.207 89.6023C246.597 94.4827 244.155 99.0501 241.648 103.741C235.432 101.359 229.309 98.9476 223.136 96.6708C219.513 95.3338 215.826 94.1613 212.138 93.0121C210.41 92.4739 209.656 93.2991 209.337 95.0857ZM237.292 140.062C235.092 138.349 232.741 136.45 230.314 134.652C228.609 133.389 226.883 132.105 225.012 131.126C223.577 130.376 222.846 129.591 223.075 127.9C223.529 124.53 223.849 121.142 224.291 117.184C228.19 118.9 231.704 120.395 235.151 122.027C235.596 122.237 235.876 123.151 235.932 123.766C236.422 129.171 236.845 134.582 237.292 140.062ZM263.933 71.0488C270.181 60.3839 276.65 49.848 282.799 39.6254C296.92 47.6378 311.579 55.928 326.21 64.2666C334.151 68.7927 342.23 73.1134 349.919 78.0363C362.704 86.2228 368.739 98.6633 370.618 113.325C370.96 115.987 370.262 118.77 370.194 121.501C370.149 123.292 371.089 126.183 370.338 126.675C368.331 127.99 365.649 128.279 363.022 129.037C362.833 125.786 362.873 122.853 362.46 119.985C360.114 103.721 351.858 91.0326 338.491 81.7293C331.495 76.862 324.22 72.3787 316.912 67.9855C310.902 64.373 304.674 61.1192 298.511 57.7649C294.877 55.7874 291.224 53.8325 287.476 52.0925C286.794 51.7771 285.096 52.2486 284.726 52.8686C275.491 68.3723 266.009 83.7484 257.374 99.5864C252.77 108.029 249.734 117.377 249.538 127.181C249.453 131.352 250.839 135.534 251.306 139.738C251.995 145.946 254.321 151.479 258.13 157.002C255.382 157.832 253.079 158.527 250.834 159.204C243.396 148.987 238.354 137.936 238.783 124.921C239.003 118.275 240.735 111.98 243.839 106.261C250.286 94.3867 257.102 82.7101 263.933 71.0488ZM344.213 32.4747C352.631 23.7525 361.105 15.0847 369.506 6.34757C371.064 4.72747 372.42 4.09397 374.241 5.96282C381.921 13.8449 389.713 21.6201 397.338 29.556C406.12 38.6973 414.77 47.9655 423.754 57.4716C419.52 59.8406 415.768 62.0688 411.874 64.0089C411.112 64.3885 409.397 64.0257 408.792 63.3786C397.606 51.433 386.497 39.4137 375.43 27.3568C372.259 23.9022 371.818 23.8957 368.621 27.3865C360.993 35.7163 353.286 43.9754 345.615 52.2654C342.314 55.832 338.936 59.332 335.765 63.01C334.443 64.542 333.237 64.8367 331.561 63.8696C328.046 61.842 324.517 59.8379 320.264 57.4082C328.454 48.8776 336.314 40.6581 344.213 32.4747ZM372.051 77.4546C374.547 80.9384 376.752 83.9369 378.842 87.0151C379.148 87.4673 379.127 88.3897 378.886 88.926C376.573 94.0642 374.18 99.166 371.986 103.901C369.811 98.9108 367.405 93.3899 364.824 87.4679C366.939 84.5368 369.344 81.2046 372.051 77.4546ZM372.015 52.5272C378.699 60.6379 385.028 68.3198 391.493 76.165C387.844 79.4382 384.675 82.2819 381.389 85.2299C379.076 82.3362 376.679 79.3928 374.345 76.4007C372.73 74.3311 371.263 74.4347 369.692 76.4487C367.398 79.3915 365.043 82.2877 362.692 85.2305C359.369 82.2509 356.145 79.3611 352.6 76.1818C358.95 68.4448 365.232 60.792 372.015 52.5272ZM369.598 51.4019C363.162 59.1117 356.66 66.7664 350.125 74.5067C345.778 71.8028 341.316 69.0272 336.669 66.1361C348.464 53.4943 360.148 40.9741 372.032 28.2384C383.782 40.8213 395.48 53.3485 407.399 66.1142C402.911 68.9157 398.413 71.7245 393.83 74.5864C388.796 68.4501 383.809 62.3422 378.783 56.2661C377.229 54.3862 375.647 52.5174 373.934 50.7866C372.334 49.1698 370.949 49.7826 369.598 51.4019ZM441.307 50.968C448.125 47.1675 454.88 43.2537 461.382 39.5504C465.648 46.8041 470.146 54.5773 474.765 62.2787C481.351 73.2591 488.21 84.0807 494.584 95.1823C497.706 100.618 500.151 106.465 502.63 112.243C506.678 121.675 506.247 131.405 502.905 140.789C500.616 147.216 497.025 153.18 493.977 159.434C491.175 158.577 488.801 157.851 486.432 157.126C488.133 153.423 490.039 150.069 491.257 146.482C495.683 133.452 495.439 120.593 490.172 107.676C483.92 92.3444 475.286 78.3771 466.646 64.382C464.312 60.6036 461.811 56.923 459.619 53.0654C458.662 51.3807 457.932 51.2109 456.296 52.1281C444.001 59.0244 431.689 65.8882 419.321 72.6515C409.865 77.8226 401.427 84.2991 394.062 92.128C389.121 97.3794 386.101 103.623 384.048 110.624C382.321 116.515 380.785 122.275 381.31 128.994C378.591 128.314 376.348 127.752 374.23 127.223C372.19 112.967 374.354 99.7328 383.072 88.218C388.295 81.3193 395.466 76.4862 402.932 72.2634C415.665 65.0622 428.529 58.0902 441.307 50.968ZM556.684 53.2235C562.774 77.4703 568.761 101.307 574.815 125.412L559.185 125.412C556.527 114.063 553.902 103.03 551.367 91.9764C549.986 85.9528 548.714 79.9026 547.477 73.8478C547.004 71.534 546.001 70.8631 543.627 71.6163C529.981 75.9486 516.3 80.1721 502.62 84.4002C500.586 85.029 498.362 85.2 496.466 86.0914C493.491 87.4886 491.941 86.1451 490.634 83.7867C488.959 80.7635 487.293 77.7358 485.047 73.6659C509.038 66.8202 532.587 60.1002 556.684 53.2235ZM527.539 94.3763C519.175 97.1546 510.987 100.462 502.425 103.65C500.002 99.1556 497.513 94.541 494.855 89.6107C511.6 84.492 527.964 79.4887 544.467 74.4439C548.309 91.111 552.16 107.814 556.149 125.122L540.163 125.122C538.709 116.728 537.268 107.781 535.584 98.8809C534.15 91.304 534.772 91.9732 527.539 94.3763ZM535.021 126.335C531.353 126.929 527.721 127.745 524.14 128.456C523.388 123.854 522.629 119.215 521.729 113.71C516.742 115.673 512.484 117.348 507.914 119.145C506.544 115.041 505.155 110.877 503.609 106.244C513.012 102.73 522.347 99.2411 532.232 95.5476C533.429 102.398 534.531 108.624 535.601 114.856C536.079 117.641 536.529 120.432 536.925 123.23C537.138 124.729 537.06 126.004 535.021 126.335ZM506.877 140.058C507.274 134.598 507.644 129.3 508.066 124.006C508.117 123.365 508.269 122.371 508.678 122.176C512.211 120.486 515.814 118.943 519.918 117.124C520.287 121.384 520.635 124.974 520.878 128.572C520.919 129.18 520.704 130.084 520.275 130.401C515.849 133.674 511.356 136.857 506.877 140.058ZM506.749 140.146C506.693 140.173 506.632 140.16 506.749 140.146V140.146ZM553.165 288.596C555.965 284.308 557.314 279.424 557.179 274.151C556.969 265.905 550.87 261.13 542.694 259.304C535.715 257.749 528.796 258.637 521.918 261.298C520.685 257.205 519.583 253.552 518.387 249.587C525.183 246.517 531.978 244.464 539.544 245.254C547.87 246.128 555.565 248.266 562.432 253.357C570.011 258.974 572.191 266.604 571.016 275.33C570.322 280.493 568.91 285.629 567.195 290.552C564.529 298.209 558.867 303.592 552.276 308.301C549.555 305.373 546.869 302.478 544.297 299.712C547.292 296.007 550.588 292.535 553.165 288.596ZM532.59 293.027C534.605 290.475 536.781 288.007 538.624 285.312C540.657 282.339 541.907 278.899 539.649 275.621C537.501 272.512 533.756 272.634 530.463 272.778C527.585 272.901 524.739 273.808 521.766 274.384C521.994 270.99 522.222 267.589 522.458 264.078C529.484 261.532 536.761 260.042 544.072 262.582C554.254 266.125 556.039 272.091 552.758 283.006C550.9 289.186 546.227 293.338 541.686 297.477C538.591 295.961 535.542 294.471 532.59 293.027ZM517.95 282.086C519.342 279.728 520.768 277.623 523.746 277.286C526.91 276.93 530.101 276.152 533.233 276.347C536.524 276.541 537.679 278.931 536.677 282.008C534.684 288.123 528.947 292.243 522.628 292.373C518.422 292.457 514.221 292.865 511.01 293.066C513.041 289.872 515.61 286.044 517.95 282.086ZM479.913 267.543C474.891 263.586 473.97 257.827 477.119 251.809C479.571 247.126 483.815 244.69 488.604 243.415C490.4 242.936 493.024 243.461 494.56 244.541C498.069 247.003 501.641 249.73 502.208 254.789C501.077 260.664 498.338 265.633 492.742 268.437C488.426 270.601 483.985 270.757 479.913 267.543ZM493.91 298.183C489.741 293.927 484.906 290.235 479.223 288.713C473.855 287.275 468.084 287.339 462.279 286.724C466.932 281.82 471.803 276.606 476.814 271.534C477.344 270.996 478.866 270.886 479.644 271.229C490.744 276.081 505.262 270.595 506.349 254.29C506.709 248.914 503.224 244.438 498.585 241.629C492.183 237.754 483.894 238.688 478.551 243.445C473.089 248.305 470.234 257.594 473.949 265.205C474.679 266.702 474.548 267.673 473.535 268.638C468.445 273.516 463.313 278.342 457.937 283.433C457.937 279.327 458.213 275.641 457.85 272.02C457.561 269.137 457.049 266.015 455.646 263.566C453.143 259.194 450.042 255.132 446.881 251.194C445.688 249.704 445.431 248.817 446.563 247.327C449.011 244.088 451.05 240.497 453.775 237.526C459.649 231.121 467.074 227.107 475.64 225.789C478.846 225.295 482.387 225.881 485.59 226.699C492.392 228.437 499.002 230.881 504.786 234.988C510.95 239.364 513.953 245.979 516.326 252.813C517.746 256.901 518.676 261.195 519.407 265.471C520.265 270.484 518.403 275.045 516.313 279.521C512.37 287.968 505.92 293.921 498.034 298.598C496.311 299.621 495.331 299.634 493.91 298.183ZM483.845 327.631C490.053 321.801 490.941 311.087 485.952 305.082C481.252 299.427 474.735 297.393 467.814 299.083C462.521 300.379 457.612 303.242 452.463 305.432C451.428 303.689 450.136 301.519 448.835 299.336C458.067 287.987 475.076 287.164 485.02 294.743C489.176 297.905 493.836 300.411 495.213 305.924C498.45 318.873 496.901 328.92 486.605 338.118C483.416 340.962 478.816 342.232 474.742 344.285C473.81 342.536 473.195 341.279 472.483 340.081C471.815 338.954 471.046 337.891 470.758 337.457C475.195 334.18 479.915 331.323 483.845 327.631ZM459.593 330.274C464.062 328.065 468.824 326.031 473.239 323.414C476.578 321.438 477.922 317.286 476.909 314.526C475.319 310.193 470.979 308.126 466.443 310.232C462.908 311.87 459.769 314.377 456.496 316.56C455.355 317.325 454.341 318.277 452.992 319.365C453.159 315.977 453.287 313.069 453.465 310.167C453.487 309.811 453.686 309.344 453.96 309.13C460.244 304.188 466.793 300.191 475.396 301.94C487.966 304.492 488.323 318.219 482.399 325.169C478.705 329.503 473.964 332.074 468.859 334.167C468.315 334.387 467.482 334.342 466.949 334.083C464.411 332.852 461.931 331.498 459.593 330.274ZM464.931 313.898C468.799 311.689 472.667 312.175 473.98 314.669C475.21 317.007 473.808 320.117 469.967 322.274C463.841 325.72 457.364 328.227 449.885 328.117C453.898 322.073 458.857 317.357 464.931 313.898ZM435.667 327.287C437.434 324.923 439.341 322.695 440.896 320.24C446.082 312.058 442.756 306.643 436.084 302.672C433.064 300.878 429.274 301.597 426.181 303.598C423.377 305.406 420.734 307.472 417.885 309.519C416.436 307.796 415.068 306.17 413.706 304.551C417.076 297.892 426.4 293.655 435.104 294.646C441.649 295.391 449.451 302.607 450.295 309.066C451.489 318.186 449.087 325.966 440.792 331.634C439.123 330.215 437.435 328.784 435.667 327.287ZM413.429 349.208C416.781 344.505 417.298 339.757 415.957 334.692C415.787 334.044 416.194 332.858 416.728 332.482C423.757 327.488 430.308 326.018 436.792 331.997C441.742 336.557 442.127 344.194 437.314 349.396C435.352 351.514 432.828 353.185 430.339 354.701C429.602 355.148 427.819 354.74 427.02 354.092C421.881 349.953 420.168 349.344 413.429 349.208ZM382.7 359.339C381.633 360.24 380.398 360.939 378.498 362.241C378.575 354.138 380.227 347.491 386.376 342.73C387.276 342.037 389.368 341.467 389.834 341.927C390.748 342.827 391.428 344.557 391.289 345.84C390.66 351.682 386.969 355.744 382.7 359.339ZM383.257 366.342C387.206 360.421 391.496 355.595 398.451 354.073C399.428 353.859 400.535 353.691 401.465 353.937C403.211 354.41 404.524 355.491 403.299 357.486C402.297 359.119 401.203 360.79 399.794 362.053C396.459 365.033 388.277 367.119 383.257 366.342ZM344.873 353.982C350.673 354.675 354.679 358.426 358.265 362.662C359.159 363.712 359.823 364.962 361.021 366.769C353.116 366.698 346.534 365.098 341.768 359.145C340.998 358.18 340.282 355.925 340.729 355.491C341.711 354.539 343.519 353.82 344.873 353.982ZM353.073 347.323C352.825 346.248 352.728 345.088 352.823 343.993C353.01 341.843 354.538 340.936 356.392 342.05C358.103 343.08 360.006 344.24 361.041 345.846C364.094 350.588 366.071 355.77 365.536 362.228C359.589 358.231 354.655 354.17 353.073 347.323ZM318.223 328.356C319.737 328.907 321.388 329.121 322.843 329.781C328.308 332.256 327.857 332.282 327.609 338.144C327.455 341.804 328.838 345.529 329.544 349.286C324.691 348.638 320.386 351.061 316.464 354.546C316.008 354.947 314.969 355.18 314.439 354.947C307.977 352.11 301.996 346.384 303.793 337.639C304.825 332.619 313.102 326.504 318.223 328.356ZM294.447 319.896C293.024 313.73 292.706 307.764 296.927 302.199C305.997 290.241 322.452 293.649 329.72 303.203C330.09 303.689 329.824 305.03 329.4 305.671C328.517 307.012 327.33 308.152 326.108 309.564C323.712 307.757 321.434 305.892 319.004 304.253C313.89 300.794 309.019 301.351 304.847 304.913C299.262 309.675 300.19 315.861 302.934 319.903C304.63 322.41 306.536 324.768 308.391 327.249C306.802 328.622 305.131 330.073 303.196 331.744C299.154 328.654 295.648 325.092 294.447 319.896ZM290.962 323.776C292.09 325.027 293.015 326.458 294.304 328.162C285.977 327.968 278.848 325.506 272.406 321.062C270.522 319.767 269.265 317.83 269.995 315.33C270.777 312.648 273.589 311.65 277.149 313.043C282.78 315.245 286.996 319.385 290.962 323.776ZM275.896 334.484C268.499 331.342 261.191 327.909 258.656 319.404C255.712 309.539 261.371 302.549 270.902 301.571C278.472 300.794 284.386 304.59 289.973 309.033C290.314 309.305 290.573 309.869 290.602 310.309C290.781 313.134 290.884 315.964 291.031 319.171C287.676 316.612 284.8 314.202 281.701 312.13C280.05 311.028 278.079 310.122 276.138 309.785C271.577 309.001 268.652 310.646 267.201 314.293C266.101 317.066 267.41 321.244 270.674 323.284C273.997 325.364 277.683 326.873 281.239 328.57C282.389 329.121 283.627 329.49 284.956 329.989C282.079 331.53 279.419 332.968 276.746 334.381C276.506 334.504 276.127 334.581 275.896 334.484ZM254.536 297.853C262.906 290.967 272.27 287.618 282.838 291.09C287.404 292.586 291.376 295.89 295.736 298.449C293.896 301.597 292.575 303.857 291.626 305.484C286.633 303.346 281.71 300.645 276.446 299.122C267.519 296.544 256.608 302.743 255.419 310.575C254.153 318.918 256.796 325.869 263.579 330.928C266.641 333.215 270.123 334.938 273.488 336.959C272.3 338.999 270.96 341.305 269.611 343.618C255.292 341.052 247.31 328.382 247.555 317.519C247.632 314.125 247.886 310.704 248.442 307.356C249.098 303.404 251.432 300.405 254.536 297.853ZM257.412 270.199C250.418 270.322 241.922 261.72 242.006 254.601C242.061 249.957 249.092 243.066 253.733 243.114C260.864 243.189 269.146 251.537 269.004 258.514C268.887 264.291 263.126 270.096 257.412 270.199ZM224.805 270.05C224.214 266.695 224.838 262.951 225.651 259.563C227.292 252.716 229.795 246.109 233.93 240.34C238.323 234.209 244.921 231.166 251.787 228.844C255.892 227.454 260.18 226.465 264.463 225.778C269.35 224.995 273.864 226.743 278.254 228.78C286.706 232.703 292.682 239.136 297.369 247.029C298.466 248.875 298.406 249.879 296.922 251.44C291.975 256.642 287.626 262.4 286.497 269.655C285.822 273.989 286.373 278.51 286.373 283.673C280.837 278.42 275.716 273.568 270.598 268.71C269.398 267.576 269.56 266.468 270.225 264.985C275.264 253.72 268.039 239.305 252.918 238.964C245.376 238.794 235.908 249.244 238.19 258.203C240.98 269.156 251.711 274.416 260.362 272.518C261.642 272.239 263.011 271.935 264.088 271.249C265.504 270.348 266.547 270.659 267.529 271.689C272.395 276.781 277.23 281.905 282.3 287.255C278.28 287.255 274.641 286.879 271.122 287.365C267.775 287.832 264.25 288.661 261.348 290.3C257.146 292.664 253.465 295.948 249.477 298.721C248.835 299.168 247.534 299.382 246.912 299.032C235.355 292.586 227.158 283.395 224.805 270.05ZM213.768 275.874C216.647 276.295 219.607 276.839 222.241 277.992C223.804 278.679 224.983 280.525 226.026 282.06C228.668 285.94 231.137 289.937 233.125 293.033C229.31 292.845 224.186 292.509 219.055 292.366C214.143 292.224 206.946 284.884 207.082 279.974C207.155 277.377 210.17 275.356 213.768 275.874ZM191.02 282.254C187.578 270.471 191.377 263.637 204.63 261.578C210.64 260.644 215.412 261.752 221.787 264.213C221.787 265.859 221.696 267.582 221.813 269.293C221.931 270.983 222.261 272.661 222.44 273.944C218.275 273.594 214.211 272.94 210.157 272.991C204.552 273.075 201.731 277.299 204.107 282.397C205.904 286.251 208.726 289.626 211.103 293.234C208.521 294.484 205.522 295.935 202.4 297.445C197.605 293.286 192.92 288.758 191.02 282.254ZM173.594 280.285C172.758 275.906 173.104 271.216 173.473 266.714C174.185 258.054 180.315 253.571 187.295 249.924C195.087 245.85 203.445 244.327 212.075 245.435C216.694 246.031 221.16 247.812 225.835 249.102C224.481 253.571 223.371 257.225 222.376 260.509C217.144 259.9 212.075 259.11 206.976 258.773C200.675 258.358 195.198 260.697 190.581 264.901C186.797 268.34 186.831 273.036 187.222 277.578C187.822 284.534 190.931 290.39 195.96 295.223C197.358 296.564 198.771 297.885 200.202 299.245C197.334 302.342 194.657 305.237 191.901 308.211C181.471 301.675 175.825 291.965 173.594 280.285ZM187.337 194.23C187.566 190.463 189.467 188.515 193.277 188.314C202.271 187.842 209.406 191.515 215.14 198.236C220.557 204.585 222.873 212.403 225.476 220.093C226.643 223.542 227.982 226.932 229.394 230.759C219.887 226.864 210.166 223.747 201.306 219.019C191.856 213.976 186.652 205.507 187.337 194.23ZM167.652 201.659C173.336 202.541 178.432 204.633 182.786 208.274C184.815 209.97 186.312 212.304 188.239 214.572C182.879 215.232 178.123 216.142 173.34 216.332C166.06 216.622 158.747 216.658 151.475 216.282C148.888 216.149 146.196 214.812 143.878 213.464C140.789 211.67 141.138 208.008 140.436 205.056C139.603 201.551 139.286 197.922 138.72 194.176C147.788 199.059 157.792 200.13 167.652 201.659ZM138.891 163.276C141.739 172.506 148.886 177.886 156.497 182.769C163.253 187.105 170.905 189.236 178.591 191.207C180.933 191.808 182.188 193.074 182.23 195.703C182.275 198.612 182.768 201.514 183.136 205.11C174.65 198.221 164.521 199.007 155.254 196.739C153.097 196.21 150.881 195.879 148.775 195.198C142.044 193.023 138.821 187.964 138.422 181.242C138.06 175.173 138.346 169.066 138.346 162.987C138.416 163.021 138.833 163.093 138.891 163.276ZM170.888 148.413C178.218 155.287 182.998 163.887 185.454 173.669C186.138 176.394 186.697 179.217 186.781 182.013C186.899 185.874 184.777 188.295 180.983 187.754C175.528 186.976 170.013 185.748 164.877 183.786C155.876 180.345 148.043 174.831 143.228 166.321C139.843 160.339 138.402 153.53 138.893 146.481C139.032 144.47 138.914 142.44 138.914 140.227C150.801 139.248 161.949 140.03 170.888 148.413ZM183.973 140.259C190.325 141.094 193.28 146.106 194.647 151.838C195.841 156.845 196.408 161.998 197.392 167.059C198.527 172.897 199.376 178.861 204.126 184.123C199.808 183.797 196.404 183.903 193.215 183.124C191.905 182.804 190.508 180.729 190.092 179.197C187.383 169.237 184.228 159.521 177.414 151.46C173.062 146.311 168.459 141.47 161.543 139.677C161.604 139.382 161.664 139.086 161.725 138.79C169.147 139.24 176.62 139.292 183.973 140.259ZM214.787 150.585C215.434 157.424 215.571 164.348 215.348 171.219C215.16 177.049 214.178 182.853 213.525 188.858C206.994 185.669 203.368 180.037 201.673 173.312C199.852 166.087 198.956 158.633 197.317 151.356C196.437 147.444 194.846 143.693 193.497 139.635C198.939 140.712 204.555 141.504 209.972 143.011C213.365 143.955 214.509 147.652 214.787 150.585ZM235.079 167.857C235.973 170.858 235.928 173.683 234 176.507C229.615 182.928 226.382 189.904 225.211 197.677C224.768 200.619 224.582 203.599 224.246 206.884C219.028 196.854 215.057 187.337 217.694 175.65C219.765 166.474 219.524 156.723 216.912 146.815C224.861 152.651 232.233 158.296 235.079 167.857ZM292.532 160.851C304.257 165.881 314.182 172.938 318.609 185.917C315.646 187.601 312.661 189.298 309.806 190.921C306.345 187.412 303.184 183.49 299.325 180.455C292.576 175.147 284.657 172.2 276.091 171.388C272.679 171.065 269.168 171.127 265.76 171.522C254.348 172.844 248.618 180.825 244.745 190.457C239.709 202.974 239.788 215.532 245.798 227.881C242.668 229.73 239.712 231.476 236.61 233.309C231.781 227.328 228.531 220.762 227.765 213.01C226.86 203.846 227.584 194.929 231.537 186.514C235.469 178.145 240.865 170.767 247.825 164.674C253.403 159.791 260.657 159.046 267.529 158.326C275.921 157.448 284.525 157.416 292.532 160.851ZM283.268 124.671C288.804 129.714 292.009 135.971 291.77 143.77C280.601 138.596 268.963 134.536 259.115 126.977C254.262 123.252 253.143 119.862 254.821 113.827C255.091 112.856 255.358 111.88 255.716 110.94C256.869 107.923 258.063 104.92 259.406 101.496C265.685 111.284 275.143 117.27 283.268 124.671ZM284.358 106.271C287.508 110.599 291.332 114.454 295.017 118.366C296.891 120.354 297.824 122.071 296.216 124.763C294.78 127.167 293.877 129.889 292.601 132.788C291.274 130.558 290.426 128.249 288.851 126.662C285.077 122.861 280.943 119.419 276.988 115.796C273.631 112.719 270.007 109.857 267.084 106.406C264.396 103.235 262.654 99.4167 264.06 94.892C266.394 87.3824 270.588 80.8866 274.918 73.6283C273.125 86.5085 277.492 96.8418 284.358 106.271ZM311.976 86.94C312.726 96.0813 311.424 104.723 308.122 113.131C305.982 118.582 302.109 119.738 297.552 116.114C286.293 107.157 278.552 95.8909 277.484 81.2176C276.768 71.4129 280.898 62.8856 286.832 54.979C300.84 61.3764 310.634 70.6051 311.976 86.94ZM329.317 91.1142C328.007 96.2983 325.846 101.263 324.314 106.399C322.877 111.217 321.676 116.113 320.591 121.022C320.306 122.312 320.838 123.781 321.027 125.467C317.846 123.199 315.023 121.248 312.271 119.201C310.382 117.795 310.802 115.901 311.35 113.98C313.548 106.264 315.405 98.4695 314.982 90.3731C314.628 83.5637 313.588 76.8574 310.258 70.7548C309.395 69.1742 308.235 67.7569 307.501 65.71C311.204 67.8851 314.958 69.9788 318.593 72.2641C320.985 73.7688 323.297 75.4362 325.482 77.2306C329.976 80.9184 330.621 85.9554 329.317 91.1142ZM346.415 104.082C341.909 111.996 336.751 119.54 331.824 127.213C330.294 129.596 328.667 131.917 326.916 134.517C321.727 125.909 323.055 117.57 326.126 109.039C328.699 101.89 330.894 94.5999 333.087 87.3215C333.596 85.6302 333.415 83.7296 333.621 81.0096C338.427 85.3289 343.3 88.8632 347.021 93.3529C349.513 96.3585 348.206 100.936 346.415 104.082ZM351.094 133.528C341.254 138.551 333.004 145.179 327.339 155.756C327.21 144.166 328.859 134.182 336.609 125.49C343.118 118.189 348.102 109.587 350.872 99.4381C354.903 109.149 359.228 118.379 355.358 128.754C354.655 130.64 352.889 132.612 351.094 133.528ZM319.594 177.79C314.524 171.71 309.171 165.749 304.341 159.392C297.406 150.263 294.798 140.148 299.455 129.115C302.954 120.826 307.874 120.781 315.094 127.404C324.869 136.369 325.359 147.784 323.127 159.784C322.001 165.835 320.761 171.863 319.594 177.79ZM378.006 131.205C388.245 133.553 397.607 138.022 405.294 145.253C412.552 152.08 417.426 160.549 419.264 170.408C420.079 174.782 419.84 179.352 420.099 184.185C416.363 184.185 413.223 184.319 410.112 184.077C409.461 184.027 408.477 182.641 408.388 181.793C406.803 166.665 398.562 155.821 386.199 147.89C376.75 141.828 366.894 142.014 357.493 148.118C346.228 155.433 338.551 165.393 336.028 178.918C335.035 184.24 334.9 184.215 329.502 184.217C327.878 184.218 326.253 184.217 324.536 184.217C322.604 170.257 327.117 158.779 335.699 148.642C344.085 138.738 355.322 133.706 367.574 130.827C370.856 130.057 374.655 130.436 378.006 131.205ZM410.779 129.979C414.411 134.431 416.172 139.659 416.183 145.519C416.189 148.728 416.791 151.937 417.208 155.97C416.391 154.849 415.981 154.381 415.674 153.852C410.832 145.504 404.087 139.051 395.369 135.067C389.485 132.378 387.471 127.904 387.25 122.052C386.952 114.193 389.883 107.169 393.117 99.7088C396.997 111.404 403.412 120.947 410.779 129.979ZM419.427 113.8C421.685 120.968 421.022 127.691 417.049 134.819C411.369 126.271 405.955 118.177 400.601 110.041C397.939 105.995 396.258 101.483 396.084 96.685C396.022 94.9931 397.352 92.8722 398.667 91.5812C402.252 88.0632 406.168 84.8819 410.464 81.1211C410.582 93.305 416.101 103.241 419.427 113.8ZM434.054 70.3085C428.165 82.116 427.9 94.4379 430.924 107.015C431.585 109.765 432.591 112.447 433.028 115.225C433.219 116.436 432.787 118.292 431.93 119.022C429.27 121.288 426.27 123.154 422.829 125.58C424.483 119.243 422.564 113.98 420.71 108.713C418.858 103.452 416.684 98.2857 415.168 92.9313C412.703 84.2238 414.742 79.1524 422.312 74.2541C426.966 71.2432 431.774 68.4707 436.981 66.0604C435.995 67.4713 434.815 68.7849 434.054 70.3085ZM466.823 79.0974C467.037 84.413 464.999 90.0726 462.953 95.1686C459.574 103.586 453.954 110.572 446.634 116.039C441.844 119.617 438.091 118.542 435.884 112.993C431.276 101.41 430.526 89.5972 433.986 77.5661C436.546 68.6657 443.238 63.2925 450.445 58.4212C452.444 57.07 454.761 56.1896 457.136 54.9899C463.101 62.1453 466.47 70.3396 466.823 79.0974ZM474.115 109.615C469.357 114.044 464.113 117.953 459.405 122.43C456.381 125.307 453.939 128.796 451.193 132.061C449.908 129.193 448.18 125.942 447.076 122.492C446.756 121.492 448.021 119.75 448.92 118.637C453.443 113.039 458.458 107.8 462.583 101.931C467.198 95.3617 469.201 87.6331 469.905 79.6565C470.049 78.0151 469.433 76.3068 469.168 74.629C469.434 74.504 469.7 74.379 469.965 74.2534C472.901 79.8837 475.973 85.4481 478.739 91.1615C482.484 98.8958 479.786 104.337 474.115 109.615ZM484.433 127.183C477.069 131.628 469.381 135.54 461.756 139.539C458.815 141.082 455.67 142.238 452.308 143.706C452.124 134.512 456.731 128.055 463.218 122.411C469.571 116.883 475.699 111.096 481.86 105.352C482.875 104.406 483.547 103.092 484.731 101.46C486.351 105.878 488.064 109.922 489.314 114.104C491.076 120.003 489.836 123.921 484.433 127.183ZM424.498 177.867C423.353 172.005 422.218 165.955 420.982 159.926C419.386 152.146 419.166 144.486 422.203 136.934C424.375 131.536 427.937 127.337 432.89 124.463C438.168 121.399 441.237 122.323 443.99 127.803C447.584 134.956 447.885 142.374 445.036 149.908C442.048 157.811 436.379 163.808 430.968 170.006C428.657 172.653 426.497 175.431 424.498 177.867ZM484.067 223.336C484.54 221.569 485.042 219.756 485.511 217.933C487.199 211.376 487.286 204.799 484.709 198.503C480.407 187.992 472.51 185.904 461.084 189.877C458.07 190.925 455.166 192.644 452.625 194.595C450.155 196.491 448.216 199.08 446.039 201.369C442.821 198.384 439.927 195.702 436.952 192.943C444.5 181.542 455.291 175.728 468.541 174.179C471.508 173.832 474.577 173.969 477.562 174.256C486.605 175.125 491.641 181.095 495.423 188.611C499.372 196.46 500.902 204.801 499.742 213.428C499.132 217.961 497.365 222.34 496.083 226.924C491.722 225.622 488.056 224.528 484.067 223.336ZM452.953 219.405C453.055 217.984 453.592 216.312 454.519 215.29C456.413 213.201 458.491 211.095 460.907 209.73C462.651 208.745 465.78 207.972 466.999 208.866C468.505 209.972 469.323 212.92 469.262 215.039C469.179 217.896 468.615 221.155 467.073 223.439C465.497 225.771 462.519 227.176 460.095 228.903C457.323 230.879 454.486 232.763 452.272 234.279C452.454 229.892 452.575 224.639 452.953 219.405ZM463.461 204.965C460.139 206.481 457.258 208.983 454.247 211.139C453.625 211.584 453.293 212.433 452.698 213.279C450.942 209.948 449.442 207.211 448.077 204.409C447.854 203.951 447.996 202.984 448.349 202.625C452.627 198.279 457.008 194.153 462.947 191.956C472.429 188.448 481.371 193.146 483.258 203.149C484.527 209.874 483.627 216.469 481.082 222.656C477.555 222.928 474.162 223.19 470.791 223.45C471.356 220.753 472.145 218.04 472.429 215.275C472.632 213.302 472.439 211.185 471.926 209.264C470.812 205.092 467.416 203.159 463.461 204.965ZM413.361 227.973C409.249 227.917 404.623 224.459 403.235 220.401C401.154 214.324 403.355 206.095 408.32 202.07C409.369 201.219 410.983 200.319 412.162 200.512C415.907 201.124 419.813 201.724 423.202 203.303C427.116 205.126 426.603 209.357 426.684 212.493C426.685 221.769 421.073 228.074 413.361 227.973ZM442.42 287.262C446.633 280.065 448.301 272.667 444.426 264.68C440.815 257.237 433.977 255.022 426.276 256.758C417.801 258.669 413.247 264.875 409.794 272.201C409.492 272.842 409.201 273.49 408.88 274.125C408.753 274.371 408.559 274.591 408.438 274.76C406.129 273.393 403.872 272.059 401.598 270.711C404.416 255.65 417.825 248.298 427.669 248.655C431.087 248.778 434.527 249.037 437.897 249.6C441.269 250.157 444.345 251.68 446.309 254.614C449.013 258.643 452.341 262.536 453.879 267.012C457.182 276.632 455.759 285.811 448.608 293.61C447.731 294.562 446.859 295.527 446.034 296.434C443.682 295.054 441.503 293.785 439.058 292.353C440.136 290.734 441.372 289.05 442.42 287.262ZM424.346 273.348C425.859 271.294 428.114 269.934 430.702 271.45C433.265 272.952 433.171 275.55 432.245 277.927C429.392 285.254 423.941 290.377 417.441 294.659C417.561 286.763 419.735 279.618 424.346 273.348ZM422.081 271.65C419.306 276.075 417.262 280.952 414.946 285.545C413.744 283.284 412.351 280.719 411.017 278.115C410.816 277.726 410.71 277.124 410.865 276.742C413.22 270.931 416.195 265.587 421.389 261.727C425.026 259.025 433.817 258.093 437.871 261.163C442.068 264.344 444.775 271.074 443.551 276.995C442.453 282.313 439.734 286.795 436.323 290.902C435.978 291.317 435.38 291.725 434.872 291.77C432.053 291.984 429.226 292.088 425.822 292.256C427.694 289.976 429.455 288.078 430.915 285.979C432.412 283.828 433.837 281.568 434.895 279.178C436.735 275.019 435.529 270.957 432.211 269.027C428.955 267.142 424.403 267.944 422.081 271.65ZM404.366 301.707C404.609 298.196 404.984 294.685 405.064 291.161C405.175 286.322 402.4 282.242 398.391 280.959C392.177 278.964 387.849 280.072 384.806 284.943C382.843 288.091 381.453 291.595 379.75 295.054C377.752 294.296 375.611 293.493 373.53 292.709C374.741 281.71 380.677 275.874 389.24 273.173C396.311 270.937 403.34 272.985 408.098 279.067C413.662 286.173 415.08 294.161 410.944 302.743C408.591 302.374 406.501 302.044 404.366 301.707ZM389.935 310.355C389.384 310.853 389.02 311.56 388.123 312.777C388.318 306.688 386.696 301.927 383.316 297.756C382.95 297.309 382.853 296.311 383.083 295.76C384.48 292.405 385.609 288.842 387.601 285.869C389.794 282.591 393.471 282.073 397.407 283.518C400.463 284.638 402.439 287.67 402.393 291.492C402.365 293.817 402.218 296.162 401.875 298.462C401.58 300.444 400.739 301.765 398.59 302.957C395.334 304.758 392.758 307.796 389.935 310.355ZM373.777 334.147C373.567 334.018 373.481 333.629 373.405 333.344C371.859 327.501 379.391 318.497 385.407 318.549C389.351 318.581 394.289 326.478 393.151 330.747C392.657 332.606 392.127 334.452 391.518 336.272C391.011 337.794 389.872 338.287 388.344 338.96C385.487 340.223 383.071 342.497 380.502 344.395C380.208 344.609 380.114 345.101 379.742 345.827C378.319 341.098 377.858 336.674 373.777 334.147ZM369.382 339.427C369.859 338.41 371.165 337.14 372.064 337.159C372.998 337.179 374.287 338.436 374.762 339.459C378.2 346.85 375.395 353.555 372.081 360.985C368.582 353.509 365.901 346.798 369.382 339.427ZM355.673 319.605C356.63 318.828 358.373 318.536 359.661 318.711C365.792 319.527 371.159 326.504 370.674 332.768C370.637 333.247 370.572 333.959 370.265 334.147C366.184 336.68 365.851 341.182 364.429 345.172C361.433 342.445 359.196 338.708 354.499 338.675C354.064 338.669 353.54 338.021 353.218 337.561C349.427 332.1 350.465 323.854 355.673 319.605ZM372.852 296.013C381.086 296.363 388.042 307.064 384.821 314.598C384.483 315.388 383.293 316.003 382.368 316.321C377.203 318.128 374.51 320.415 372.033 325.551C369.827 320.622 366.429 317.564 361.61 316.379C359.663 315.906 359.08 314.818 358.799 313.108C357.294 303.961 364.111 295.644 372.852 296.013ZM342.001 295.806C342.012 294.186 341.753 292.567 341.776 290.954C341.835 286.75 344.13 284.081 348.601 282.883C351.609 282.073 355.654 283.822 357.356 286.944C358.61 289.25 359.572 291.718 360.576 294.147C361.256 295.793 360.847 297.127 360.003 298.857C357.979 303.002 356.672 307.498 355.363 311.067C353.017 308.994 350.33 305.613 346.828 303.806C343.15 301.908 341.976 299.485 342.001 295.806ZM334.871 280.454C338.539 274.488 346.648 271.229 353.416 272.849C363.361 275.226 369.077 282.041 370.67 292.638C368.523 293.467 366.466 294.258 364.316 295.087C362.813 291.952 361.532 288.641 359.729 285.649C356.411 280.136 352.558 278.99 345.886 280.862C341.728 282.034 338.369 287.288 338.897 291.835C339.27 295.041 339.497 298.261 339.81 301.694C337.746 302.012 335.595 302.348 333.172 302.73C329.438 295.015 330.44 287.657 334.871 280.454ZM313.121 280.978C312.329 279.709 311.696 278.238 311.416 276.774C310.995 274.584 311.231 272.007 313.656 271.416C315.283 271.029 317.851 271.644 319.032 272.796C323.644 277.312 324.908 283.544 326.526 289.503C326.997 291.239 326.95 293.118 327.196 295.456C321.05 291.472 316.653 286.627 313.121 280.978ZM312.057 268.865C308.748 270.607 307.481 273.885 309.255 279.029C310.437 282.462 313.102 285.39 315.184 288.486C315.963 289.652 316.97 290.656 317.928 291.803C311.964 293.344 307.719 291.66 304.691 286.782C301.39 281.464 299.332 275.971 300.822 269.513C303.594 257.497 316.415 256.907 323.558 262.425C328.23 266.034 330.855 271.048 333.02 276.36C333.224 276.865 333.301 277.61 333.075 278.057C331.776 280.667 330.368 283.22 329.12 285.558C326.837 280.991 324.823 276.211 322.147 271.838C319.861 268.1 315.316 267.155 312.057 268.865ZM336.684 258.3C339.565 261.636 340.995 266.229 343.124 270.316C340.105 272.104 337.851 273.438 336.24 274.391C332.931 269.934 330.073 265.107 326.287 261.189C319.698 254.355 307.336 254.478 301.945 261.092C297.028 267.122 296.283 274.112 298.894 281.237C300.338 285.176 302.731 288.771 304.702 292.535C302.659 293.739 300.415 295.054 298.171 296.376C286.789 286.951 286.081 270.264 293.447 260.431C296.625 256.188 299.127 251.446 304.767 249.995C316.942 246.86 328.116 248.363 336.684 258.3ZM318.773 219.974C317.855 217.669 317.548 215.121 316.961 212.683C317.386 204.107 324.339 198.57 332.625 200.492C336.564 201.405 338.142 204.839 339.86 207.876C343.398 214.13 342.335 223.708 334.122 227.184C328.667 229.493 321.337 226.407 318.773 219.974ZM389.556 269.739C389.556 265.263 389.916 261.092 389.477 257.004C388.696 249.71 382.292 242.6 375.929 240.832C367.242 238.418 358.956 244.988 356.067 251.809C353.961 256.778 353.661 262.037 354.461 267.368C354.562 268.036 354.475 268.729 354.475 269.545C353.885 269.655 353.686 269.713 353.484 269.719C345.518 270.031 345.086 269.675 344.972 261.558C344.812 250.106 349.715 241.559 360.078 236.515C363.577 234.812 367.427 232.61 371.081 232.675C381.209 232.856 389.231 237.737 394.961 246.193C399.491 252.872 400.026 260.178 398.219 267.796C398.042 268.541 397.133 269.584 396.475 269.655C394.285 269.888 392.054 269.739 389.556 269.739ZM374.649 277.351C374.13 279.294 373.122 281.101 372.067 283.615C368.432 275.693 366.21 268.25 367.548 260.12C367.949 257.678 369.196 255.825 371.85 255.709C374.689 255.592 375.997 257.523 376.554 260.029C377.886 266.008 376.166 271.689 374.649 277.351ZM379.569 267.148C379.66 263.967 379.38 260.69 378.655 257.6C377.995 254.783 374.526 252.554 371.931 252.723C368.662 252.943 366.488 254.873 365.283 257.775C363.579 261.882 364.083 266.105 364.95 270.322C365.332 272.188 365.606 274.067 365.964 276.146C363.249 274.449 360.764 272.92 358.31 271.345C357.917 271.093 357.424 270.653 357.38 270.251C356.551 262.815 356.082 255.469 361.13 249.017C368.248 239.921 379.719 241.936 384.922 251.971C387.904 257.723 387.548 263.948 386.63 270.134C386.55 270.679 385.839 271.223 385.298 271.585C383.026 273.095 380.708 274.539 378.154 276.172C378.663 273.108 379.484 270.134 379.569 267.148ZM391.824 179.068C388.796 170.997 383.787 164.732 375.259 161.972C369.449 160.092 364.854 163.037 360.817 166.423C355.73 170.691 352.41 176.279 351.146 182.947C350.868 184.415 350.316 185.832 349.89 187.272C346.516 186.535 343.392 185.731 340.22 185.211C338.62 184.948 338.241 184.358 338.397 182.809C339.214 174.732 342.005 167.589 347.173 161.183C353.273 153.623 360.564 148.162 370.204 146.384C372.26 146.004 374.65 146.416 376.683 147.081C392.877 152.377 401.942 163.986 405.539 180.263C405.836 181.604 405.579 183.068 405.579 184.742C401.984 185.553 398.252 186.395 394.194 187.311C393.432 184.617 392.835 181.765 391.824 179.068ZM379.695 197.542C379.725 199.47 377.72 201.402 376.734 203.379C375.011 206.833 373.362 210.323 372.163 212.802C369.962 208.678 367.145 203.646 364.618 198.473C364.083 197.376 364.238 195.613 364.717 194.412C366.075 191.007 367.495 187.565 369.422 184.47C370.644 182.508 372.844 182.684 374.638 184.325C378.524 187.88 379.618 192.681 379.695 197.542ZM378.062 183.104C374.654 177.614 369.366 177.634 365.953 183.17C363.926 186.458 362.656 190.213 361.039 193.775C358.827 192.361 356.194 190.724 353.625 188.992C353.216 188.716 352.799 187.956 352.887 187.52C354.5 179.489 357.26 172.049 364.407 167.185C371.582 162.302 376.157 163.482 383.262 170.206C388.032 174.72 389.931 180.992 391.224 187.326C391.325 187.823 390.873 188.687 390.417 189C387.918 190.713 385.338 192.306 383.112 193.733C381.433 190.131 380.105 186.395 378.062 183.104ZM275.243 218.617C274.764 216.434 274.836 214.021 275.179 211.791C275.688 208.487 277.863 207.416 280.967 208.567C284.937 210.039 287.92 212.777 290.183 216.246C290.846 217.262 290.995 218.713 291.082 219.985C291.439 225.208 291.68 230.439 291.891 234.319C289.009 232.42 285.373 229.455 281.262 227.476C277.278 225.56 276.042 222.258 275.243 218.617ZM287.455 191.98C282.014 188.375 275.774 187.243 269.372 188.53C263.16 189.78 257.638 198.406 257.565 206.401C257.539 209.251 257.444 212.139 257.847 214.943C258.246 217.723 259.231 220.418 259.999 223.299C256.184 224.463 252.543 225.575 248.561 226.789C245.367 220.756 243.57 214.325 243.976 207.59C244.372 201.028 245.446 194.542 248.66 188.511C252.805 180.733 258.041 174.766 267.522 174.127C284.17 173.003 297.299 179.257 307.214 192.829C304.194 195.65 301.317 198.337 298.58 200.894C294.879 197.891 291.396 194.59 287.455 191.98ZM271.929 210.689C271.771 212.885 271.695 215.124 271.947 217.301C272.186 219.371 272.901 221.385 273.466 223.662C271.723 223.387 270.074 223.02 268.407 222.893C266.692 222.762 264.96 222.864 263.038 222.864C260.322 215.638 259.09 208.258 261.568 200.688C264.202 192.633 269.494 189.7 278.542 191.428C283.721 192.417 288.206 195.013 291.928 198.807C293.417 200.325 294.859 201.889 296.358 203.469C294.796 206.638 293.329 209.616 291.765 212.789C290.091 211.227 288.507 209.409 286.593 208.059C284.71 206.73 282.586 205.59 280.402 204.872C275.763 203.348 272.281 205.81 271.929 210.689ZM313.675 246.096C310.114 246.595 306.556 247.139 302.977 247.45C302.214 247.515 301.02 246.88 300.617 246.213C294.488 236.035 292.023 225.055 294.986 213.446C295.949 209.674 298.341 206.003 300.893 202.971C303.875 199.43 307.606 196.461 311.261 193.558C319.363 187.121 328.67 185.602 338.596 187.767C343.223 188.777 347.851 190.014 352.27 191.697C357.391 193.647 360.472 197.934 363.632 202.318C369.26 210.129 369.85 219.061 370.584 228.049C370.629 228.589 369.891 229.577 369.348 229.722C356.843 233.062 347.02 239.458 342.546 252.664C340.475 245.681 338.338 238.71 336.424 231.682C336.214 230.911 337.033 229.492 337.787 228.884C344.4 223.552 346.612 216.688 344.952 208.532C343.701 202.38 336.637 196.791 330.547 196.095C325.856 195.558 321.965 196.917 318.405 199.561C312.161 204.199 310.796 215.656 315.547 222.196C318.9 226.814 323.005 230.254 328.959 230.777C331.394 230.991 332.199 232.368 332.671 234.673C333.849 240.425 335.388 246.102 336.771 251.816C336.908 252.386 336.966 252.969 337.158 254.141C334.842 252.606 332.97 251.343 331.08 250.106C325.772 246.634 319.99 245.221 313.675 246.096ZM312.446 325.551C311.674 325.636 310.503 325.26 310.068 324.677C308.071 322.027 306.005 319.372 304.468 316.45C302.572 312.849 303.316 309.888 306.14 307.109C308.79 304.499 311.814 303.773 315.274 305.594C318.197 307.129 320.841 309.221 323.516 311.19C324.075 311.605 324.632 312.641 324.511 313.25C323.416 318.815 325.005 323.802 327.528 328.712C322.733 325.966 317.781 324.968 312.446 325.551ZM333.663 329.354C333.017 329.542 331.803 329.147 331.393 328.609C326.802 322.585 324.759 315.07 330.609 308.671C335.346 303.488 343.268 303.106 348.503 308.133C350.448 310.005 352.015 312.343 353.393 314.682C353.861 315.478 353.641 317.299 353.013 318.018C349.663 321.846 347.558 326.057 348.193 331.893C343.275 328.531 338.651 327.877 333.663 329.354ZM416.369 321.743C415.9 322.973 415.377 324.185 414.792 325.357C412.6 329.762 412.598 329.697 407.656 328.777C403.553 328.007 399.857 329.283 395.77 331.887C396.618 325.914 394.331 321.658 390.867 317.824C390.429 317.344 390.055 316.437 390.192 315.854C392.04 307.958 401.528 302.679 409.044 305.373C413.593 307.012 419.245 314.228 416.369 321.743ZM416.778 328.447C419.32 323.55 420.404 318.607 419.597 313.257C419.499 312.609 420.016 311.579 420.573 311.177C423.343 309.156 426.08 307.019 429.099 305.432C432.337 303.741 435.694 304.661 438.192 307.336C440.637 309.953 441.541 313.011 439.761 316.236C438.159 319.132 436.146 321.814 434.196 324.509C433.773 325.092 432.786 325.72 432.16 325.629C426.746 324.845 421.714 325.901 416.778 328.447ZM407.844 253.662C407.711 253.778 407.457 253.753 406.755 253.908C408.497 246.692 410.058 239.799 411.928 232.989C412.186 232.05 413.904 231.08 415.07 230.89C423.444 229.532 428.943 224.631 430.777 216.651C432.68 208.372 429.458 199.315 419.808 196.574C406.726 192.858 396.991 204.983 398.777 216.109C399.656 221.588 402.404 225.665 406.543 229.082C407.185 229.611 407.992 230.731 407.826 231.327C405.851 238.413 403.706 245.448 401.578 252.599C399.446 248.875 397.751 245.183 395.405 241.964C390.49 235.222 383.022 232.397 375.48 229.785C374.697 229.514 373.449 228.648 373.503 228.186C374.173 222.47 374.213 216.495 376.026 211.132C380.891 196.745 391.293 188.694 406.558 187.609C411.544 187.256 416.815 187.019 421.56 188.251C426.205 189.457 430.684 192.14 434.63 195.009C439.878 198.827 444.894 203.21 447.505 209.424C448.779 212.455 449.73 215.739 450.135 218.995C451.353 228.795 448.366 237.706 443.542 246.076C443.133 246.789 441.719 247.534 440.997 247.359C428.956 244.386 417.664 245.053 407.844 253.662ZM502.379 170.875C508.773 178.792 514.242 187.144 515.911 197.385C518.033 210.414 516.43 222.665 507.449 233.307C504.444 231.521 501.413 229.721 499.17 228.388C500.527 221.61 502.779 215.309 502.836 208.988C502.933 198.088 500.035 187.823 492.669 179.149C486.669 172.085 478.776 170.824 470.346 171.065C462.792 171.281 455.54 173.498 449.306 177.516C443.777 181.081 439.139 186.031 433.796 190.638C431.554 189.371 428.481 187.634 425.441 185.916C430.878 168.794 452.186 157.298 466.968 158.112C472.129 158.396 477.281 158.871 482.43 159.35C490.831 160.133 497.158 164.409 502.379 170.875ZM525.849 171.396C526.062 175.923 526.989 180.411 527.402 184.935C527.782 189.09 526.634 192.912 524.657 196.608C522.943 199.813 521.667 203.253 519.911 207.237C519.498 203.55 519.248 200.449 518.787 197.379C517.727 190.338 515.089 183.856 510.943 178.12C507.804 173.778 507.992 169.404 509.975 164.933C513.481 157.025 520.087 151.993 527.221 146.742C524.83 155.383 525.471 163.416 525.849 171.396ZM543.553 168.679C542.654 174.689 540.276 179.973 536.392 184.524C534.858 186.324 532.692 187.585 530.061 189.693C529.427 178.337 528.571 167.943 528.414 157.539C528.358 153.846 529.89 150.096 530.914 146.433C531.527 144.242 533.102 143.028 535.515 142.62C540.576 141.763 545.59 140.631 551.093 139.517C546.166 149.003 545.015 158.892 543.553 168.679ZM555.428 174.144C552.758 183.046 552.674 183.019 543.413 183.859C542.552 183.938 541.692 184.04 540.23 184.195C547.559 174.465 546.421 162.978 549.176 152.537C551.423 144.017 554.967 140.675 563.534 139.544C565.111 139.336 566.71 139.216 568.301 139.201C572.97 139.156 577.64 139.185 582.674 139.185C567.093 146.138 559.941 159.094 555.428 174.144ZM593.789 195.594C589.417 196.782 584.887 197.407 580.411 198.182C573.734 199.337 566.929 200.06 561.034 205.13C561.385 200.918 561.398 197.32 562.135 193.877C562.372 192.771 564.404 191.655 565.815 191.261C575.83 188.461 585.693 185.365 593.783 178.435C598.817 174.123 603.696 169.64 605.359 162.75C605.712 162.806 606.065 162.861 606.417 162.917C605.971 169.829 605.572 176.744 605.065 183.651C604.553 190.649 599.845 193.948 593.789 195.594ZM575.732 216.815C569.304 216.61 562.908 215.406 556.296 214.616C559.548 208.047 565.269 204.448 572.129 202.68C577.71 201.242 583.507 200.66 589.133 199.368C594.604 198.113 599.978 196.438 605.46 194.93C604.461 200.025 603.924 205.758 602.026 210.996C601.239 213.167 597.69 215.296 595.132 215.679C588.745 216.637 582.192 217.02 575.732 216.815ZM526.034 226.283C522.325 227.56 518.643 228.916 514.882 230.262C517.678 222.688 520.275 215.125 523.255 207.715C527.243 197.793 534.268 190.979 544.866 188.508C547.255 187.951 549.944 188.296 552.434 188.651C555.369 189.068 556.629 191.267 556.84 194.071C557.537 203.334 553.651 210.566 546.766 216.392C540.734 221.498 533.323 223.77 526.034 226.283ZM598.291 218.175C592.387 225.898 586.9 233.481 577.181 236.174C574.123 237.021 571.401 237.006 568.578 235.049C559.505 228.758 549.394 225.497 537.738 225.65C548.001 220.337 557.495 216.033 569.308 218.715C578.507 220.804 588.262 220.347 598.291 218.175ZM604.674 139.998C606.197 150.092 605.257 159.606 599.906 167.898C595.013 175.478 587.644 180.678 579.179 183.818C574.194 185.667 568.92 187.039 563.658 187.751C559.125 188.363 556.93 185.983 557.282 181.345C558.022 171.59 561.856 162.929 567.431 154.954C575.332 143.652 586.388 139.321 599.799 139.988C601.409 140.068 603.027 139.998 604.674 139.998ZM441.38 162.536C447.819 154.44 451.941 145.248 462.684 142.087C470.948 139.656 484.227 132.452 490.196 125.743C489.734 135.607 488.436 140.764 484.601 147.552C481.762 152.574 478.031 155.664 471.642 155.311C461.175 154.734 455.177 155.486 441.38 162.536ZM271.574 155.313C266.674 155.511 263.477 153.348 260.818 149.655C255.764 142.634 254.449 134.533 253.717 125.677C262.225 133.785 272.005 138.439 282.14 142.445C288.048 144.781 293.133 147.933 296.331 153.754C297.956 156.711 300.273 159.29 301.972 161.62C296.672 159.841 291.186 157.52 285.469 156.236C280.985 155.229 276.198 155.127 271.574 155.313ZM176.607 218.677C182.088 217.957 187.463 216.946 192.736 219.175C197.117 221.026 201.376 223.169 204.887 224.808C198.825 226.293 192.017 227.697 185.391 229.7C182.352 230.619 179.448 232.418 176.869 234.337C171.804 238.106 167.061 236.776 162.108 234.277C155.023 230.703 150.709 224.41 145.772 218.234C156.26 220.37 166.47 220.009 176.607 218.677ZM157.512 284.645C155.647 274.675 157.111 264.803 160.11 255.216C160.876 252.761 162.242 250.229 164.022 248.402C172.867 239.339 182.791 231.749 195.616 229.433C207.296 227.324 218.679 228.062 228.822 235.274C229.893 236.035 231.016 236.725 232.303 237.571C230.398 240.794 228.65 243.751 227.152 246.284C221.877 245.027 216.924 243.563 211.868 242.702C204.842 241.506 197.968 242.889 191.288 245.072C185.817 246.854 181.074 249.885 176.766 253.759C172.514 257.581 170.836 262.478 170.363 267.822C168.815 285.292 175.159 299.323 189.205 309.849C189.444 310.031 189.657 310.245 190.033 310.575C188.302 313.645 186.573 316.716 184.765 319.922C168.863 313.315 160.554 300.91 157.512 284.645ZM140.148 280.719C137.223 271.352 132.231 262.678 124.7 254.983C131.377 255.378 137.368 256.162 142.99 258.76C144.916 259.647 146.772 260.741 148.529 261.934C152.381 264.557 154.646 267.952 154.284 272.946C153.507 283.66 155.469 293.804 161.189 303.171C152.393 297.347 143.651 291.926 140.148 280.719ZM100.112 260.392C106.123 258.358 111.532 255.774 117.201 254.88C120.875 254.303 123.944 257.672 126.235 260.787C131.752 268.282 135.819 276.548 139.2 285.189C140.19 287.715 141.488 290.125 142.814 292.949C132.402 293.066 125.579 287.456 119.72 279.955C114.161 272.842 108.559 265.723 100.112 260.392ZM117.534 296.402C111.578 291.375 105.754 286.096 99.3154 281.756C93.2328 277.655 86.0679 275.77 78.6451 275.466C76.9867 275.401 75.3025 275.841 72.8605 276.152C74.1042 275.239 74.7714 274.617 75.5487 274.209C80.7373 271.456 85.8613 268.579 91.1659 266.079C97.7738 262.977 103.319 265.515 107.866 270.361C112.653 275.466 116.873 281.101 121.691 286.173C124.487 289.114 127.971 291.401 131.197 294.024C128.812 295.054 125.998 296.007 123.464 297.451C120.993 298.857 119.446 298.015 117.534 296.402ZM74.1883 310.381C66.4734 307.582 61.7317 301.241 57.3529 294.724C56.0055 292.722 55.1439 290.397 53.9261 287.961C62.0492 281.918 70.7875 277.973 80.8086 278.575C85.1357 278.834 89.521 280.389 93.6086 282.021C101.978 285.364 108.928 290.824 114.494 297.905C118.86 303.456 117.901 307.025 111.37 309.564C99.1016 314.326 86.6249 314.902 74.1883 310.381ZM105.793 325.247C101.421 326.866 97.0735 328.609 92.598 329.898C80.7827 333.312 77.3301 328.888 72.4459 321.71C69.6087 317.526 67.2249 313.036 65.0548 308.185C66.1561 309.033 67.1601 310.07 68.3714 310.704C77.1358 315.297 86.4766 317.189 96.2838 315.751C102.179 314.889 107.989 313.451 113.835 312.259C115.758 311.864 117.24 312.084 118.461 314.015C120.176 316.716 122.277 319.184 124.687 322.377C117.538 320.68 111.694 323.07 105.793 325.247ZM339.816 351.773C339.038 352.052 337.783 351.67 337.012 351.177C331.679 347.783 329.207 342.296 330.882 336.343C331.377 334.581 333.386 332.521 335.132 331.971C340.865 330.164 347.504 333.312 350.394 338.636C350.674 339.148 351.059 339.938 350.862 340.333C348.773 344.583 350.494 348.58 351.701 352.913C347.583 351.579 343.868 350.335 339.816 351.773ZM392.295 352.978C393.762 348.748 394.965 344.823 393.361 340.638C393.148 340.081 393.353 339.135 393.722 338.623C397.754 333.072 402.324 330.04 409.3 332.068C410.944 332.541 412.81 334.633 413.283 336.343C414.94 342.303 412.146 348.346 406.793 351.397C406.082 351.799 404.965 352 404.221 351.747C400.18 350.387 396.446 351.527 392.295 352.978ZM585.961 263.113C588.148 274.948 588.122 286.646 582.536 297.633C577.449 307.634 570.673 316.101 559.205 319.709C557.519 316.735 555.781 313.665 554.322 311.087C558.162 307.09 562.188 303.592 565.359 299.44C570.174 293.143 572.917 285.785 573.688 277.856C574.036 274.267 573.954 270.588 573.664 266.98C572.867 257.082 566.134 251.647 558.226 247.301C551.776 243.751 544.596 242.732 537.416 242.251C531.036 241.825 524.971 243.731 519.081 246.083C518.532 246.303 517.982 246.517 517.264 246.802C515.415 243.686 513.624 240.67 511.849 237.677C526.354 225.19 550.207 225.871 565.459 236.466C569.86 239.523 574.049 242.911 578.147 246.374C583.278 250.702 584.805 256.855 585.961 263.113ZM602.215 284.528C600.179 289.717 597.151 294.193 592.017 297.075C588.876 298.837 586.103 301.26 582.951 303.54C584.704 299.317 586.5 295.417 587.957 291.388C590.103 285.448 590.348 279.203 589.867 273.011C589.408 267.116 592.554 263.721 597.02 260.917C601.933 257.827 607.345 256.259 613.053 255.56C615.229 255.294 617.402 254.996 619.638 254.705C611.324 263.223 606.469 273.678 602.215 284.528ZM623.054 281.568C619.013 286.737 613.935 290.222 607.882 292.327C605.93 293.007 603.684 292.839 601.572 293.059C601.312 292.82 601.051 292.58 600.79 292.34C606.318 282.008 611.697 271.591 617.487 261.409C618.811 259.084 621.435 257.406 623.673 255.709C625.477 254.342 627.569 254.705 629.671 255.482C634.194 257.16 638.782 258.656 643.886 260.411C634.93 266.138 629.026 273.918 623.054 281.568ZM633.88 289.432C631.248 291.822 628.672 294.284 626.109 296.745C624.556 298.241 623.079 298.76 620.944 297.587C618.303 296.136 615.425 295.119 611.886 293.577C621.944 289.866 626.239 281.043 632.602 274.358C634.836 272.013 636.96 269.486 639.502 267.518C644.277 263.818 649.604 264.162 654.74 266.695C660.171 269.383 665.425 272.421 671.056 275.466C666.868 275.718 663.12 275.582 659.514 276.237C649.672 278.011 641.243 282.747 633.88 289.432ZM649.105 313.14C643.138 312.719 637.195 310.789 631.434 308.943C626.928 307.505 625.556 303.599 628.195 300.023C637.643 287.203 649.94 278.763 666.298 278.594C675.1 278.497 682.993 282.403 689.947 287.864C681.716 307.304 669.205 314.546 649.105 313.14ZM619.489 322.416C621.922 319.002 623.665 315.99 626.001 313.548C626.947 312.557 629.254 312.35 630.828 312.577C638.324 313.652 645.757 315.809 653.258 316.036C662.299 316.308 671.284 314.688 678.605 308.411C678.721 308.308 678.976 308.373 680.075 308.288C675.91 314.611 672.247 320.615 668.129 326.283C664.688 331.025 659.507 331.971 654.159 330.552C648.777 329.121 643.549 327.1 638.288 325.24C632.362 323.142 626.538 320.577 619.489 322.416ZM564.995 128.623C578.613 128.915 592.234 129.122 605.855 129.205C609.47 129.228 613.087 128.696 616.515 128.433L616.515 166.63C616.514 170.715 616.44 174.801 616.536 178.883C616.602 181.715 617.031 184.54 617.063 187.371C617.124 192.637 617.262 197.922 616.896 203.166C616.602 207.385 615.684 211.568 614.912 215.742C613.509 223.328 608.966 229.161 604.267 234.979C598.934 241.584 590.962 244.153 584.596 248.551C582.688 246.822 580.883 245.189 578.905 243.395C582.292 241.031 585.774 239.117 588.63 236.514C598.586 227.446 604.967 216.57 607.034 202.869C608.698 191.842 608.574 180.83 608.834 169.817C609.07 159.781 608.185 149.722 607.88 139.669C607.829 137.985 607.327 137.321 605.581 137.304C602.952 137.282 600.327 136.887 597.698 136.843C586.001 136.648 574.3 136.28 562.607 136.435C549.895 136.602 537.161 137.57 525.536 143.27C521.192 145.4 517.6 149.091 513.728 152.148C511.915 153.58 510.012 155.006 508.574 156.779C506.221 159.677 504.215 162.857 501.793 166.303C500.044 164.298 498.442 162.461 496.725 160.491C501.007 154.121 503.899 146.301 510.35 140.668C518.65 133.419 528.039 129.317 538.993 128.659C544.241 128.343 549.486 127.789 554.736 127.724C558.151 127.681 561.569 128.549 564.995 128.623ZM646.162 230.311C648.145 224.892 650.015 219.431 651.947 213.993C652.738 211.765 652.15 210.68 649.638 210.275C644.648 209.47 639.728 208.24 634.745 207.386C629.771 206.533 624.756 205.926 619.526 205.179C619.763 199.857 619.998 194.615 620.245 189.09C637.115 192.983 653.826 196.839 670.676 200.728C665.661 217.132 660.642 233.548 655.513 250.32C650.731 247.761 646.173 245.325 641.37 242.753C642.988 238.565 644.643 234.463 646.162 230.311ZM605.012 238.394C607.103 235.767 610.061 233.34 611.305 230.227C613.951 223.605 618.844 223.922 624.271 224.787C625.27 224.946 626.265 225.132 627.933 225.423C626.24 229.221 624.66 232.889 622.932 236.486C622.728 236.91 621.729 237.086 621.079 237.141C615.769 237.588 610.456 237.977 605.012 238.394ZM625.823 237.294C626.952 234.761 628.062 232.203 629.229 229.673C631.739 224.225 631.507 223.573 625.729 222.398C622.773 221.798 619.728 221.636 616.651 221.267C617.425 217.454 618.08 213.706 619.017 210.03C619.21 209.271 620.553 208.154 621.198 208.257C630.292 209.712 639.357 211.347 648.427 212.957C648.586 212.985 648.706 213.233 649.259 213.813C645.884 222.857 642.418 232.145 638.904 241.561C634.293 240.056 630.257 238.739 625.823 237.294ZM691.822 188.626C685.037 212.47 678.317 236.082 671.452 260.211C667.234 257.821 663.886 255.949 660.566 254.038C658.7 252.956 658.068 251.66 658.811 249.296C663.711 233.717 668.427 218.08 673.179 202.455C674.358 198.577 674.134 198.396 670.17 197.508C659.49 195.113 648.829 192.636 638.163 190.182C632.824 188.954 627.504 187.651 622.149 186.501C620.556 186.157 619.581 185.682 619.622 183.812C619.712 179.763 619.65 175.711 619.65 170.93C644.16 175.501 667.522 182.609 691.822 188.626ZM742.389 370.532C730.856 359.313 719.523 347.886 707.974 336.68C702.349 331.226 696.472 326.018 690.554 320.881C689.075 319.592 689.206 318.678 689.989 317.266C692.11 313.444 694.074 309.538 696.263 305.755C700.484 298.468 703.723 290.572 709.669 284.34C711.076 282.863 710.113 281.807 708.446 281.199C696.181 276.729 686.008 268.534 674.799 262.18C674.24 261.868 673.799 260.489 674.001 259.816C677.611 247.773 681.469 235.801 684.987 223.732C688.332 212.251 691.337 200.672 694.518 189.144C694.98 187.47 694.671 186.481 692.789 186.016C687.869 184.801 682.991 183.421 678.09 182.13C669.249 179.802 660.441 177.338 651.551 175.216C641.598 172.84 631.575 170.76 621.571 168.607C619.827 168.233 619.3 167.296 619.327 165.605C619.399 161.113 619.272 156.617 619.348 152.124C619.483 144.055 619.545 135.979 619.992 127.925C620.137 125.322 619.489 124.9 617.172 125.188C613.151 125.689 609.103 126.232 605.064 126.252C597.553 126.288 590.04 125.918 582.526 125.8C577.451 125.721 577.523 125.768 576.343 120.829C573.403 108.522 570.459 96.2145 567.384 83.9406C564.775 73.5271 561.962 63.1641 559.288 52.7666C558.848 51.054 558.211 49.9165 556.178 50.5299C553.557 51.3208 550.937 52.1208 548.3 52.8554C538.036 55.7173 527.74 58.4652 517.504 61.4247C506.981 64.4667 496.484 67.6143 486.049 70.9451C484.274 71.5119 483.472 71.3751 482.639 69.8569C476.493 58.6587 468.247 48.6359 463.953 36.3963C463.334 34.6304 462.12 34.337 460.641 35.5936C460.024 36.1171 459.447 36.7181 458.756 37.1217C448.321 43.2212 437.89 49.327 427.377 55.2892C426.749 55.6454 425.106 55.1122 424.501 54.4644C419.705 49.3349 415.203 43.9233 410.314 38.8876C398.612 26.8338 386.743 14.9434 374.952 2.97646C372.032 0.0128288 372.061 0.00505479 369.018 3.09632C358.303 13.9795 347.514 24.7927 336.885 35.7589C331.145 41.6813 325.542 47.7498 320.162 53.9968C318.587 55.8248 317.501 56.1118 315.675 54.8746C315.012 54.4256 314.234 54.149 313.547 53.7319C303.478 47.6195 292.234 43.464 283.277 35.492C281.807 34.1834 280.678 34.837 280.059 36.5698C275.666 48.8775 267.43 59.0293 261.084 70.2408C260.753 70.8259 259.387 71.3428 258.723 71.1458C246.175 67.4263 233.697 63.4679 221.128 59.8273C210.9 56.8651 200.565 54.276 190.288 51.4834C185.548 50.1951 185.643 50.1736 184.451 54.7314C181.198 67.1814 177.714 79.574 174.617 92.0624C172.011 102.567 169.858 113.184 167.364 123.718C167.169 124.541 165.89 125.651 165.067 125.693C159.491 125.982 153.898 126.206 148.318 126.089C141.029 125.936 133.745 125.462 126.46 125.094C124.516 124.994 123.475 125.496 124.092 127.729C124.467 129.086 124.784 130.513 124.792 131.91C124.847 143.317 124.79 154.725 124.86 166.132C124.871 167.967 123.83 168.307 122.451 168.592C114.405 170.259 106.299 171.68 98.3314 173.683C82.7849 177.597 67.3356 181.894 51.8085 185.892C49.4377 186.502 49.1722 187.555 49.7552 189.592C52.113 197.775 54.3414 205.994 56.7122 214.171C61.0911 229.265 65.5607 244.334 69.8879 259.439C70.1274 260.275 69.687 261.927 69.0457 262.296C57.9494 268.645 47.8313 276.742 35.6791 281.211C33.2628 282.099 33.3406 283.174 34.9147 284.988C36.8968 287.281 38.8595 289.678 40.3624 292.301C44.6637 299.802 48.7835 307.42 52.8644 315.051C55.1576 319.346 55.0473 319.397 51.1738 322.533C50.7786 322.857 50.4288 323.239 50.0661 323.589C41.198 332.152 32.3171 340.69 23.475 349.273C16.097 356.443 8.81596 363.705 1.39903 370.83C0.459701 371.724 -0.00666908 372.476 -0.000138351 373.234L4.33342 373.234C4.32689 372.087 5.4865 370.934 7.82487 368.596C17.2759 359.164 26.6038 349.597 36.1908 340.301C42.6815 334.011 49.5283 328.097 56.6409 321.619C58.9728 325.92 61.1235 329.716 63.0798 333.616C63.3972 334.257 63.1835 335.669 62.6716 336.155C54.5357 343.825 46.3155 351.404 38.1147 359.002C33.8589 362.953 29.6419 366.95 25.3212 370.83C24.3561 371.692 23.8637 372.456 23.8702 373.234L27.2386 373.234L27.2322 373.227C39.8248 361.457 52.3332 349.752 65.1008 337.814C67.9251 342.361 70.7235 346.876 73.5413 351.417C67.4716 356.418 61.4408 361.366 55.436 366.341C53.5641 367.896 51.6854 369.457 49.9364 371.148C49.211 371.847 48.8613 372.541 48.8676 373.234L51.9317 373.234C54.1211 371.213 56.0904 369.25 58.2215 367.475C62.9114 363.575 67.7048 359.799 72.4205 355.932C74.2409 354.435 75.6076 353.464 77.4537 356.262C79.287 359.028 81.8975 361.282 84.2424 363.847C81.2043 366.277 78.2959 368.654 75.3291 370.954C74.2992 371.75 73.8263 372.495 73.8392 373.234L76.3849 373.234C79.9671 370.669 82.9664 368.479 86.0237 366.374C86.4255 366.095 87.2286 366.011 87.6692 366.212C92.8636 368.602 98.027 371.064 102.594 373.221L102.555 373.234L129.34 373.234C129.382 370.131 129.994 367.047 130.967 363.912C133.753 354.941 137.972 346.798 144.232 339.835C148.995 334.529 155.173 331.141 161.581 328.162C168.398 325.001 175.574 325.201 182.99 325.584L182.99 336.149C179.576 336.965 175.985 337.561 172.572 338.695C156.602 343.98 146.194 354.681 142.386 371.161C142.226 371.86 142.132 372.547 142.088 373.234L145.208 373.234C145.162 368.434 147.096 364.139 149.64 360.058C156.184 349.571 165.385 342.4 177.875 340.126C179.653 339.802 181.448 339.582 183.551 339.271C184.477 343.339 185.325 347.07 186.238 351.086C184.51 351.553 182.774 352.039 181.032 352.492C173.25 354.539 166.811 358.49 162.834 365.707C161.389 368.324 160.609 370.824 160.489 373.234L163.225 373.234C163.159 369.315 165.439 365.7 169.417 361.768C173.959 357.279 179.903 355.362 186.036 354.15C186.653 354.027 187.705 354.63 188.12 355.206C189.821 357.584 191.353 360.084 192.702 362.157C189.036 363.847 185.17 365.162 181.815 367.287C179.235 368.926 177.948 371.077 177.95 373.234L181.981 373.234C182.037 372.294 182.533 371.303 183.441 370.371C187.037 366.691 191.746 365.538 196.511 365.583C198.648 365.609 200.729 367.792 202.898 368.874C206.127 370.481 209.411 371.971 211.837 373.117C211.765 373.156 211.686 373.195 211.612 373.234L231.648 373.234C231.666 364.696 235.977 357.642 242.349 352.226C249.153 346.435 257.274 344.803 266.12 346.818C268.023 347.252 268.744 347.86 268.608 349.765C268.479 351.579 268.58 353.405 268.58 355.349C265.206 355.349 262.276 355.284 259.35 355.355C249.01 355.608 242.006 361.898 239.692 369.509C239.312 370.759 239.142 372.009 239.141 373.234L242.118 373.234C242.126 368.2 245.265 363.329 250.301 360.589C256.198 357.389 262.62 357.648 269.027 358.614C269.512 358.685 270.022 359.261 270.331 359.728C271.894 362.086 273.395 364.482 275.068 367.099C271.88 366.581 268.859 365.752 265.819 365.674C262.64 365.596 259.352 365.881 256.281 366.672C253.557 367.371 251.649 370.584 251.688 373.234L254.715 373.234L254.714 373.221C254.707 371.86 256.286 370.001 257.656 369.263C259.249 368.401 261.383 368.194 263.258 368.272C269.588 368.544 275.69 369.95 281.425 372.728C281.529 372.78 281.591 372.929 281.713 373.234L294.82 373.234C294.815 372.942 294.812 372.651 294.822 372.353C295.041 366.251 300.872 360.66 306.952 360.369C308.054 360.317 309.146 359.993 310.247 359.961C312.517 359.896 314.525 360.026 315.278 362.953C316.495 367.695 319.5 371.115 324.458 373.208L324.396 373.234L335.976 373.234L335.969 373.188C335.997 372.243 337.289 370.947 338.333 370.481C345.712 367.177 352.399 369.697 359.711 373.234L384.439 373.234C384.379 373.208 384.32 373.175 384.259 373.149C391.505 370.021 397.941 367.119 405.109 370.28C406.343 370.824 407.229 372.158 408.275 373.13L408.178 373.234L419.763 373.234L419.675 373.188C424.744 371.057 427.547 367.371 429.078 362.474C429.373 361.535 430.703 360.369 431.652 360.272C436.441 359.792 443.027 360.939 446.45 365.292C448.312 367.656 449.194 370.455 449.177 373.234L462.254 373.234C462.206 372.871 462.158 372.508 462.11 372.139C467.889 370.843 473.632 369.315 479.467 368.356C481.755 367.98 484.431 368.44 486.587 369.347C487.851 369.878 489.16 371.809 489.301 373.234L492.491 373.234C492.491 373.13 492.495 373.02 492.49 372.916C492.36 370.137 490.091 366.905 486.93 366.445C483.013 365.875 478.968 366.05 474.983 366.141C473.01 366.186 471.049 366.769 469.025 367.119C470.621 364.612 471.85 361.956 473.769 359.954C474.865 358.814 477.053 358.439 478.804 358.264C486.485 357.48 493.559 358.6 498.909 365.026C501.1 367.656 502.014 370.487 501.981 373.234L504.907 373.234C505.012 369.652 503.549 366.464 501.372 363.601C497.096 357.966 491.174 355.387 484.131 355.349C481.397 355.329 478.663 355.342 475.499 355.342C475.499 353.179 475.38 350.86 475.582 348.573C475.633 347.997 476.629 347.206 477.326 347.025C490.814 343.397 504.013 350.348 508.739 361.269C510.253 364.767 512.422 368.388 512.529 372.003C512.542 372.417 512.533 372.825 512.526 373.234L532.614 373.234L532.459 373.149C535.658 371.556 539.936 369.742 543.851 367.339C546.471 365.733 548.983 364.871 551.769 366.018C554.814 367.268 557.863 368.667 560.589 370.487C561.717 371.239 562.183 372.21 562.109 373.234L566.174 373.234C566.166 371.018 564.685 368.803 561.734 366.976C558.53 364.994 554.857 363.77 551.363 362.189C552.965 359.773 554.852 356.929 556.844 353.924C566.717 355.847 575.585 359.248 580.028 369.502C580.599 370.818 580.852 372.055 580.874 373.234L583.714 373.234C583.838 368.829 581.373 365.162 578.505 361.755C574.373 356.845 568.946 353.632 562.491 352.408C560.915 352.103 559.393 351.52 557.822 351.067C558.765 347.064 559.661 343.268 560.573 339.401C576.37 340.456 587.49 348.521 595.34 361.321C597.807 365.344 598.907 369.321 598.864 373.234L601.785 373.234C601.862 368.35 599.992 363.938 597.674 359.87C592.32 350.458 584.551 343.313 574.228 339.485C570.838 338.228 567.177 337.652 563.602 336.965C561.758 336.609 560.678 336.11 560.835 333.914C561.029 331.2 560.882 328.453 560.882 325.817C574.642 323.712 586.073 328.142 596.207 336.57C606.364 345.023 611.357 356.521 614.435 368.926C614.773 370.286 614.875 371.75 614.831 373.234L641.486 373.234L641.448 373.214C645.947 371.109 650.971 368.725 656.041 366.439C656.649 366.166 657.693 366.16 658.216 366.51C661.237 368.524 664.162 370.688 667.679 373.195L667.626 373.234L670.349 373.234C670.362 372.152 668.932 371.077 666.048 368.55C664.076 366.827 661.785 365.467 659.735 364.003C662.749 360.647 665.659 357.415 668.952 353.749C676.811 360.233 684.454 366.536 692.568 373.221L692.555 373.234L695.389 373.234C695.394 372.508 694.942 371.796 694.116 371.102C686.352 364.573 678.586 358.037 670.61 351.326C673.28 347.012 676.076 342.497 678.97 337.82C691.723 349.733 704.2 361.392 716.849 373.214L716.829 373.234L720.297 373.234C720.299 372.314 719.425 371.401 717.664 369.781C709.335 362.137 701.072 354.422 692.785 346.733C689.212 343.423 685.701 340.042 682.041 336.829C680.696 335.65 680.101 334.704 681.124 332.988C683.248 329.418 685.217 325.765 687.762 321.231C705.779 338.714 723.34 355.757 741.332 373.214L741.313 373.234L744 373.234C744.006 372.398 743.458 371.575 742.389 370.532Z" fill="url(#paint0_linear_73_10871)"/>
<defs>
<linearGradient id="paint0_linear_73_10871" x1="372.509" y1="-303.118" x2="372.509" y2="373.275" gradientUnits="userSpaceOnUse">
<stop stop-color="white" stop-opacity="0"/>
<stop offset="1" stop-color="#121212"/>
</linearGradient>
</defs>
</svg>
