<svg width="76" height="74" viewBox="0 0 76 74" fill="none" xmlns="http://www.w3.org/2000/svg">
<path fill-rule="evenodd" clip-rule="evenodd" d="M34.8648 1.48892C33.1638 2.23592 30.3648 4.44892 28.6448 6.40792C26.9248 8.36592 24.5858 9.96892 23.4478 9.96892C19.9108 9.96892 13.5728 13.8439 11.9378 17.0059C10.7568 19.2909 10.6058 20.8489 11.3178 23.4279C12.2138 26.6739 11.9608 27.9689 10.4288 27.9689C10.0468 27.9689 9.90684 26.7319 10.1168 25.2189C10.4788 22.6219 10.4438 22.5949 9.50184 24.7409C8.95384 25.9909 7.82784 27.2729 7.00084 27.5899C6.17384 27.9079 4.49984 29.8099 3.27984 31.8179C2.05984 33.8259 0.700843 35.7209 0.258843 36.0289C-1.08116 36.9619 3.03084 44.2599 6.85984 47.7439C8.83784 49.5449 10.4568 51.9599 10.4568 53.1109C10.4568 56.5679 17.5158 62.7949 22.3028 63.5599C24.5878 63.9259 26.4568 64.5559 26.4568 64.9599C26.4568 65.3649 27.5968 66.8369 28.9908 68.2299C30.6908 69.9299 32.2538 70.6049 33.7408 70.2799C35.3438 69.9299 35.5838 70.0599 34.6108 70.7509C33.5858 71.4779 34.0088 71.9659 36.3818 72.7929C40.4148 74.1989 47.3178 71.4289 50.4978 67.1279C51.8848 65.2519 53.9628 63.9089 56.1008 63.5079C60.7418 62.6369 66.1838 57.6129 67.5978 52.8919C68.2388 50.7519 69.5948 48.2489 70.6098 47.3299C72.6328 45.4999 73.1528 43.4209 71.3018 44.5639C70.5808 45.0099 70.4198 44.8379 70.8718 44.1069C71.2698 43.4629 71.9948 43.1829 72.4838 43.4849C72.9718 43.7869 74.0218 42.7769 74.8168 41.2389C76.0528 38.8499 76.0648 37.8659 74.9008 34.4569C74.1518 32.2629 72.2918 29.3889 70.7678 28.0689C69.0998 26.6239 67.8698 24.4349 67.6788 22.5689C67.1018 16.9299 59.9328 9.96892 54.7028 9.96892C53.2588 9.96892 51.4168 8.91592 50.2368 7.41592C48.7658 5.54692 38.5368 -0.621078 38.0198 0.0509224C37.9848 0.0949224 36.5648 0.742922 34.8648 1.48892ZM39.6278 3.62392C40.6338 4.53392 41.4568 5.85792 41.4568 6.56492C41.4568 7.27192 41.9548 8.15892 42.5638 8.53492C43.3158 8.99992 43.4458 8.50892 42.9698 7.00792C42.3368 5.01392 42.4718 4.90692 44.3558 5.91492C45.5038 6.52992 47.4318 8.36792 48.6388 10.0009C49.8458 11.6329 51.4498 12.9689 52.2038 12.9689C52.9578 12.9689 53.3248 13.3729 53.0208 13.8659C52.7158 14.3599 53.1758 17.9059 54.0428 21.7459C55.5678 28.5009 55.5508 28.8639 53.5178 32.8489C52.3618 35.1149 51.1888 36.9689 50.9108 36.9689C50.6328 36.9689 51.1378 35.5529 52.0318 33.8229C53.5138 30.9569 53.5168 30.7319 52.0578 31.2919C50.7008 31.8119 50.4568 31.0049 50.4568 25.9969C50.4568 22.7459 50.0068 19.8089 49.4568 19.4689C48.9068 19.1289 48.4568 17.9779 48.4568 16.9099C48.4568 15.8419 48.0068 14.9689 47.4568 14.9689C46.2318 14.9689 46.1818 14.1549 47.9208 22.4649L49.3838 29.4599L46.3528 35.6829C43.0308 42.5019 39.6898 45.8039 32.3478 49.5239C20.4918 55.5319 12.5058 49.7319 16.5728 38.0669C17.1858 36.3069 17.4438 34.6229 17.1458 34.3249C16.3308 33.5099 13.7228 39.0349 12.9308 43.2539C12.5478 45.2969 11.8078 46.9689 11.2868 46.9689C10.7648 46.9689 10.6398 47.4559 11.0078 48.0519C11.3758 48.6469 10.2848 48.4139 8.58384 47.5349C6.88284 46.6549 4.80784 44.6149 3.97384 43.0019C1.85684 38.9079 2.08184 37.8439 4.29884 41.4689C5.30684 43.1189 6.99284 45.1299 8.04484 45.9389C9.52284 47.0749 9.46184 46.8479 7.77384 44.9389C6.57284 43.5799 5.11084 41.2039 4.52484 39.6589C3.93984 38.1129 3.01084 37.1259 2.46184 37.4659C0.780843 38.5049 3.39384 32.6779 5.72584 30.1899C6.89984 28.9359 8.44484 28.1339 9.15884 28.4079C11.4118 29.2729 13.5578 27.8629 12.9428 25.9239C12.2148 23.6329 14.5538 18.0279 17.2308 15.6429C18.3588 14.6389 21.1298 13.6799 23.3888 13.5109C26.7768 13.2589 27.8918 12.6139 29.7468 9.83692C30.9838 7.98492 33.4738 5.72692 35.2788 4.81992C37.3028 3.80292 38.0618 2.96992 37.2588 2.64892C36.5428 2.36192 36.3718 2.09092 36.8778 2.04792C37.3848 2.00492 38.6218 2.71392 39.6278 3.62392ZM32.4568 4.31392C32.4568 4.50392 31.4438 5.51592 30.2068 6.56392L27.9568 8.46892L29.8618 6.21892C31.6518 4.10492 32.4568 3.51392 32.4568 4.31392ZM36.4568 5.96892C36.4568 6.51892 35.7818 6.96892 34.9568 6.96892C34.1318 6.96892 33.4638 7.75692 33.4718 8.71892C33.4838 10.0609 33.6848 10.1569 34.3338 9.13392C34.7998 8.39892 35.4678 7.83692 35.8188 7.88392C36.1698 7.93092 37.4698 7.91692 38.7068 7.85292C40.4188 7.76492 40.5358 7.62692 39.1948 7.27692C38.2258 7.02392 37.6898 6.40192 38.0038 5.89292C38.3178 5.38492 38.0978 4.96892 37.5158 4.96892C36.9338 4.96892 36.4568 5.41892 36.4568 5.96892ZM55.6718 11.3709C57.7148 11.7419 59.6528 12.4779 59.9788 13.0049C60.3438 13.5949 59.5638 13.5799 57.9488 12.9659C56.5068 12.4179 54.3438 11.9499 53.1418 11.9269C51.7208 11.8989 50.1648 10.5879 48.6918 8.17692L46.4278 4.46892L49.1918 7.58192C50.9268 9.53492 53.3408 10.9469 55.6718 11.3709ZM23.5768 12.0489C17.8648 13.1709 14.6208 15.3759 12.9158 19.2939C12.1568 21.0399 11.5178 21.7419 11.4958 20.8539C11.3898 16.4869 19.0068 10.9779 24.9568 11.1179C27.3578 11.1739 27.0818 11.3599 23.5768 12.0489ZM36.9568 12.1469C35.8568 12.7609 32.5948 15.2569 29.7068 17.6939L24.4568 22.1239V30.9989C24.4568 35.8809 23.9338 41.0229 23.2948 42.4259C21.8618 45.5689 22.7988 46.7699 24.9808 44.5879C25.8708 43.6979 27.2428 42.9689 28.0278 42.9689C29.9278 42.9689 29.8678 39.3409 27.9568 38.6069C27.1318 38.2909 26.4568 37.5129 26.4568 36.8779C26.4568 36.0269 26.8358 36.0389 27.9018 36.9229C30.0328 38.6919 33.7448 37.7949 35.0328 35.2009C36.8448 31.5529 37.4668 31.4459 36.4608 34.9559C34.3628 42.2689 28.4578 47.3169 22.7068 46.7119C19.0688 46.3299 19.0528 46.3459 20.4918 49.0349C21.2178 50.3919 22.5908 50.9689 25.0918 50.9689C30.0538 50.9689 34.6538 46.1929 37.0678 38.5349C38.2848 34.6729 40.2108 31.3559 42.6878 28.8539C44.7608 26.7599 46.4568 24.5789 46.4568 24.0079C46.4568 22.0349 43.4978 22.9769 41.8648 25.4689C40.9638 26.8439 39.8738 27.9689 39.4418 27.9689C39.0098 27.9689 38.1168 25.7189 37.4568 22.9689C36.7968 20.2189 35.8668 17.9689 35.3888 17.9689C34.9108 17.9689 34.6938 18.5319 34.9078 19.2189C35.1208 19.9069 35.5668 22.9439 35.8988 25.9689C36.4378 30.8919 36.3658 31.2079 35.2038 28.9779C34.4908 27.6079 33.1308 26.3369 32.1818 26.1549C30.8438 25.8969 30.4568 26.5279 30.4568 28.9629C30.4568 31.6489 30.7468 32.0119 32.4568 31.4689C33.5888 31.1099 34.4568 31.2889 34.4568 31.8829C34.4568 32.4589 33.2618 33.2309 31.8008 33.5969C28.6468 34.3889 26.4568 32.0639 26.4568 27.9229C26.4568 25.7749 27.0868 25.0779 29.7068 24.3259C33.2668 23.3049 34.5258 19.3439 31.2068 19.6079C28.8268 19.7969 28.9388 19.6019 32.9688 16.5279C36.1498 14.1009 36.6268 13.9959 38.0398 15.4089C38.8978 16.2669 39.9698 16.9689 40.4208 16.9689C41.8798 16.9689 42.5258 13.7569 41.3518 12.3419C39.9948 10.7069 39.5688 10.6879 36.9568 12.1469ZM62.4628 17.7039C63.5918 19.1389 64.4738 21.8069 64.4958 23.8539C64.5268 26.8119 65.1138 27.8339 67.7238 29.4749C71.8938 32.0989 73.2878 36.0029 71.5698 40.2549C70.8558 42.0229 70.2388 44.0299 70.1978 44.7149C70.1568 45.3999 69.1938 46.7499 68.0578 47.7149C66.0588 49.4109 66.0398 49.4059 67.4738 47.5559C69.2028 45.3269 69.1768 45.3359 59.7318 50.2269C51.8428 54.3129 51.4568 54.4409 51.4568 52.9689C51.4568 52.4189 52.1318 51.9689 52.9568 51.9689C54.5618 51.9689 55.0488 48.4529 53.5698 47.5389C53.0828 47.2379 52.1278 47.6609 51.4478 48.4799C50.7678 49.2989 49.5918 49.9689 48.8348 49.9689C47.1158 49.9689 46.9898 53.9579 48.7068 53.9989C51.0018 54.0549 46.9098 55.8589 41.9848 56.9629C35.9228 58.3209 35.1228 57.6129 40.0808 55.2779C42.3578 54.2049 45.3538 51.4449 47.4388 48.4979C49.3738 45.7629 52.3978 42.1009 54.1598 40.3589C55.9218 38.6169 57.6578 36.0169 58.0178 34.5809C58.3788 33.1439 59.3298 31.9689 60.1318 31.9689C61.1078 31.9689 61.4848 31.1329 61.2728 29.4379C60.8018 25.6629 59.1508 26.2499 57.4398 30.8009C55.6298 35.6169 53.9588 37.6949 55.5378 33.1679C56.6318 30.0299 56.3258 20.9509 54.9498 15.7309C54.2388 13.0329 54.2738 13.0089 57.3488 14.0809C59.0648 14.6789 61.3658 16.3099 62.4628 17.7039ZM65.4188 19.4689C65.4268 20.5389 64.0418 18.7309 62.3558 15.4689C61.6698 14.1409 62.0088 14.3079 63.3678 15.9689C64.4918 17.3439 65.4158 18.9189 65.4188 19.4689ZM43.0158 16.8729C42.6438 17.4759 41.4658 17.9689 40.3978 17.9689C39.0858 17.9689 38.4568 18.6569 38.4568 20.0939C38.4568 21.9539 38.8588 22.1389 41.6758 21.5749C46.0898 20.6919 47.2518 19.3359 45.2818 17.3659C44.2008 16.2849 43.4768 16.1269 43.0158 16.8729ZM70.0328 29.1699C71.9158 30.8229 73.4568 32.5099 73.4568 32.9179C73.4568 33.3259 71.6568 31.9469 69.4568 29.8539C66.4978 27.0399 65.4958 25.3229 65.6068 23.2589L65.7568 20.4689L66.1828 23.3159C66.4248 24.9369 68.0828 27.4579 70.0328 29.1699ZM5.52984 31.6039C4.38984 33.0529 3.47084 34.9659 3.48684 35.8539C3.51084 37.1209 3.75584 37.0379 4.62384 35.4689C5.23184 34.3689 6.64684 32.4559 7.76784 31.2189C8.88884 29.9819 9.30984 28.9689 8.70384 28.9689C8.09784 28.9689 6.66884 30.1549 5.52984 31.6039ZM41.4568 34.4689C41.4568 35.9789 42.0278 36.9689 42.8978 36.9689C45.0078 36.9689 45.8108 35.0999 44.4208 33.4249C42.6168 31.2519 41.4568 31.6599 41.4568 34.4689ZM50.4568 40.9689C49.8678 42.0689 49.2198 42.9689 49.0148 42.9689C48.8108 42.9689 48.8798 42.0689 49.1668 40.9689C49.4548 39.8689 50.1038 38.9689 50.6088 38.9689C51.1158 38.9689 51.0478 39.8639 50.4568 40.9689ZM73.8018 40.5119C73.4758 41.3609 72.9948 41.8409 72.7328 41.5789C72.4708 41.3169 72.5528 40.6219 72.9158 40.0359C73.9018 38.4399 74.4778 38.7499 73.8018 40.5119ZM47.4568 45.3469C47.4568 45.5539 46.6688 46.3419 45.7068 47.0969C44.1208 48.3399 44.0858 48.3049 45.3288 46.7189C46.6358 45.0529 47.4568 44.5239 47.4568 45.3469ZM19.0758 56.6389C20.5688 57.6169 22.7278 58.4839 23.8738 58.5649C25.0198 58.6459 26.8098 59.0679 27.8518 59.5029C31.8028 61.1529 46.5089 58.1929 55.2838 53.9829C59.8848 51.7749 64.0318 49.9689 64.5008 49.9689C65.9518 49.9689 63.4738 55.6049 60.9998 57.9279C59.7098 59.1409 56.9218 60.3719 54.8048 60.6649C51.9088 61.0659 50.4618 61.9659 48.9548 64.3049C47.8538 66.0139 45.8288 67.9809 44.4548 68.6759C43.0808 69.3709 42.6318 69.9359 43.4568 69.9319C45.3998 69.9219 48.9268 67.0479 50.3038 64.3529C51.0008 62.9869 52.7278 62.0199 55.1708 61.6269C60.0448 60.8429 63.3158 58.5059 65.0198 54.5909C65.9138 52.5359 66.3918 52.1009 66.4178 53.3189C66.4828 56.4199 60.2038 61.8259 55.6998 62.5459C52.8188 63.0069 51.3758 63.8519 50.6128 65.5259C49.4318 68.1179 46.2648 70.4099 42.4568 71.4299C40.5428 71.9429 40.3088 71.8539 41.4568 71.0499C42.7248 70.1619 42.7338 69.9969 41.5158 69.9839C40.4228 69.9729 40.5008 69.6569 41.8378 68.6799C44.0338 67.0739 43.1448 62.3819 40.5138 61.6939C35.7558 60.4499 33.5858 66.3699 37.7068 69.3539C39.8098 70.8779 39.7048 70.8859 36.0848 69.4759C31.3918 67.6489 31.1458 67.6339 32.0588 69.2189C32.4548 69.9069 31.5818 69.3779 30.1178 68.0449C28.6548 66.7109 27.4568 65.1629 27.4568 64.6039C27.4568 64.0439 28.1178 64.4599 28.9248 65.5279C30.8208 68.0349 30.8578 66.9699 28.9978 63.3859C27.7938 61.0649 26.8178 60.5369 23.4088 60.3619C20.6868 60.2219 18.4088 59.3509 16.7298 57.8089C15.3288 56.5219 14.3808 56.1029 14.6228 56.8789C14.8648 57.6539 16.6078 59.1169 18.4948 60.1289C20.4608 61.1829 21.1988 61.9689 20.2248 61.9689C17.8448 61.9689 11.8298 55.6999 11.2378 52.6019C10.9668 51.1869 11.1308 50.2669 11.6008 50.5579C12.0718 50.8489 12.4588 50.4979 12.4608 49.7779C12.4628 49.0579 13.3408 49.9069 14.4128 51.6649C15.4848 53.4219 17.5828 55.6609 19.0758 56.6389ZM43.4568 49.3139C43.4568 49.5039 42.4438 50.5159 41.2068 51.5639L38.9568 53.4689L40.8618 51.2189C42.6518 49.1049 43.4568 48.5139 43.4568 49.3139ZM12.5268 52.6599C12.4888 53.8649 12.9068 55.1289 13.4568 55.4689C14.6398 56.1999 14.6398 55.2209 13.4568 52.4689C12.6278 50.5409 12.5948 50.5479 12.5268 52.6599ZM26.7258 62.6249C26.0488 62.8989 24.6988 62.9159 23.7258 62.6619C22.7528 62.4079 23.3068 62.1839 24.9568 62.1639C26.6068 62.1439 27.4028 62.3509 26.7258 62.6249Z" fill="black"/>
</svg>
