<svg width="1910" height="5" viewBox="0 0 1910 5" fill="none" xmlns="http://www.w3.org/2000/svg">
<path d="M4.96195 2.5C4.96195 3.88071 3.85118 5 2.48097 5C1.11077 5 0 3.88071 0 2.5C0 1.11929 1.11077 0 2.48097 0C3.85118 0 4.96195 1.11929 4.96195 2.5Z" fill="#A7852B" fill-opacity="0.25"/>
<path d="M272.907 2.5C272.907 3.88071 271.797 5 270.426 5C269.056 5 267.945 3.88071 267.945 2.5C267.945 1.11929 269.056 0 270.426 0C271.797 0 272.907 1.11929 272.907 2.5Z" fill="#A7852B" fill-opacity="0.25"/>
<path d="M540.852 2.5C540.852 3.88071 539.741 5 538.371 5C537.001 5 535.89 3.88071 535.89 2.5C535.89 1.11929 537.001 0 538.371 0C539.741 0 540.852 1.11929 540.852 2.5Z" fill="#A7852B" fill-opacity="0.25"/>
<path d="M808.797 2.5C808.797 3.88071 807.686 5 806.316 5C804.946 5 803.835 3.88071 803.835 2.5C803.835 1.11929 804.946 0 806.316 0C807.686 0 808.797 1.11929 808.797 2.5Z" fill="#A7852B" fill-opacity="0.25"/>
<path d="M1076.74 2.5C1076.74 3.88071 1075.63 5 1074.26 5C1072.89 5 1071.78 3.88071 1071.78 2.5C1071.78 1.11929 1072.89 0 1074.26 0C1075.63 0 1076.74 1.11929 1076.74 2.5Z" fill="#A7852B" fill-opacity="0.25"/>
<path d="M1344.69 2.5C1344.69 3.88071 1343.58 5 1342.21 5C1340.84 5 1339.73 3.88071 1339.73 2.5C1339.73 1.11929 1340.84 0 1342.21 0C1343.58 0 1344.69 1.11929 1344.69 2.5Z" fill="#A7852B" fill-opacity="0.25"/>
<path d="M1612.63 2.5C1612.63 3.88071 1611.52 5 1610.15 5C1608.78 5 1607.67 3.88071 1607.67 2.5C1607.67 1.11929 1608.78 0 1610.15 0C1611.52 0 1612.63 1.11929 1612.63 2.5Z" fill="#A7852B" fill-opacity="0.25"/>
<path d="M94.2769 2.5C94.2769 3.88071 93.1661 5 91.7959 5C90.4257 5 89.315 3.88071 89.315 2.5C89.315 1.11929 90.4257 0 91.7959 0C93.1661 0 94.2769 1.11929 94.2769 2.5Z" fill="#A7852B" fill-opacity="0.25"/>
<path d="M362.222 2.5C362.222 3.88071 361.111 5 359.741 5C358.371 5 357.26 3.88071 357.26 2.5C357.26 1.11929 358.371 0 359.741 0C361.111 0 362.222 1.11929 362.222 2.5Z" fill="#A7852B" fill-opacity="0.25"/>
<path d="M630.167 2.5C630.167 3.88071 629.056 5 627.686 5C626.316 5 625.205 3.88071 625.205 2.5C625.205 1.11929 626.316 0 627.686 0C629.056 0 630.167 1.11929 630.167 2.5Z" fill="#A7852B" fill-opacity="0.25"/>
<path d="M898.112 2.5C898.112 3.88071 897.002 5 895.631 5C894.261 5 893.151 3.88071 893.151 2.5C893.151 1.11929 894.261 0 895.631 0C897.002 0 898.112 1.11929 898.112 2.5Z" fill="#A7852B" fill-opacity="0.25"/>
<path d="M1166.06 2.5C1166.06 3.88071 1164.95 5 1163.58 5C1162.21 5 1161.1 3.88071 1161.1 2.5C1161.1 1.11929 1162.21 0 1163.58 0C1164.95 0 1166.06 1.11929 1166.06 2.5Z" fill="#A7852B" fill-opacity="0.25"/>
<path d="M1434 2.5C1434 3.88071 1432.89 5 1431.52 5C1430.15 5 1429.04 3.88071 1429.04 2.5C1429.04 1.11929 1430.15 0 1431.52 0C1432.89 0 1434 1.11929 1434 2.5Z" fill="#A7852B" fill-opacity="0.25"/>
<path d="M1701.95 2.5C1701.95 3.88071 1700.84 5 1699.47 5C1698.1 5 1696.99 3.88071 1696.99 2.5C1696.99 1.11929 1698.1 0 1699.47 0C1700.84 0 1701.95 1.11929 1701.95 2.5Z" fill="#A7852B" fill-opacity="0.25"/>
<path d="M183.592 2.5C183.592 3.88071 182.481 5 181.111 5C179.741 5 178.63 3.88071 178.63 2.5C178.63 1.11929 179.741 0 181.111 0C182.481 0 183.592 1.11929 183.592 2.5Z" fill="#A7852B" fill-opacity="0.25"/>
<path d="M451.537 2.5C451.537 3.88071 450.426 5 449.056 5C447.686 5 446.575 3.88071 446.575 2.5C446.575 1.11929 447.686 0 449.056 0C450.426 0 451.537 1.11929 451.537 2.5Z" fill="#A7852B" fill-opacity="0.25"/>
<path d="M719.482 2.5C719.482 3.88071 718.371 5 717.001 5C715.631 5 714.52 3.88071 714.52 2.5C714.52 1.11929 715.631 0 717.001 0C718.371 0 719.482 1.11929 719.482 2.5Z" fill="#A7852B" fill-opacity="0.25"/>
<path d="M987.427 2.5C987.427 3.88071 986.317 5 984.946 5C983.576 5 982.466 3.88071 982.466 2.5C982.466 1.11929 983.576 0 984.946 0C986.317 0 987.427 1.11929 987.427 2.5Z" fill="#A7852B" fill-opacity="0.25"/>
<path d="M1255.37 2.5C1255.37 3.88071 1254.26 5 1252.89 5C1251.52 5 1250.41 3.88071 1250.41 2.5C1250.41 1.11929 1251.52 0 1252.89 0C1254.26 0 1255.37 1.11929 1255.37 2.5Z" fill="#A7852B" fill-opacity="0.25"/>
<path d="M1523.32 2.5C1523.32 3.88071 1522.21 5 1520.84 5C1519.47 5 1518.36 3.88071 1518.36 2.5C1518.36 1.11929 1519.47 0 1520.84 0C1522.21 0 1523.32 1.11929 1523.32 2.5Z" fill="#A7852B" fill-opacity="0.25"/>
<path d="M1791.26 2.5C1791.26 3.88071 1790.15 5 1788.78 5C1787.41 5 1786.3 3.88071 1786.3 2.5C1786.3 1.11929 1787.41 0 1788.78 0C1790.15 0 1791.26 1.11929 1791.26 2.5Z" fill="#A7852B" fill-opacity="0.25"/>
<path d="M49.6197 2.5C49.6197 3.88071 48.5089 5 47.1387 5C45.7685 5 44.6577 3.88071 44.6577 2.5C44.6577 1.11929 45.7685 0 47.1387 0C48.5089 0 49.6197 1.11929 49.6197 2.5Z" fill="#A7852B" fill-opacity="0.25"/>
<path d="M317.565 2.5C317.565 3.88071 316.454 5 315.084 5C313.713 5 312.603 3.88071 312.603 2.5C312.603 1.11929 313.713 0 315.084 0C316.454 0 317.565 1.11929 317.565 2.5Z" fill="#A7852B" fill-opacity="0.25"/>
<path d="M585.509 2.5C585.509 3.88071 584.399 5 583.028 5C581.658 5 580.547 3.88071 580.547 2.5C580.547 1.11929 581.658 0 583.028 0C584.399 0 585.509 1.11929 585.509 2.5Z" fill="#A7852B" fill-opacity="0.25"/>
<path d="M853.455 2.5C853.455 3.88071 852.344 5 850.974 5C849.604 5 848.493 3.88071 848.493 2.5C848.493 1.11929 849.604 0 850.974 0C852.344 0 853.455 1.11929 853.455 2.5Z" fill="#A7852B" fill-opacity="0.25"/>
<path d="M1121.4 2.5C1121.4 3.88071 1120.29 5 1118.92 5C1117.55 5 1116.44 3.88071 1116.44 2.5C1116.44 1.11929 1117.55 0 1118.92 0C1120.29 0 1121.4 1.11929 1121.4 2.5Z" fill="#A7852B" fill-opacity="0.25"/>
<path d="M1389.34 2.5C1389.34 3.88071 1388.23 5 1386.86 5C1385.49 5 1384.38 3.88071 1384.38 2.5C1384.38 1.11929 1385.49 0 1386.86 0C1388.23 0 1389.34 1.11929 1389.34 2.5Z" fill="#A7852B" fill-opacity="0.25"/>
<path d="M1657.29 2.5C1657.29 3.88071 1656.18 5 1654.81 5C1653.44 5 1652.33 3.88071 1652.33 2.5C1652.33 1.11929 1653.44 0 1654.81 0C1656.18 0 1657.29 1.11929 1657.29 2.5Z" fill="#A7852B" fill-opacity="0.25"/>
<path d="M138.935 2.5C138.935 3.88071 137.824 5 136.454 5C135.083 5 133.973 3.88071 133.973 2.5C133.973 1.11929 135.083 0 136.454 0C137.824 0 138.935 1.11929 138.935 2.5Z" fill="#A7852B" fill-opacity="0.25"/>
<path d="M406.879 2.5C406.879 3.88071 405.769 5 404.399 5C403.028 5 401.918 3.88071 401.918 2.5C401.918 1.11929 403.028 0 404.399 0C405.769 0 406.879 1.11929 406.879 2.5Z" fill="#A7852B" fill-opacity="0.25"/>
<path d="M674.825 2.5C674.825 3.88071 673.714 5 672.344 5C670.974 5 669.863 3.88071 669.863 2.5C669.863 1.11929 670.974 0 672.344 0C673.714 0 674.825 1.11929 674.825 2.5Z" fill="#A7852B" fill-opacity="0.25"/>
<path d="M942.77 2.5C942.77 3.88071 941.659 5 940.289 5C938.919 5 937.808 3.88071 937.808 2.5C937.808 1.11929 938.919 0 940.289 0C941.659 0 942.77 1.11929 942.77 2.5Z" fill="#A7852B" fill-opacity="0.25"/>
<path d="M1210.72 2.5C1210.72 3.88071 1209.6 5 1208.23 5C1206.86 5 1205.75 3.88071 1205.75 2.5C1205.75 1.11929 1206.86 0 1208.23 0C1209.6 0 1210.72 1.11929 1210.72 2.5Z" fill="#A7852B" fill-opacity="0.25"/>
<path d="M1478.66 2.5C1478.66 3.88071 1477.55 5 1476.18 5C1474.81 5 1473.7 3.88071 1473.7 2.5C1473.7 1.11929 1474.81 0 1476.18 0C1477.55 0 1478.66 1.11929 1478.66 2.5Z" fill="#A7852B" fill-opacity="0.25"/>
<path d="M1746.61 2.5C1746.61 3.88071 1745.49 5 1744.12 5C1742.75 5 1741.64 3.88071 1741.64 2.5C1741.64 1.11929 1742.75 0 1744.12 0C1745.49 0 1746.61 1.11929 1746.61 2.5Z" fill="#A7852B" fill-opacity="0.25"/>
<path d="M228.25 2.5C228.25 3.88071 227.139 5 225.769 5C224.398 5 223.288 3.88071 223.288 2.5C223.288 1.11929 224.398 0 225.769 0C227.139 0 228.25 1.11929 228.25 2.5Z" fill="#A7852B" fill-opacity="0.25"/>
<path d="M496.194 2.5C496.194 3.88071 495.084 5 493.713 5C492.343 5 491.233 3.88071 491.233 2.5C491.233 1.11929 492.343 0 493.713 0C495.084 0 496.194 1.11929 496.194 2.5Z" fill="#A7852B" fill-opacity="0.25"/>
<path d="M764.14 2.5C764.14 3.88071 763.029 5 761.659 5C760.289 5 759.178 3.88071 759.178 2.5C759.178 1.11929 760.289 0 761.659 0C763.029 0 764.14 1.11929 764.14 2.5Z" fill="#A7852B" fill-opacity="0.25"/>
<path d="M1032.08 2.5C1032.08 3.88071 1030.97 5 1029.6 5C1028.23 5 1027.12 3.88071 1027.12 2.5C1027.12 1.11929 1028.23 0 1029.6 0C1030.97 0 1032.08 1.11929 1032.08 2.5Z" fill="#A7852B" fill-opacity="0.25"/>
<path d="M1300.03 2.5C1300.03 3.88071 1298.92 5 1297.55 5C1296.18 5 1295.07 3.88071 1295.07 2.5C1295.07 1.11929 1296.18 0 1297.55 0C1298.92 0 1300.03 1.11929 1300.03 2.5Z" fill="#A7852B" fill-opacity="0.25"/>
<path d="M1567.97 2.5C1567.97 3.88071 1566.86 5 1565.49 5C1564.12 5 1563.01 3.88071 1563.01 2.5C1563.01 1.11929 1564.12 0 1565.49 0C1566.86 0 1567.97 1.11929 1567.97 2.5Z" fill="#A7852B" fill-opacity="0.25"/>
<path d="M1835.92 2.5C1835.92 3.88071 1834.81 5 1833.44 5C1832.07 5 1830.96 3.88071 1830.96 2.5C1830.96 1.11929 1832.07 0 1833.44 0C1834.81 0 1835.92 1.11929 1835.92 2.5Z" fill="#A7852B" fill-opacity="0.25"/>
<path d="M1880.23 2.5C1880.23 3.88071 1879.12 5 1877.75 5C1876.38 5 1875.27 3.88071 1875.27 2.5C1875.27 1.11929 1876.38 0 1877.75 0C1879.12 0 1880.23 1.11929 1880.23 2.5Z" fill="#A7852B" fill-opacity="0.25"/>
<path d="M19.8479 2.5C19.8479 3.88071 18.7371 5 17.3669 5C15.9967 5 14.8859 3.88071 14.8859 2.5C14.8859 1.11929 15.9967 0 17.3669 0C18.7371 0 19.8479 1.11929 19.8479 2.5Z" fill="#A7852B" fill-opacity="0.25"/>
<path d="M287.793 2.5C287.793 3.88071 286.682 5 285.312 5C283.942 5 282.831 3.88071 282.831 2.5C282.831 1.11929 283.942 0 285.312 0C286.682 0 287.793 1.11929 287.793 2.5Z" fill="#A7852B" fill-opacity="0.25"/>
<path d="M555.738 2.5C555.738 3.88071 554.627 5 553.257 5C551.887 5 550.776 3.88071 550.776 2.5C550.776 1.11929 551.887 0 553.257 0C554.627 0 555.738 1.11929 555.738 2.5Z" fill="#A7852B" fill-opacity="0.25"/>
<path d="M823.683 2.5C823.683 3.88071 822.572 5 821.202 5C819.832 5 818.721 3.88071 818.721 2.5C818.721 1.11929 819.832 0 821.202 0C822.572 0 823.683 1.11929 823.683 2.5Z" fill="#A7852B" fill-opacity="0.25"/>
<path d="M1091.63 2.5C1091.63 3.88071 1090.52 5 1089.15 5C1087.78 5 1086.67 3.88071 1086.67 2.5C1086.67 1.11929 1087.78 0 1089.15 0C1090.52 0 1091.63 1.11929 1091.63 2.5Z" fill="#A7852B" fill-opacity="0.25"/>
<path d="M1359.57 2.5C1359.57 3.88071 1358.46 5 1357.09 5C1355.72 5 1354.61 3.88071 1354.61 2.5C1354.61 1.11929 1355.72 0 1357.09 0C1358.46 0 1359.57 1.11929 1359.57 2.5Z" fill="#A7852B" fill-opacity="0.25"/>
<path d="M1627.52 2.5C1627.52 3.88071 1626.41 5 1625.04 5C1623.67 5 1622.56 3.88071 1622.56 2.5C1622.56 1.11929 1623.67 0 1625.04 0C1626.41 0 1627.52 1.11929 1627.52 2.5Z" fill="#A7852B" fill-opacity="0.25"/>
<path d="M109.163 2.5C109.163 3.88071 108.052 5 106.682 5C105.312 5 104.201 3.88071 104.201 2.5C104.201 1.11929 105.312 0 106.682 0C108.052 0 109.163 1.11929 109.163 2.5Z" fill="#A7852B" fill-opacity="0.25"/>
<path d="M377.108 2.5C377.108 3.88071 375.997 5 374.627 5C373.257 5 372.146 3.88071 372.146 2.5C372.146 1.11929 373.257 0 374.627 0C375.997 0 377.108 1.11929 377.108 2.5Z" fill="#A7852B" fill-opacity="0.25"/>
<path d="M645.053 2.5C645.053 3.88071 643.942 5 642.572 5C641.202 5 640.091 3.88071 640.091 2.5C640.091 1.11929 641.202 0 642.572 0C643.942 0 645.053 1.11929 645.053 2.5Z" fill="#A7852B" fill-opacity="0.25"/>
<path d="M912.998 2.5C912.998 3.88071 911.888 5 910.517 5C909.147 5 908.036 3.88071 908.036 2.5C908.036 1.11929 909.147 0 910.517 0C911.888 0 912.998 1.11929 912.998 2.5Z" fill="#A7852B" fill-opacity="0.25"/>
<path d="M1180.94 2.5C1180.94 3.88071 1179.83 5 1178.46 5C1177.09 5 1175.98 3.88071 1175.98 2.5C1175.98 1.11929 1177.09 0 1178.46 0C1179.83 0 1180.94 1.11929 1180.94 2.5Z" fill="#A7852B" fill-opacity="0.25"/>
<path d="M1448.89 2.5C1448.89 3.88071 1447.78 5 1446.41 5C1445.04 5 1443.93 3.88071 1443.93 2.5C1443.93 1.11929 1445.04 0 1446.41 0C1447.78 0 1448.89 1.11929 1448.89 2.5Z" fill="#A7852B" fill-opacity="0.25"/>
<path d="M1716.83 2.5C1716.83 3.88071 1715.72 5 1714.35 5C1712.98 5 1711.87 3.88071 1711.87 2.5C1711.87 1.11929 1712.98 0 1714.35 0C1715.72 0 1716.83 1.11929 1716.83 2.5Z" fill="#A7852B" fill-opacity="0.25"/>
<path d="M198.478 2.5C198.478 3.88071 197.367 5 195.997 5C194.627 5 193.516 3.88071 193.516 2.5C193.516 1.11929 194.627 0 195.997 0C197.367 0 198.478 1.11929 198.478 2.5Z" fill="#A7852B" fill-opacity="0.25"/>
<path d="M466.423 2.5C466.423 3.88071 465.312 5 463.942 5C462.572 5 461.461 3.88071 461.461 2.5C461.461 1.11929 462.572 0 463.942 0C465.312 0 466.423 1.11929 466.423 2.5Z" fill="#A7852B" fill-opacity="0.25"/>
<path d="M734.368 2.5C734.368 3.88071 733.257 5 731.887 5C730.517 5 729.406 3.88071 729.406 2.5C729.406 1.11929 730.517 0 731.887 0C733.257 0 734.368 1.11929 734.368 2.5Z" fill="#A7852B" fill-opacity="0.25"/>
<path d="M1002.31 2.5C1002.31 3.88071 1001.2 5 999.832 5C998.462 5 997.351 3.88071 997.351 2.5C997.351 1.11929 998.462 0 999.832 0C1001.2 0 1002.31 1.11929 1002.31 2.5Z" fill="#A7852B" fill-opacity="0.25"/>
<path d="M1270.26 2.5C1270.26 3.88071 1269.15 5 1267.78 5C1266.41 5 1265.3 3.88071 1265.3 2.5C1265.3 1.11929 1266.41 0 1267.78 0C1269.15 0 1270.26 1.11929 1270.26 2.5Z" fill="#A7852B" fill-opacity="0.25"/>
<path d="M1538.2 2.5C1538.2 3.88071 1537.09 5 1535.72 5C1534.35 5 1533.24 3.88071 1533.24 2.5C1533.24 1.11929 1534.35 0 1535.72 0C1537.09 0 1538.2 1.11929 1538.2 2.5Z" fill="#A7852B" fill-opacity="0.25"/>
<path d="M1806.15 2.5C1806.15 3.88071 1805.04 5 1803.67 5C1802.3 5 1801.19 3.88071 1801.19 2.5C1801.19 1.11929 1802.3 0 1803.67 0C1805.04 0 1806.15 1.11929 1806.15 2.5Z" fill="#A7852B" fill-opacity="0.25"/>
<path d="M64.5051 2.5C64.5051 3.88071 63.3943 5 62.0241 5C60.6539 5 59.5431 3.88071 59.5431 2.5C59.5431 1.11929 60.6539 0 62.0241 0C63.3943 0 64.5051 1.11929 64.5051 2.5Z" fill="#A7852B" fill-opacity="0.25"/>
<path d="M332.45 2.5C332.45 3.88071 331.34 5 329.969 5C328.599 5 327.488 3.88071 327.488 2.5C327.488 1.11929 328.599 0 329.969 0C331.34 0 332.45 1.11929 332.45 2.5Z" fill="#A7852B" fill-opacity="0.25"/>
<path d="M600.395 2.5C600.395 3.88071 599.285 5 597.914 5C596.544 5 595.433 3.88071 595.433 2.5C595.433 1.11929 596.544 0 597.914 0C599.285 0 600.395 1.11929 600.395 2.5Z" fill="#A7852B" fill-opacity="0.25"/>
<path d="M868.341 2.5C868.341 3.88071 867.23 5 865.86 5C864.49 5 863.379 3.88071 863.379 2.5C863.379 1.11929 864.49 0 865.86 0C867.23 0 868.341 1.11929 868.341 2.5Z" fill="#A7852B" fill-opacity="0.25"/>
<path d="M1136.29 2.5C1136.29 3.88071 1135.18 5 1133.81 5C1132.43 5 1131.32 3.88071 1131.32 2.5C1131.32 1.11929 1132.43 0 1133.81 0C1135.18 0 1136.29 1.11929 1136.29 2.5Z" fill="#A7852B" fill-opacity="0.25"/>
<path d="M1404.23 2.5C1404.23 3.88071 1403.12 5 1401.75 5C1400.38 5 1399.27 3.88071 1399.27 2.5C1399.27 1.11929 1400.38 0 1401.75 0C1403.12 0 1404.23 1.11929 1404.23 2.5Z" fill="#A7852B" fill-opacity="0.25"/>
<path d="M1672.18 2.5C1672.18 3.88071 1671.06 5 1669.69 5C1668.32 5 1667.21 3.88071 1667.21 2.5C1667.21 1.11929 1668.32 0 1669.69 0C1671.06 0 1672.18 1.11929 1672.18 2.5Z" fill="#A7852B" fill-opacity="0.25"/>
<path d="M153.821 2.5C153.821 3.88071 152.71 5 151.34 5C149.969 5 148.859 3.88071 148.859 2.5C148.859 1.11929 149.969 0 151.34 0C152.71 0 153.821 1.11929 153.821 2.5Z" fill="#A7852B" fill-opacity="0.25"/>
<path d="M421.765 2.5C421.765 3.88071 420.655 5 419.284 5C417.914 5 416.803 3.88071 416.803 2.5C416.803 1.11929 417.914 0 419.284 0C420.655 0 421.765 1.11929 421.765 2.5Z" fill="#A7852B" fill-opacity="0.25"/>
<path d="M689.711 2.5C689.711 3.88071 688.6 5 687.23 5C685.86 5 684.749 3.88071 684.749 2.5C684.749 1.11929 685.86 0 687.23 0C688.6 0 689.711 1.11929 689.711 2.5Z" fill="#A7852B" fill-opacity="0.25"/>
<path d="M957.656 2.5C957.656 3.88071 956.545 5 955.175 5C953.804 5 952.694 3.88071 952.694 2.5C952.694 1.11929 953.804 0 955.175 0C956.545 0 957.656 1.11929 957.656 2.5Z" fill="#A7852B" fill-opacity="0.25"/>
<path d="M1225.6 2.5C1225.6 3.88071 1224.49 5 1223.12 5C1221.75 5 1220.64 3.88071 1220.64 2.5C1220.64 1.11929 1221.75 0 1223.12 0C1224.49 0 1225.6 1.11929 1225.6 2.5Z" fill="#A7852B" fill-opacity="0.25"/>
<path d="M1493.55 2.5C1493.55 3.88071 1492.44 5 1491.06 5C1489.69 5 1488.58 3.88071 1488.58 2.5C1488.58 1.11929 1489.69 0 1491.06 0C1492.44 0 1493.55 1.11929 1493.55 2.5Z" fill="#A7852B" fill-opacity="0.25"/>
<path d="M1761.49 2.5C1761.49 3.88071 1760.38 5 1759.01 5C1757.64 5 1756.53 3.88071 1756.53 2.5C1756.53 1.11929 1757.64 0 1759.01 0C1760.38 0 1761.49 1.11929 1761.49 2.5Z" fill="#A7852B" fill-opacity="0.25"/>
<path d="M243.135 2.5C243.135 3.88071 242.025 5 240.655 5C239.284 5 238.174 3.88071 238.174 2.5C238.174 1.11929 239.284 0 240.655 0C242.025 0 243.135 1.11929 243.135 2.5Z" fill="#A7852B" fill-opacity="0.25"/>
<path d="M511.08 2.5C511.08 3.88071 509.97 5 508.599 5C507.229 5 506.118 3.88071 506.118 2.5C506.118 1.11929 507.229 0 508.599 0C509.97 0 511.08 1.11929 511.08 2.5Z" fill="#A7852B" fill-opacity="0.25"/>
<path d="M779.026 2.5C779.026 3.88071 777.915 5 776.545 5C775.174 5 774.064 3.88071 774.064 2.5C774.064 1.11929 775.174 0 776.545 0C777.915 0 779.026 1.11929 779.026 2.5Z" fill="#A7852B" fill-opacity="0.25"/>
<path d="M1046.97 2.5C1046.97 3.88071 1045.86 5 1044.49 5C1043.12 5 1042.01 3.88071 1042.01 2.5C1042.01 1.11929 1043.12 0 1044.49 0C1045.86 0 1046.97 1.11929 1046.97 2.5Z" fill="#A7852B" fill-opacity="0.25"/>
<path d="M1314.92 2.5C1314.92 3.88071 1313.81 5 1312.43 5C1311.06 5 1309.95 3.88071 1309.95 2.5C1309.95 1.11929 1311.06 0 1312.43 0C1313.81 0 1314.92 1.11929 1314.92 2.5Z" fill="#A7852B" fill-opacity="0.25"/>
<path d="M1582.86 2.5C1582.86 3.88071 1581.75 5 1580.38 5C1579.01 5 1577.9 3.88071 1577.9 2.5C1577.9 1.11929 1579.01 0 1580.38 0C1581.75 0 1582.86 1.11929 1582.86 2.5Z" fill="#A7852B" fill-opacity="0.25"/>
<path d="M1850.81 2.5C1850.81 3.88071 1849.7 5 1848.33 5C1846.95 5 1845.84 3.88071 1845.84 2.5C1845.84 1.11929 1846.95 0 1848.33 0C1849.7 0 1850.81 1.11929 1850.81 2.5Z" fill="#A7852B" fill-opacity="0.25"/>
<path d="M1895.11 2.5C1895.11 3.88071 1894 5 1892.63 5C1891.26 5 1890.15 3.88071 1890.15 2.5C1890.15 1.11929 1891.26 0 1892.63 0C1894 0 1895.11 1.11929 1895.11 2.5Z" fill="#A7852B" fill-opacity="0.25"/>
<path d="M34.7338 2.5C34.7338 3.88071 33.623 5 32.2528 5C30.8826 5 29.7718 3.88071 29.7718 2.5C29.7718 1.11929 30.8826 0 32.2528 0C33.623 0 34.7338 1.11929 34.7338 2.5Z" fill="#A7852B" fill-opacity="0.25"/>
<path d="M302.679 2.5C302.679 3.88071 301.568 5 300.198 5C298.827 5 297.717 3.88071 297.717 2.5C297.717 1.11929 298.827 0 300.198 0C301.568 0 302.679 1.11929 302.679 2.5Z" fill="#A7852B" fill-opacity="0.25"/>
<path d="M570.624 2.5C570.624 3.88071 569.513 5 568.143 5C566.773 5 565.662 3.88071 565.662 2.5C565.662 1.11929 566.773 0 568.143 0C569.513 0 570.624 1.11929 570.624 2.5Z" fill="#A7852B" fill-opacity="0.25"/>
<path d="M838.569 2.5C838.569 3.88071 837.458 5 836.088 5C834.718 5 833.607 3.88071 833.607 2.5C833.607 1.11929 834.718 0 836.088 0C837.458 0 838.569 1.11929 838.569 2.5Z" fill="#A7852B" fill-opacity="0.25"/>
<path d="M1106.51 2.5C1106.51 3.88071 1105.4 5 1104.03 5C1102.66 5 1101.55 3.88071 1101.55 2.5C1101.55 1.11929 1102.66 0 1104.03 0C1105.4 0 1106.51 1.11929 1106.51 2.5Z" fill="#A7852B" fill-opacity="0.25"/>
<path d="M1374.46 2.5C1374.46 3.88071 1373.35 5 1371.98 5C1370.61 5 1369.5 3.88071 1369.5 2.5C1369.5 1.11929 1370.61 0 1371.98 0C1373.35 0 1374.46 1.11929 1374.46 2.5Z" fill="#A7852B" fill-opacity="0.25"/>
<path d="M1642.4 2.5C1642.4 3.88071 1641.29 5 1639.92 5C1638.55 5 1637.44 3.88071 1637.44 2.5C1637.44 1.11929 1638.55 0 1639.92 0C1641.29 0 1642.4 1.11929 1642.4 2.5Z" fill="#A7852B" fill-opacity="0.25"/>
<path d="M124.049 2.5C124.049 3.88071 122.938 5 121.568 5C120.198 5 119.087 3.88071 119.087 2.5C119.087 1.11929 120.198 0 121.568 0C122.938 0 124.049 1.11929 124.049 2.5Z" fill="#A7852B" fill-opacity="0.25"/>
<path d="M391.994 2.5C391.994 3.88071 390.883 5 389.513 5C388.142 5 387.032 3.88071 387.032 2.5C387.032 1.11929 388.142 0 389.513 0C390.883 0 391.994 1.11929 391.994 2.5Z" fill="#A7852B" fill-opacity="0.25"/>
<path d="M659.939 2.5C659.939 3.88071 658.828 5 657.458 5C656.088 5 654.977 3.88071 654.977 2.5C654.977 1.11929 656.088 0 657.458 0C658.828 0 659.939 1.11929 659.939 2.5Z" fill="#A7852B" fill-opacity="0.25"/>
<path d="M927.884 2.5C927.884 3.88071 926.773 5 925.403 5C924.033 5 922.922 3.88071 922.922 2.5C922.922 1.11929 924.033 0 925.403 0C926.773 0 927.884 1.11929 927.884 2.5Z" fill="#A7852B" fill-opacity="0.25"/>
<path d="M1195.83 2.5C1195.83 3.88071 1194.72 5 1193.35 5C1191.98 5 1190.87 3.88071 1190.87 2.5C1190.87 1.11929 1191.98 0 1193.35 0C1194.72 0 1195.83 1.11929 1195.83 2.5Z" fill="#A7852B" fill-opacity="0.25"/>
<path d="M1463.77 2.5C1463.77 3.88071 1462.66 5 1461.29 5C1459.92 5 1458.81 3.88071 1458.81 2.5C1458.81 1.11929 1459.92 0 1461.29 0C1462.66 0 1463.77 1.11929 1463.77 2.5Z" fill="#A7852B" fill-opacity="0.25"/>
<path d="M1731.72 2.5C1731.72 3.88071 1730.61 5 1729.24 5C1727.87 5 1726.76 3.88071 1726.76 2.5C1726.76 1.11929 1727.87 0 1729.24 0C1730.61 0 1731.72 1.11929 1731.72 2.5Z" fill="#A7852B" fill-opacity="0.25"/>
<path d="M213.364 2.5C213.364 3.88071 212.253 5 210.883 5C209.512 5 208.402 3.88071 208.402 2.5C208.402 1.11929 209.512 0 210.883 0C212.253 0 213.364 1.11929 213.364 2.5Z" fill="#A7852B" fill-opacity="0.25"/>
<path d="M481.309 2.5C481.309 3.88071 480.198 5 478.828 5C477.458 5 476.347 3.88071 476.347 2.5C476.347 1.11929 477.458 0 478.828 0C480.198 0 481.309 1.11929 481.309 2.5Z" fill="#A7852B" fill-opacity="0.25"/>
<path d="M749.254 2.5C749.254 3.88071 748.143 5 746.773 5C745.403 5 744.292 3.88071 744.292 2.5C744.292 1.11929 745.403 0 746.773 0C748.143 0 749.254 1.11929 749.254 2.5Z" fill="#A7852B" fill-opacity="0.25"/>
<path d="M1017.2 2.5C1017.2 3.88071 1016.09 5 1014.72 5C1013.35 5 1012.24 3.88071 1012.24 2.5C1012.24 1.11929 1013.35 0 1014.72 0C1016.09 0 1017.2 1.11929 1017.2 2.5Z" fill="#A7852B" fill-opacity="0.25"/>
<path d="M1285.14 2.5C1285.14 3.88071 1284.03 5 1282.66 5C1281.29 5 1280.18 3.88071 1280.18 2.5C1280.18 1.11929 1281.29 0 1282.66 0C1284.03 0 1285.14 1.11929 1285.14 2.5Z" fill="#A7852B" fill-opacity="0.25"/>
<path d="M1553.09 2.5C1553.09 3.88071 1551.98 5 1550.61 5C1549.24 5 1548.13 3.88071 1548.13 2.5C1548.13 1.11929 1549.24 0 1550.61 0C1551.98 0 1553.09 1.11929 1553.09 2.5Z" fill="#A7852B" fill-opacity="0.25"/>
<path d="M1821.03 2.5C1821.03 3.88071 1819.92 5 1818.55 5C1817.18 5 1816.07 3.88071 1816.07 2.5C1816.07 1.11929 1817.18 0 1818.55 0C1819.92 0 1821.03 1.11929 1821.03 2.5Z" fill="#A7852B" fill-opacity="0.25"/>
<path d="M79.391 2.5C79.391 3.88071 78.2802 5 76.91 5C75.5398 5 74.429 3.88071 74.429 2.5C74.429 1.11929 75.5398 0 76.91 0C78.2802 0 79.391 1.11929 79.391 2.5Z" fill="#A7852B" fill-opacity="0.25"/>
<path d="M347.336 2.5C347.336 3.88071 346.226 5 344.855 5C343.485 5 342.374 3.88071 342.374 2.5C342.374 1.11929 343.485 0 344.855 0C346.226 0 347.336 1.11929 347.336 2.5Z" fill="#A7852B" fill-opacity="0.25"/>
<path d="M615.281 2.5C615.281 3.88071 614.17 5 612.8 5C611.43 5 610.319 3.88071 610.319 2.5C610.319 1.11929 611.43 0 612.8 0C614.17 0 615.281 1.11929 615.281 2.5Z" fill="#A7852B" fill-opacity="0.25"/>
<path d="M883.227 2.5C883.227 3.88071 882.116 5 880.746 5C879.375 5 878.265 3.88071 878.265 2.5C878.265 1.11929 879.375 0 880.746 0C882.116 0 883.227 1.11929 883.227 2.5Z" fill="#A7852B" fill-opacity="0.25"/>
<path d="M1151.17 2.5C1151.17 3.88071 1150.06 5 1148.69 5C1147.32 5 1146.21 3.88071 1146.21 2.5C1146.21 1.11929 1147.32 0 1148.69 0C1150.06 0 1151.17 1.11929 1151.17 2.5Z" fill="#A7852B" fill-opacity="0.25"/>
<path d="M1419.12 2.5C1419.12 3.88071 1418.01 5 1416.64 5C1415.27 5 1414.15 3.88071 1414.15 2.5C1414.15 1.11929 1415.27 0 1416.64 0C1418.01 0 1419.12 1.11929 1419.12 2.5Z" fill="#A7852B" fill-opacity="0.25"/>
<path d="M1687.06 2.5C1687.06 3.88071 1685.95 5 1684.58 5C1683.21 5 1682.1 3.88071 1682.1 2.5C1682.1 1.11929 1683.21 0 1684.58 0C1685.95 0 1687.06 1.11929 1687.06 2.5Z" fill="#A7852B" fill-opacity="0.25"/>
<path d="M168.706 2.5C168.706 3.88071 167.595 5 166.225 5C164.855 5 163.744 3.88071 163.744 2.5C163.744 1.11929 164.855 0 166.225 0C167.595 0 168.706 1.11929 168.706 2.5Z" fill="#A7852B" fill-opacity="0.25"/>
<path d="M436.651 2.5C436.651 3.88071 435.541 5 434.17 5C432.8 5 431.689 3.88071 431.689 2.5C431.689 1.11929 432.8 0 434.17 0C435.541 0 436.651 1.11929 436.651 2.5Z" fill="#A7852B" fill-opacity="0.25"/>
<path d="M704.596 2.5C704.596 3.88071 703.485 5 702.115 5C700.745 5 699.634 3.88071 699.634 2.5C699.634 1.11929 700.745 0 702.115 0C703.485 0 704.596 1.11929 704.596 2.5Z" fill="#A7852B" fill-opacity="0.25"/>
<path d="M972.542 2.5C972.542 3.88071 971.431 5 970.061 5C968.69 5 967.58 3.88071 967.58 2.5C967.58 1.11929 968.69 0 970.061 0C971.431 0 972.542 1.11929 972.542 2.5Z" fill="#A7852B" fill-opacity="0.25"/>
<path d="M1240.49 2.5C1240.49 3.88071 1239.38 5 1238.01 5C1236.64 5 1235.52 3.88071 1235.52 2.5C1235.52 1.11929 1236.64 0 1238.01 0C1239.38 0 1240.49 1.11929 1240.49 2.5Z" fill="#A7852B" fill-opacity="0.25"/>
<path d="M1508.43 2.5C1508.43 3.88071 1507.32 5 1505.95 5C1504.58 5 1503.47 3.88071 1503.47 2.5C1503.47 1.11929 1504.58 0 1505.95 0C1507.32 0 1508.43 1.11929 1508.43 2.5Z" fill="#A7852B" fill-opacity="0.25"/>
<path d="M1776.38 2.5C1776.38 3.88071 1775.27 5 1773.9 5C1772.53 5 1771.42 3.88071 1771.42 2.5C1771.42 1.11929 1772.53 0 1773.9 0C1775.27 0 1776.38 1.11929 1776.38 2.5Z" fill="#A7852B" fill-opacity="0.25"/>
<path d="M258.021 2.5C258.021 3.88071 256.911 5 255.54 5C254.17 5 253.059 3.88071 253.059 2.5C253.059 1.11929 254.17 0 255.54 0C256.911 0 258.021 1.11929 258.021 2.5Z" fill="#A7852B" fill-opacity="0.25"/>
<path d="M525.966 2.5C525.966 3.88071 524.855 5 523.485 5C522.115 5 521.004 3.88071 521.004 2.5C521.004 1.11929 522.115 0 523.485 0C524.855 0 525.966 1.11929 525.966 2.5Z" fill="#A7852B" fill-opacity="0.25"/>
<path d="M793.912 2.5C793.912 3.88071 792.801 5 791.431 5C790.06 5 788.95 3.88071 788.95 2.5C788.95 1.11929 790.06 0 791.431 0C792.801 0 793.912 1.11929 793.912 2.5Z" fill="#A7852B" fill-opacity="0.25"/>
<path d="M1061.86 2.5C1061.86 3.88071 1060.75 5 1059.38 5C1058.01 5 1056.89 3.88071 1056.89 2.5C1056.89 1.11929 1058.01 0 1059.38 0C1060.75 0 1061.86 1.11929 1061.86 2.5Z" fill="#A7852B" fill-opacity="0.25"/>
<path d="M1329.8 2.5C1329.8 3.88071 1328.69 5 1327.32 5C1325.95 5 1324.84 3.88071 1324.84 2.5C1324.84 1.11929 1325.95 0 1327.32 0C1328.69 0 1329.8 1.11929 1329.8 2.5Z" fill="#A7852B" fill-opacity="0.25"/>
<path d="M1597.75 2.5C1597.75 3.88071 1596.64 5 1595.27 5C1593.9 5 1592.78 3.88071 1592.78 2.5C1592.78 1.11929 1593.9 0 1595.27 0C1596.64 0 1597.75 1.11929 1597.75 2.5Z" fill="#A7852B" fill-opacity="0.25"/>
<path d="M1865.69 2.5C1865.69 3.88071 1864.58 5 1863.21 5C1861.84 5 1860.73 3.88071 1860.73 2.5C1860.73 1.11929 1861.84 0 1863.21 0C1864.58 0 1865.69 1.11929 1865.69 2.5Z" fill="#A7852B" fill-opacity="0.25"/>
<path d="M1910 2.5C1910 3.88071 1908.89 5 1907.52 5C1906.15 5 1905.04 3.88071 1905.04 2.5C1905.04 1.11929 1906.15 0 1907.52 0C1908.89 0 1910 1.11929 1910 2.5Z" fill="#A7852B" fill-opacity="0.25"/>
</svg>
