<svg width="744" height="206" viewBox="0 0 744 206" fill="none" xmlns="http://www.w3.org/2000/svg">
<g clip-path="url(#clip0_114_392)">
<path opacity="0.5" fill-rule="evenodd" clip-rule="evenodd" d="M682.929 323.25C677.984 332.002 673.086 340.792 667.788 349.33C659.607 362.505 647.134 369.074 632.101 371.01C627.827 371.561 623.419 371.108 619.075 371.024C618.641 371.01 617.962 370.415 617.837 369.961C617.248 367.856 616.813 365.699 616.352 363.691C620.176 363.263 623.831 363.075 627.397 362.415C641.317 359.824 652.505 352.951 661.268 341.628C670.158 330.149 677.096 317.544 684.046 304.906C687.118 299.322 689.989 293.628 693.064 288.044C693.895 286.535 693.721 285.835 692.212 284.922C685.714 280.97 679.405 276.708 672.845 272.867C664.075 267.736 655.308 262.541 646.219 258.026C637.501 253.693 628.325 250.169 618.391 249.975C614.401 249.897 610.364 250.681 606.398 251.367C603.226 251.911 600.039 252.65 597.024 253.758C594.026 254.859 591.236 256.53 588.024 258.111C587.245 255.507 586.58 253.285 585.865 250.894C592.922 247.319 599.175 242.324 607.283 240.474C618.418 237.935 628.916 239.078 638.907 244.19C646.308 247.979 653.414 252.358 660.586 256.582C671.013 262.716 681.36 268.993 691.789 275.127C696.482 277.887 701.292 280.452 705.549 282.83C698.092 296.167 690.567 309.744 682.929 323.25V323.25ZM619.332 356.747C615.822 356.054 613.01 354.635 611.281 351.085C606.503 341.265 599.728 333.168 589.232 327.662C590.522 327.5 591.133 327.312 591.723 327.364C595.042 327.662 598.352 328.063 601.672 328.342C606.795 328.776 611.4 330.583 615.327 333.822C624.317 341.245 633.95 347.529 645.297 351.409C636.877 355.011 628.671 358.586 619.332 356.747V356.747ZM635.103 326.178C642.538 328.841 650.112 331.127 657.669 333.44C659.378 333.958 661.272 333.874 663.655 334.127C660.486 337.981 657.449 341.641 654.443 345.326C650.643 349.99 645.535 349.071 641.497 346.939C633.465 342.69 625.962 337.443 618.276 332.552C615.718 330.92 613.271 329.119 610.646 327.305C618.627 322.363 626.729 323.173 635.103 326.178V326.178ZM580.17 322.499C575.802 321.715 571.446 320.854 567.24 320.057C573.244 315.056 579.309 309.693 585.703 304.757C594.22 298.182 603.774 295.617 614.309 299.082C616.562 299.827 618.671 301.291 620.55 302.794C622.278 304.18 622.984 306.091 622.034 308.494C618.328 317.867 610.91 322.259 601.518 324.151C594.239 325.615 587.228 323.775 580.17 322.499ZM517.268 329.476C517.692 324.552 520.67 321.255 524.95 319.299C527.277 318.237 529.962 317.958 532.484 317.323C541.098 317.764 546.423 324.254 544.763 332.708C543.961 336.795 540.481 338.512 537.323 340.235C532.684 342.755 527.715 343.027 523.05 340.358C518.979 338.026 516.855 334.276 517.268 329.476V329.476ZM558.099 334.185C557.309 339.963 555.96 345.741 554.13 351.273C552.181 357.174 547.517 360.886 542.384 364.364C534.624 369.624 525.952 370.35 517.144 370.959C516.602 370.991 515.683 369.89 515.432 369.145C512.796 361.385 509.843 353.76 502.889 348.753C499.792 346.525 496.212 344.97 492.541 342.936C498.139 341.284 503.623 339.665 509.108 338.052C509.886 337.825 510.736 337.748 511.446 337.391C513.842 336.18 515.431 336.4 517.167 338.907C522.695 346.894 536.987 348.339 544.887 340.384C552.135 333.09 549.93 321.19 543.334 316.481C537.164 312.076 527.996 310.846 520.577 317.822C517.178 321.022 514.798 324.643 514.397 329.365C514.204 331.626 513.039 332.455 510.806 332.948C504.293 334.366 497.858 336.148 491.084 337.871C493.316 334.094 495.456 330.875 497.189 327.448C500.016 321.864 499.652 315.84 499.064 309.835C499.044 309.634 498.936 309.453 498.896 309.252C497.252 301.356 497.252 301.356 504.713 297.994C513.118 294.204 521.751 293.123 530.857 295.144C537.985 296.724 542.823 301.382 547.422 306.447C549.459 308.689 551.162 311.241 552.96 313.696C557.448 319.824 559.107 326.82 558.099 334.185V334.185ZM459.397 369.287C452.663 371.872 452.626 371.775 450.214 364.656C453.512 363.069 456.953 361.767 460.022 359.862C465.147 356.675 466.319 352.342 464.278 346.084C462.935 341.971 458.88 339.302 453.75 339.419C450.33 339.497 446.917 339.885 443.502 340.131C443.173 337.981 442.853 335.888 442.472 333.395C446.704 331.775 451.171 330.421 455.795 331.581C462.448 333.258 468.25 336.167 471.194 343.15C476.14 354.868 467.927 366.016 459.397 369.287V369.287ZM445.106 359.798C441.637 357.692 437.347 356.935 433.339 355.561C437.924 353.287 441.156 349.31 443.145 344.271C443.279 343.934 443.662 343.539 444 343.454C448.611 342.321 453.236 341.006 457.935 343.04C461.258 344.478 462.445 347.399 462.549 350.671C462.651 353.858 460.756 356.202 458.15 357.835C456.701 358.742 454.984 359.215 453.472 360.031C450.604 361.592 448.236 361.702 445.106 359.798V359.798ZM426.496 360.173C425.521 366.359 418.965 371.419 412.6 371.095C412.031 371.062 411.197 370.926 410.958 370.544C408.447 366.528 404.069 366.224 399.966 364.896C402.933 361.799 406.585 359.5 406.572 354.784C406.57 354.356 407.289 353.851 407.77 353.521C413.264 349.796 421.754 350.956 425.687 356.151C426.441 357.142 426.698 358.884 426.496 360.173V360.173ZM333.087 370.557C332.844 370.933 332.007 371.056 331.435 371.082C325.099 371.406 318.571 366.321 317.507 360.154C316.897 356.617 319.504 354.855 321.893 353.216C325.868 350.489 332.732 350.819 336.556 353.734C336.937 354.026 337.384 354.376 337.541 354.79C339.756 360.75 339.744 360.756 344.081 364.896C339.966 366.21 335.623 366.586 333.087 370.557ZM296.46 361.32C296.166 361.585 295.415 361.618 295.018 361.443C291.357 359.811 287.364 358.606 284.193 356.28C281.088 354.007 280.666 350.269 282.498 346.635C284.141 343.377 286.958 341.997 290.462 342.088C292.981 342.159 295.5 342.483 298.004 342.813C299.762 343.046 300.705 343.927 301.709 345.715C303.494 348.889 306.299 351.5 308.758 354.272C309.381 354.972 310.306 355.406 311.734 356.416C305.61 356.429 300.597 357.615 296.46 361.32V361.32ZM293.979 364.727C293.708 365.317 293.326 366.12 292.973 366.93C291.046 371.354 291.124 371.043 286.207 369.864C278.546 368.031 270.204 357.278 271.399 349.388C272.259 343.713 274.079 338.674 279.197 335.37C286.441 330.7 293.38 330.033 301.6 333.472C301.253 335.837 300.931 338.02 300.618 340.151C297.113 339.898 293.612 339.503 290.104 339.419C285.106 339.302 280.952 342.165 279.742 346.292C277.902 352.568 279.082 356.844 283.988 359.836C287.077 361.721 290.505 363.049 293.979 364.727ZM217.654 341.699C211.311 342.923 203.203 340.015 200.489 335.48C197.687 330.81 199.802 326.399 201.593 322.162C203.483 317.699 207.72 317.751 211.76 317.764C219.122 317.77 224.863 321.637 226.471 327.675C228.113 333.841 223.934 340.488 217.654 341.699V341.699ZM228.585 369.125C228.342 369.864 227.455 370.972 226.916 370.946C223.383 370.764 219.865 370.317 216.342 369.961C208.412 369.164 202.079 364.98 196.072 360.232C192 357.012 189.822 352.4 188.533 347.574C187.235 342.722 186.477 337.683 185.905 332.675C184.949 324.3 188.166 317.148 193.182 310.697C197.44 305.216 201.877 299.827 208.374 296.893C211.183 295.623 214.289 294.729 217.346 294.34C227.46 293.045 236.665 296.005 245.231 301.168C245.897 301.57 246.158 303.176 246.084 304.187C245.715 309.181 244.787 314.169 244.79 319.163C244.792 324.701 247.387 329.521 250.586 333.965C251.403 335.098 252.213 336.245 253.402 337.91C245.731 336.031 238.644 334.392 231.633 332.468C230.786 332.235 229.969 330.551 229.792 329.437C228.48 321.216 223.698 315.607 215.896 313.774C205.094 311.241 194.643 316.941 194.904 330.33C195.062 338.324 200.107 342.321 206.044 344.782C212.017 347.257 218.482 346.22 223.925 341.978C224.721 341.356 225.806 340.824 226.177 339.989C227.97 335.973 230.648 336.582 234.06 337.767C239.688 339.717 245.501 341.135 252.072 343.014C250.465 343.72 249.537 344.167 248.578 344.536C237.189 348.896 232.119 358.366 228.585 369.125V369.125ZM128 316.941C125.75 314.59 123.976 311.733 122.271 308.935C120.67 306.305 121.793 304.005 124.033 302.301C130.174 297.631 137.138 296.731 144.513 298.162C152.381 299.691 158.456 304.504 164.417 309.407C168.684 312.918 172.741 316.682 176.614 320.083C168.936 321.534 160.894 323.568 152.726 324.449C143.632 325.427 134.77 324.002 128 316.941V316.941ZM114.428 340.637C108.921 344.193 103.37 347.775 96.4314 348.339C93.7048 348.559 92.0012 347.613 90.4141 345.819C87.091 342.049 83.7933 338.259 80.1016 334.042C90.5949 333.803 99.3728 330 108.215 326.483C113.99 324.19 119.887 322.978 126.016 324.235C128.621 324.766 131.064 326.094 133.718 327.111C127.058 331.814 120.895 336.458 114.428 340.637V340.637ZM132.267 352.076C130.152 356.397 125.608 357.258 121.529 357.077C116.441 356.857 111.37 355.593 106.362 354.453C103.842 353.877 101.491 352.575 99.6773 351.843C106.077 348.293 112.769 344.821 119.192 340.909C123.246 338.441 126.875 335.28 130.731 332.481C134.732 329.573 139.277 328.465 144.18 328.31C147.468 328.206 150.744 327.707 154.025 327.383C144.028 333.394 137.26 341.88 132.267 352.076V352.076ZM115.394 362.214C119.375 362.894 123.415 363.224 127.68 363.736C127.289 365.55 126.99 367.629 126.33 369.585C126.115 370.227 124.981 370.913 124.233 370.952C121.013 371.127 117.721 371.47 114.566 371.004C109.29 370.227 103.985 369.255 98.9 367.681C86.9939 363.989 79.3438 355.14 73.3649 344.847C65.1381 330.7 57.3714 316.287 49.3585 302.01C45.7439 295.565 42.0256 289.184 38.5342 283.095C45.9706 278.69 53.8152 274.104 61.6142 269.414C72.4968 262.872 83.2564 256.102 94.2418 249.722C102.599 244.87 111.246 240.57 121.062 239.325C127.346 238.527 133.546 239.214 139.325 241.444C145.795 243.944 151.923 247.332 158.343 250.396C157.473 253.324 156.813 255.552 156.092 257.975C155.357 257.748 154.599 257.715 154.118 257.333C148.624 252.967 141.817 252.151 135.357 250.713C125.661 248.556 116.284 250.616 107.133 254.12C90.7899 260.391 76.2474 269.952 61.381 278.923C58.1811 280.854 55.1041 282.985 51.8913 284.909C50.531 285.725 50.0386 286.289 50.9649 287.96C55.0847 295.409 58.8224 303.072 63.0588 310.457C68.0531 319.176 73.054 327.94 78.7284 336.219C83.6644 343.409 89.2352 350.353 96.9373 354.849C100.811 357.116 105.216 358.476 109.407 360.167C111.363 360.957 113.341 361.857 115.394 362.214V362.214ZM52.3446 187.678C76.4742 181.612 100.234 175.641 124.363 169.576C124.363 174.68 124.449 179.021 124.281 183.353C124.251 184.118 123.272 185.339 122.534 185.513C106.369 189.329 90.1803 193.061 73.9802 196.725C69.8927 197.65 69.7049 197.775 70.9875 201.903C75.2822 215.747 79.5964 229.586 83.8711 243.439C84.5253 245.563 85.322 247.727 85.4717 249.91C85.5429 250.979 84.5389 252.546 83.5607 253.181C80.4191 255.228 77.0636 256.945 73.2029 259.115C64.7818 235.704 59.3342 211.673 52.3446 187.678V187.678ZM122.31 236.344C121.816 236.303 121.141 235.844 120.933 235.399C119.316 231.938 117.793 228.432 116.046 224.502C119.944 224.133 123.081 223.877 126.207 223.522C128.114 223.305 129.178 223.969 130.298 225.668C132.798 229.456 135.752 232.943 138.505 236.564C138.796 236.946 138.987 237.405 139.112 237.626C133.501 237.211 127.902 236.817 122.31 236.344ZM102.489 242.052C98.1874 244.378 93.5099 246.911 88.581 249.58C83.483 232.887 78.4564 216.466 73.4167 199.969C90.2134 196.085 106.861 192.234 123.792 188.319C124.079 193.868 124.344 199.013 124.614 204.245C116.483 205.594 108.306 206.932 100.144 208.319C98.3493 208.623 96.5932 209.298 94.7931 209.452C91.9364 209.697 91.334 211.022 92.2473 213.544C95.6352 222.897 98.9777 232.264 102.489 242.052ZM94.5405 212.324C100.033 211.253 105.041 210.208 110.074 209.317C113.865 208.646 117.703 208.26 121.489 207.582C123.762 207.175 125.039 207.29 125.319 210.189C125.645 213.585 126.728 216.907 127.49 220.29C122.664 221.088 118.035 221.853 112.872 222.706C113.882 225.609 114.564 227.802 115.404 229.933C116.257 232.097 117.266 234.2 118.296 236.529C113.986 237.925 109.802 239.281 105.183 240.778C101.698 231.461 98.2262 222.176 94.5405 212.324V212.324ZM127.507 166.993C127.65 156.412 127.905 145.831 127.986 135.249C128.005 132.761 127.515 130.27 127.272 127.899C139.981 127.899 152.653 128.02 165.32 127.854C172.995 127.754 180.686 126.676 188.329 126.997C199.62 127.47 211.276 126.721 221.796 131.919C230.586 136.261 238.073 142.298 242.557 151.428C244.032 154.431 245.874 157.255 247.399 159.9C245.699 161.766 244.055 163.571 242.287 165.513C239.908 162.124 238.013 158.579 235.338 155.777C228.077 148.173 220.184 141.536 209.439 139.033C198.114 136.395 186.688 135.497 175.131 135.613C164.119 135.724 153.108 135.889 142.098 136.081C140.588 136.108 139.06 136.328 137.589 136.668C137.066 136.789 136.419 137.471 136.297 138.005C136.003 139.282 135.891 140.621 135.874 141.938C135.69 155.889 135.322 169.843 135.448 183.792C135.55 194.84 136.868 205.811 140.92 216.205C143.108 221.823 146.259 226.893 151.075 230.81C152.846 232.25 153.985 234.466 155.754 235.908C158.639 238.258 161.804 240.263 165.198 242.659C163.204 244.404 161.441 245.946 159.105 247.986C153.803 244.391 147.55 240.929 142.246 236.366C134.137 229.39 129.33 220.278 128.037 209.488C126.948 200.413 126.47 191.357 127.381 182.205C127.881 177.18 127.438 172.066 127.507 166.993ZM208.652 125.404C207.998 125.248 207.065 123.944 207.161 123.306C208.561 114.017 210.116 104.75 211.753 94.7456C221.689 98.4579 231.026 101.947 240.397 105.449C238.947 110.034 237.639 114.165 236.291 118.426C231.896 116.699 227.541 114.988 222.335 112.941C221.485 118.364 220.759 123.007 220.027 127.681C216.346 126.972 212.469 126.313 208.652 125.404V125.404ZM169.28 124.7C175.298 100.681 181.271 76.847 187.348 52.5927C211.363 59.5943 235.328 65.1185 258.838 73.4373C256.251 77.9257 253.885 82.0331 251.444 86.2728C247.273 85.1722 243.434 84.3055 239.686 83.1454C227.076 79.2425 214.505 75.2167 201.906 71.2775C197.406 69.8699 197.509 69.9477 196.462 74.6174C193.872 86.175 191.166 97.7078 188.496 109.248C187.492 113.588 186.401 117.908 185.469 122.262C185.123 123.874 184.478 124.745 182.708 124.719C178.493 124.658 174.277 124.7 169.28 124.7V124.7ZM209.337 94.3201C207.529 104.462 205.607 114.583 203.769 124.467L187.939 124.467C191.904 107.215 195.744 90.5047 199.61 73.686C215.961 78.6809 232.421 83.7096 249.207 88.8367C246.597 93.717 244.155 98.2844 241.648 102.976C235.433 100.593 229.309 98.182 223.136 95.9052C219.513 94.5682 215.827 93.3957 212.138 92.2465C210.41 91.7083 209.656 92.5335 209.337 94.3201V94.3201ZM237.292 139.297C235.092 137.583 232.741 135.684 230.315 133.887C228.609 132.623 226.883 131.34 225.012 130.361C223.577 129.611 222.846 128.826 223.075 127.134C223.529 123.765 223.85 120.377 224.291 116.419C228.19 118.135 231.704 119.629 235.151 121.261C235.596 121.471 235.876 122.385 235.932 123C236.422 128.406 236.845 133.817 237.292 139.297V139.297ZM263.933 70.2832C270.182 59.6183 276.65 49.0824 282.799 38.8598C296.92 46.8722 311.579 55.1623 326.21 63.501C334.151 68.0271 342.23 72.3478 349.919 77.2707C362.705 85.4572 368.739 97.8976 370.618 112.559C370.96 115.221 370.262 118.005 370.194 120.735C370.149 122.527 371.089 125.417 370.339 125.909C368.331 127.225 365.649 127.514 363.022 128.272C362.833 125.021 362.874 122.087 362.46 119.22C360.114 102.956 351.858 90.267 338.491 80.9636C331.496 76.0963 324.22 71.613 316.912 67.2199C310.902 63.6074 304.674 60.3536 298.511 56.9993C294.877 55.0218 291.224 53.0669 287.476 51.3269C286.794 51.0114 285.097 51.483 284.727 52.103C275.491 67.6067 266.009 82.9828 257.374 98.8208C252.77 107.264 249.734 116.611 249.538 126.415C249.454 130.587 250.839 134.768 251.306 138.973C251.995 145.18 254.321 150.714 258.13 156.236C255.383 157.066 253.079 157.761 250.835 158.438C243.396 148.222 238.354 137.171 238.784 124.156C239.003 117.51 240.735 111.215 243.839 105.495C250.287 93.6211 257.102 81.9444 263.933 70.2832ZM344.213 31.7091C352.631 22.9869 361.105 14.3191 369.506 5.58195C371.064 3.96185 372.42 3.32835 374.241 5.19719C381.921 13.0793 389.713 20.8545 397.338 28.7904C406.121 37.9317 414.77 47.1999 423.754 56.706C419.52 59.0749 415.769 61.3032 411.874 63.2433C411.112 63.6229 409.398 63.2601 408.792 62.613C397.606 50.6674 386.497 38.6481 375.43 26.5912C372.259 23.1366 371.818 23.1301 368.621 26.6209C360.993 34.9507 353.287 43.2097 345.615 51.4997C342.315 55.0664 338.936 58.5664 335.765 62.2444C334.443 63.7763 333.237 64.0711 331.561 63.104C328.046 61.0764 324.517 59.0723 320.265 56.6425C328.454 48.112 336.314 39.8924 344.213 31.7091V31.7091ZM372.051 76.689C374.547 80.1728 376.752 83.1712 378.842 86.2495C379.148 86.7017 379.127 87.6241 378.886 88.1604C376.573 93.2985 374.181 98.4004 371.987 103.135C369.811 98.1451 367.405 92.6243 364.824 86.7023C366.939 83.7712 369.344 80.4389 372.051 76.689ZM372.016 51.7616C378.699 59.8723 385.029 67.5542 391.493 75.3994C387.845 78.6726 384.676 81.5163 381.389 84.4642C379.076 81.5706 376.679 78.6271 374.346 75.6351C372.731 73.5655 371.263 73.6691 369.692 75.6831C367.398 78.6259 365.043 81.5221 362.692 84.4649C359.369 81.4852 356.145 78.5954 352.6 75.4162C358.95 67.6791 365.232 60.0264 372.016 51.7616V51.7616ZM369.598 50.6363C363.163 58.3461 356.66 66.0008 350.125 73.7411C345.778 71.0372 341.317 68.2615 336.669 65.3705C348.465 52.7287 360.148 40.2085 372.033 27.4728C383.782 40.0557 395.48 52.5829 407.399 65.3486C402.912 68.15 398.413 70.9588 393.83 73.8208C388.796 67.6844 383.809 61.5765 378.784 55.5005C377.229 53.6206 375.648 51.7518 373.934 50.021C372.334 48.4041 370.949 49.017 369.598 50.6363V50.6363ZM441.307 50.2024C448.125 46.4019 454.88 42.4881 461.383 38.7848C465.648 46.0384 470.146 53.8117 474.766 61.5131C481.352 72.4934 488.21 83.315 494.584 94.4166C497.706 99.8526 500.151 105.7 502.63 111.478C506.678 120.909 506.247 130.639 502.905 140.024C500.616 146.451 497.026 152.415 493.977 158.668C491.176 157.811 488.802 157.085 486.432 156.36C488.134 152.658 490.039 149.304 491.257 145.717C495.683 132.686 495.439 119.827 490.172 106.91C483.92 91.5788 475.286 77.6115 466.646 63.6164C464.313 59.838 461.811 56.1574 459.619 52.2998C458.662 50.615 457.933 50.4453 456.296 51.3625C444.002 58.2588 431.69 65.1225 419.322 71.8859C409.866 77.057 401.428 83.5335 394.062 91.3624C389.121 96.6138 386.101 102.858 384.049 109.858C382.322 115.749 380.785 121.509 381.31 128.228C378.591 127.548 376.348 126.987 374.23 126.457C372.19 112.201 374.354 98.9672 383.072 87.4524C388.295 80.5537 395.466 75.7206 402.932 71.4978C415.666 64.2965 428.529 57.3246 441.307 50.2024V50.2024ZM556.685 52.4579C562.774 76.7047 568.761 100.541 574.816 124.646L559.186 124.646C556.527 113.298 553.903 102.264 551.367 91.2108C549.986 85.1871 548.715 79.1369 547.477 73.0822C547.004 70.7684 546.001 70.0974 543.628 70.8507C529.981 75.183 516.3 79.4065 502.62 83.6345C500.586 84.2634 498.363 84.4344 496.466 85.3258C493.491 86.723 491.941 85.3795 490.634 83.0211C488.96 79.9979 487.294 76.9702 485.048 72.9003C509.038 66.0545 532.588 59.3346 556.685 52.4579V52.4579ZM527.539 93.6107C519.176 96.389 510.988 99.6959 502.425 102.884C500.002 98.39 497.513 93.7753 494.856 88.8451C511.6 83.7264 527.964 78.7231 544.467 73.6782C548.309 90.3453 552.16 107.049 556.149 124.356L540.163 124.356C538.709 115.963 537.268 107.016 535.584 98.1153C534.151 90.5384 534.773 91.2075 527.539 93.6107ZM535.021 125.569C531.353 126.164 527.721 126.979 524.141 127.691C523.388 123.088 522.629 118.449 521.73 112.945C516.743 114.908 512.484 116.583 507.914 118.38C506.545 114.275 505.155 110.111 503.609 105.479C513.013 101.964 522.347 98.4755 532.233 94.782C533.43 101.632 534.531 107.858 535.601 114.09C536.079 116.875 536.529 119.666 536.926 122.464C537.138 123.963 537.06 125.239 535.021 125.569V125.569ZM506.877 139.292C507.275 133.832 507.645 128.534 508.066 123.24C508.117 122.6 508.27 121.605 508.678 121.41C512.211 119.72 515.814 118.177 519.918 116.358C520.288 120.618 520.636 124.209 520.878 127.806C520.919 128.414 520.704 129.318 520.275 129.635C515.849 132.908 511.356 136.092 506.877 139.292V139.292ZM506.749 139.38C506.693 139.408 506.632 139.394 506.749 139.38V139.38ZM553.165 287.831C555.966 283.542 557.314 278.658 557.18 273.385C556.97 265.139 550.87 260.364 542.695 258.538C535.716 256.984 528.796 257.871 521.918 260.533C520.685 256.44 519.583 252.786 518.387 248.822C525.184 245.751 531.979 243.698 539.545 244.488C547.87 245.363 555.565 247.5 562.432 252.592C570.011 258.208 572.192 265.839 571.017 274.564C570.323 279.727 568.91 284.864 567.195 289.787C564.529 297.443 558.867 302.826 552.276 307.536C549.555 304.608 546.87 301.712 544.297 298.946C547.293 295.241 550.588 291.769 553.165 287.831V287.831ZM532.59 292.261C534.605 289.709 536.781 287.241 538.624 284.546C540.657 281.573 541.907 278.133 539.649 274.856C537.502 271.746 533.756 271.869 530.463 272.012C527.585 272.135 524.739 273.042 521.767 273.618C521.995 270.224 522.223 266.823 522.458 263.312C529.485 260.767 536.761 259.277 544.072 261.816C554.254 265.359 556.039 271.325 552.758 282.24C550.901 288.42 546.227 292.572 541.686 296.711C538.591 295.196 535.542 293.706 532.59 292.261V292.261ZM517.95 281.32C519.342 278.962 520.768 276.857 523.746 276.52C526.911 276.164 530.101 275.387 533.233 275.581C536.524 275.775 537.68 278.166 536.677 281.243C534.684 287.358 528.948 291.477 522.629 291.607C518.422 291.691 514.221 292.099 511.01 292.3C513.042 289.107 515.61 285.278 517.95 281.32ZM479.913 266.777C474.891 262.82 473.97 257.061 477.119 251.044C479.571 246.36 483.816 243.925 488.605 242.649C490.4 242.17 493.024 242.695 494.56 243.776C498.069 246.237 501.642 248.964 502.208 254.023C501.077 259.899 498.339 264.867 492.742 267.672C488.426 269.835 483.985 269.991 479.913 266.777V266.777ZM493.91 297.417C489.741 293.162 484.906 289.469 479.224 287.947C473.856 286.509 468.084 286.574 462.279 285.958C466.932 281.055 471.803 275.84 476.814 270.768C477.344 270.231 478.866 270.12 479.645 270.464C490.744 275.316 505.262 269.829 506.35 253.525C506.709 248.148 503.225 243.672 498.585 240.863C492.184 236.988 483.894 237.922 478.551 242.679C473.089 247.539 470.234 256.828 473.949 264.439C474.679 265.936 474.548 266.908 473.536 267.873C468.445 272.75 463.314 277.576 457.937 282.668C457.937 278.561 458.213 274.875 457.85 271.254C457.561 268.371 457.049 265.249 455.647 262.8C453.144 258.428 450.042 254.367 446.881 250.428C445.688 248.938 445.431 248.051 446.563 246.561C449.011 243.322 451.05 239.731 453.775 236.76C459.649 230.356 467.075 226.342 475.64 225.023C478.846 224.53 482.387 225.115 485.59 225.933C492.392 227.671 499.003 230.115 504.786 234.222C510.95 238.599 513.953 245.214 516.327 252.048C517.746 256.135 518.676 260.43 519.407 264.705C520.265 269.719 518.403 274.279 516.313 278.755C512.37 287.202 505.92 293.155 498.034 297.832C496.311 298.855 495.332 298.869 493.91 297.417V297.417ZM483.845 326.865C490.054 321.035 490.941 310.321 485.953 304.316C481.252 298.661 474.735 296.627 467.814 298.318C462.521 299.613 457.612 302.477 452.464 304.666C451.428 302.924 450.137 300.754 448.835 298.57C458.067 287.222 475.076 286.399 485.021 293.978C489.176 297.139 493.836 299.646 495.213 305.158C498.45 318.107 496.901 328.154 486.605 337.353C483.416 340.196 478.816 341.466 474.742 343.519C473.81 341.77 473.195 340.514 472.483 339.315C471.816 338.188 471.047 337.126 470.758 336.692C475.195 333.414 479.915 330.557 483.845 326.865ZM459.593 329.508C464.062 327.299 468.824 325.265 473.24 322.648C476.578 320.672 477.922 316.52 476.909 313.761C475.32 309.427 470.979 307.361 466.443 309.466C462.908 311.105 459.769 313.612 456.497 315.795C455.355 316.559 454.341 317.511 452.992 318.6C453.159 315.212 453.287 312.303 453.466 309.401C453.488 309.045 453.687 308.579 453.96 308.365C460.245 303.422 466.793 299.426 475.397 301.175C487.967 303.727 488.324 317.453 482.399 324.404C478.705 328.737 473.964 331.309 468.859 333.401C468.315 333.621 467.483 333.576 466.95 333.317C464.412 332.086 461.931 330.732 459.593 329.508V329.508ZM464.931 313.132C468.8 310.923 472.667 311.409 473.98 313.903C475.21 316.242 473.808 319.351 469.967 321.508C463.841 324.954 457.365 327.461 449.885 327.351C453.898 321.307 458.858 316.592 464.931 313.132ZM435.668 326.522C437.434 324.158 439.341 321.929 440.896 319.474C446.082 311.293 442.757 305.877 436.085 301.906C433.064 300.112 429.275 300.831 426.182 302.833C423.377 304.64 420.734 306.706 417.885 308.753C416.437 307.03 415.068 305.404 413.706 303.785C417.076 297.126 426.4 292.889 435.104 293.881C441.65 294.626 449.451 301.842 450.295 308.3C451.489 317.421 449.087 325.2 440.792 330.868C439.123 329.45 437.435 328.018 435.668 326.522V326.522ZM413.429 348.442C416.781 343.74 417.298 338.991 415.957 333.926C415.787 333.278 416.194 332.093 416.728 331.717C423.757 326.723 430.308 325.252 436.793 331.231C441.742 335.791 442.128 343.429 437.315 348.63C435.353 350.748 432.828 352.42 430.34 353.935C429.602 354.382 427.819 353.974 427.02 353.327C421.882 349.187 420.168 348.578 413.429 348.442V348.442ZM382.7 358.574C381.633 359.474 380.398 360.173 378.498 361.476C378.576 353.372 380.227 346.726 386.377 341.965C387.276 341.272 389.369 340.702 389.834 341.162C390.748 342.062 391.428 343.791 391.289 345.074C390.66 350.917 386.969 354.978 382.7 358.574ZM383.258 365.576C387.207 359.655 391.496 354.829 398.451 353.307C399.428 353.093 400.536 352.925 401.465 353.171C403.211 353.644 404.525 354.726 403.3 356.721C402.297 358.353 401.203 360.025 399.795 361.288C396.459 364.267 388.277 366.353 383.258 365.576V365.576ZM344.873 353.216C350.673 353.909 354.679 357.66 358.265 361.897C359.159 362.946 359.823 364.196 361.021 366.003C353.116 365.932 346.534 364.332 341.769 358.379C340.998 357.414 340.282 355.16 340.729 354.726C341.711 353.773 343.519 353.054 344.873 353.216ZM353.074 346.557C352.825 345.482 352.728 344.323 352.823 343.228C353.011 341.077 354.538 340.17 356.393 341.284C358.103 342.314 360.007 343.474 361.041 345.08C364.095 349.822 366.072 355.004 365.536 361.463C359.589 357.466 354.655 353.404 353.074 346.557ZM318.223 327.591C319.737 328.141 321.388 328.355 322.843 329.016C328.308 331.49 327.857 331.516 327.61 337.378C327.455 341.038 328.838 344.763 329.545 348.52C324.691 347.872 320.386 350.295 316.464 353.78C316.008 354.182 314.97 354.415 314.439 354.182C307.977 351.344 301.996 345.618 303.793 336.873C304.826 331.853 313.102 325.738 318.223 327.591V327.591ZM294.448 319.131C293.024 312.964 292.707 306.998 296.927 301.434C305.997 289.476 322.452 292.883 329.72 302.438C330.091 302.924 329.824 304.264 329.4 304.906C328.517 306.247 327.33 307.387 326.108 308.799C323.713 306.992 321.434 305.126 319.004 303.487C313.89 300.028 309.019 300.585 304.848 304.148C299.262 308.909 300.19 315.095 302.934 319.137C304.631 321.644 306.536 324.002 308.391 326.483C306.802 327.856 305.131 329.307 303.196 330.978C299.154 327.889 295.648 324.326 294.448 319.131V319.131ZM290.963 323.011C292.09 324.261 293.015 325.693 294.304 327.396C285.977 327.202 278.848 324.74 272.406 320.297C270.522 319.001 269.266 317.064 269.995 314.564C270.777 311.882 273.589 310.885 277.149 312.277C282.781 314.48 286.996 318.619 290.963 323.011ZM275.896 333.719C268.499 330.577 261.191 327.144 258.656 318.638C255.712 308.773 261.371 301.783 270.902 300.805C278.472 300.028 284.386 303.824 289.974 308.268C290.314 308.54 290.573 309.103 290.602 309.544C290.781 312.368 290.884 315.199 291.031 318.405C287.677 315.847 284.801 313.437 281.701 311.364C280.05 310.263 278.079 309.356 276.138 309.019C271.577 308.235 268.652 309.881 267.201 313.527C266.101 316.3 267.41 320.478 270.674 322.519C273.997 324.598 277.683 326.107 281.24 327.804C282.389 328.355 283.627 328.724 284.957 329.223C282.079 330.765 279.419 332.203 276.746 333.615C276.506 333.738 276.127 333.816 275.896 333.719V333.719ZM254.536 297.087C262.906 290.201 272.271 286.852 282.838 290.324C287.404 291.821 291.376 295.124 295.737 297.683C293.896 300.831 292.575 303.092 291.627 304.718C286.633 302.58 281.711 299.879 276.446 298.357C267.519 295.779 256.608 301.978 255.42 309.809C254.154 318.153 256.797 325.103 263.58 330.162C266.641 332.449 270.123 334.172 273.488 336.193C272.3 338.233 270.96 340.54 269.612 342.852C255.293 340.287 247.31 327.616 247.555 316.753C247.632 313.359 247.887 309.939 248.442 306.59C249.099 302.638 251.432 299.639 254.536 297.087ZM257.412 269.433C250.418 269.557 241.922 260.955 242.006 253.835C242.061 249.191 249.093 242.301 253.733 242.349C260.864 242.424 269.146 250.772 269.005 257.748C268.887 263.525 263.127 269.33 257.412 269.433V269.433ZM224.805 269.284C224.214 265.929 224.838 262.185 225.651 258.797C227.293 251.95 229.796 245.343 233.93 239.575C238.323 233.444 244.922 230.4 251.787 228.078C255.892 226.689 260.18 225.699 264.464 225.012C269.35 224.23 273.864 225.977 278.254 228.015C286.706 231.938 292.683 238.37 297.369 246.263C298.466 248.109 298.406 249.113 296.922 250.674C291.975 255.876 287.626 261.635 286.497 268.89C285.823 273.223 286.373 277.745 286.373 282.907C280.837 277.654 275.717 272.802 270.598 267.944C269.398 266.81 269.56 265.703 270.226 264.219C275.264 252.954 268.039 238.539 252.919 238.198C245.376 238.028 235.909 248.478 238.191 257.437C240.98 268.39 251.711 273.65 260.362 271.753C261.643 271.474 263.011 271.17 264.088 270.483C265.505 269.583 266.547 269.894 267.53 270.924C272.396 276.015 277.231 281.139 282.301 286.49C278.281 286.49 274.642 286.114 271.122 286.6C267.775 287.066 264.251 287.895 261.349 289.534C257.146 291.898 253.465 295.183 249.477 297.955C248.835 298.402 247.534 298.616 246.912 298.266C235.355 291.821 227.159 282.629 224.805 269.284V269.284ZM213.769 275.108C216.647 275.529 219.607 276.073 222.241 277.226C223.804 277.913 224.983 279.759 226.026 281.294C228.668 285.175 231.137 289.171 233.125 292.268C229.31 292.08 224.186 291.743 219.056 291.601C214.143 291.458 206.946 284.119 207.082 279.209C207.155 276.611 210.17 274.59 213.769 275.108ZM191.02 281.489C187.578 269.706 191.378 262.872 204.63 260.812C210.64 259.879 215.413 260.987 221.787 263.448C221.787 265.094 221.696 266.817 221.813 268.527C221.931 270.218 222.261 271.895 222.44 273.178C218.276 272.828 214.212 272.174 210.157 272.226C204.552 272.31 201.731 276.533 204.108 281.631C205.905 285.485 208.726 288.86 211.104 292.468C208.521 293.719 205.522 295.17 202.4 296.679C197.605 292.52 192.92 287.992 191.02 281.489V281.489ZM173.594 279.52C172.758 275.141 173.104 270.451 173.473 265.949C174.185 257.288 180.316 252.805 187.295 249.159C195.087 245.084 203.446 243.562 212.075 244.67C216.694 245.265 221.16 247.047 225.835 248.336C224.481 252.805 223.372 256.459 222.377 259.743C217.144 259.134 212.075 258.344 206.977 258.007C200.675 257.593 195.198 259.931 190.582 264.135C186.797 267.574 186.832 272.27 187.222 276.812C187.822 283.769 190.931 289.625 195.961 294.457C197.358 295.798 198.771 297.12 200.202 298.48C197.335 301.576 194.657 304.472 191.901 307.445C181.471 300.909 175.825 291.199 173.594 279.52V279.52ZM187.338 193.465C187.566 189.697 189.467 187.749 193.278 187.548C202.271 187.076 209.406 190.75 215.14 197.47C220.557 203.82 222.873 211.638 225.476 219.327C226.643 222.776 227.983 226.167 229.395 229.993C219.887 226.099 210.166 222.982 201.306 218.253C191.856 213.211 186.652 204.742 187.338 193.465ZM167.652 200.894C173.337 201.775 178.432 203.867 182.786 207.508C184.816 209.205 186.312 211.538 188.239 213.806C182.879 214.467 178.124 215.376 173.34 215.567C166.06 215.856 158.748 215.892 151.476 215.517C148.888 215.383 146.196 214.047 143.878 212.699C140.789 210.904 141.138 207.242 140.436 204.291C139.603 200.785 139.287 197.156 138.72 193.41C147.788 198.294 157.793 199.364 167.652 200.894ZM138.891 162.511C141.74 171.74 148.886 177.12 156.497 182.004C163.253 186.339 170.905 188.471 178.591 190.441C180.933 191.042 182.188 192.308 182.23 194.938C182.275 197.847 182.768 200.749 183.137 204.344C174.65 197.455 164.521 198.241 155.255 195.973C153.098 195.445 150.881 195.113 148.775 194.432C142.044 192.258 138.821 187.199 138.422 180.477C138.06 174.408 138.346 168.3 138.346 162.221C138.417 162.256 138.834 162.328 138.891 162.511V162.511ZM170.889 147.648C178.218 154.521 182.998 163.121 185.454 172.903C186.138 175.629 186.697 178.452 186.782 181.247C186.9 185.108 184.777 187.53 180.984 186.988C175.528 186.211 170.013 184.983 164.877 183.02C155.877 179.58 148.043 174.066 143.228 165.555C139.843 159.573 138.402 152.764 138.893 145.715C139.033 143.704 138.915 141.675 138.915 139.461C150.801 138.483 161.949 139.264 170.889 147.648V147.648ZM183.973 139.494C190.326 140.329 193.28 145.34 194.647 151.073C195.841 156.079 196.408 161.233 197.392 166.294C198.527 172.131 199.376 178.096 204.126 183.357C199.808 183.032 196.404 183.137 193.215 182.359C191.905 182.038 190.508 179.964 190.092 178.432C187.383 168.472 184.228 158.756 177.414 150.694C173.063 145.545 168.46 140.704 161.543 138.911C161.604 138.616 161.665 138.321 161.725 138.025C169.147 138.475 176.62 138.527 183.973 139.494V139.494ZM214.787 149.82C215.435 156.658 215.571 163.582 215.348 170.453C215.16 176.284 214.178 182.088 213.526 188.093C206.994 184.903 203.368 179.271 201.673 172.546C199.852 165.322 198.956 157.868 197.318 150.591C196.437 146.679 194.846 142.927 193.497 138.87C198.939 139.946 204.555 140.738 209.973 142.245C213.365 143.19 214.509 146.886 214.787 149.82V149.82ZM235.08 167.092C235.973 170.092 235.928 172.918 234 175.742C229.615 182.162 226.382 189.139 225.211 196.911C224.768 199.853 224.582 202.833 224.246 206.118C219.028 196.089 215.057 186.571 217.694 174.885C219.765 165.708 219.525 155.957 216.912 146.05C224.862 151.885 232.233 157.531 235.08 167.092ZM292.532 160.086C304.257 165.115 314.183 172.172 318.609 185.151C315.647 186.835 312.662 188.532 309.806 190.156C306.345 186.647 303.184 182.725 299.325 179.689C292.576 174.381 284.657 171.434 276.091 170.622C272.679 170.299 269.168 170.361 265.761 170.756C254.348 172.078 248.619 180.06 244.745 189.691C239.709 202.209 239.788 214.766 245.798 227.116C242.668 228.964 239.712 230.71 236.61 232.543C231.782 226.562 228.531 219.997 227.766 212.245C226.861 203.08 227.584 194.164 231.537 185.748C235.469 177.379 240.865 170.002 247.825 163.909C253.404 159.025 260.657 158.28 267.529 157.561C275.921 156.683 284.525 156.65 292.532 160.086V160.086ZM283.268 123.905C288.804 128.949 292.009 135.205 291.77 143.004C280.602 137.83 268.963 133.771 259.116 126.212C254.263 122.486 253.143 119.096 254.821 113.061C255.091 112.09 255.358 111.114 255.716 110.174C256.869 107.157 258.064 104.154 259.406 100.73C265.685 110.518 275.143 116.504 283.268 123.905ZM284.359 105.506C287.509 109.833 291.333 113.688 295.018 117.6C296.891 119.588 297.825 121.306 296.216 123.998C294.78 126.401 293.878 129.124 292.602 132.022C291.274 129.792 290.426 127.483 288.852 125.896C285.077 122.095 280.943 118.654 276.988 115.03C273.632 111.953 270.007 109.091 267.084 105.641C264.396 102.47 262.654 98.651 264.06 94.1264C266.394 86.6168 270.588 80.121 274.918 72.8626C273.125 85.7429 277.492 96.0762 284.359 105.506V105.506ZM311.976 86.1743C312.727 95.3157 311.424 103.957 308.122 112.366C305.982 117.817 302.109 118.972 297.553 115.348C286.293 106.391 278.553 95.1252 277.484 80.452C276.769 70.6473 280.898 62.12 286.832 54.2134C300.84 60.6108 310.634 69.8395 311.976 86.1743V86.1743ZM329.317 90.3486C328.007 95.5327 325.846 100.497 324.314 105.633C322.877 110.451 321.676 115.347 320.592 120.257C320.307 121.546 320.838 123.016 321.028 124.702C317.846 122.433 315.023 120.483 312.271 118.435C310.382 117.029 310.803 115.136 311.35 113.214C313.548 105.499 315.405 97.7039 314.983 89.6075C314.628 82.7981 313.589 76.0918 310.259 69.9892C309.396 68.4086 308.235 66.9912 307.502 64.9444C311.204 67.1195 314.959 69.2131 318.593 71.4985C320.986 73.0032 323.298 74.6706 325.482 76.465C329.976 80.1527 330.621 85.1898 329.317 90.3486V90.3486ZM346.415 103.316C341.909 111.231 336.751 118.774 331.824 126.447C330.294 128.83 328.667 131.151 326.917 133.751C321.727 125.143 323.055 116.804 326.126 108.273C328.699 101.124 330.894 93.8343 333.087 86.5559C333.596 84.8646 333.416 82.964 333.622 80.244C338.427 84.5633 343.301 88.0976 347.021 92.5873C349.513 95.5929 348.207 100.171 346.415 103.316V103.316ZM351.095 132.762C341.254 137.785 333.004 144.414 327.339 154.99C327.21 143.4 328.859 133.417 336.609 124.725C343.119 117.423 348.102 108.822 350.872 98.6725C354.903 108.383 359.229 117.613 355.358 127.989C354.655 129.874 352.889 131.846 351.095 132.762ZM319.594 177.025C314.524 170.944 309.172 164.983 304.342 158.626C297.407 149.498 294.798 139.382 299.456 128.349C302.954 120.061 307.875 120.016 315.095 126.638C324.869 135.603 325.359 147.019 323.128 159.019C322.001 165.069 320.761 171.098 319.594 177.025ZM378.006 130.439C388.245 132.788 397.608 137.257 405.294 144.487C412.552 151.315 417.426 159.783 419.264 169.643C420.08 174.017 419.84 178.586 420.099 183.42C416.363 183.42 413.224 183.553 410.112 183.311C409.461 183.261 408.477 181.875 408.389 181.027C406.803 165.899 398.562 155.055 386.199 147.124C376.75 141.062 366.894 141.248 357.493 147.352C346.229 154.667 338.551 164.628 336.028 178.152C335.036 183.475 334.9 183.449 329.502 183.451C327.878 183.452 326.253 183.451 324.537 183.451C322.604 169.491 327.117 158.013 335.7 147.876C344.085 137.973 355.322 132.94 367.575 130.061C370.856 129.291 374.655 129.67 378.006 130.439V130.439ZM410.779 129.213C414.411 133.666 416.172 138.894 416.183 144.754C416.189 147.963 416.791 151.171 417.209 155.205C416.391 154.083 415.981 153.615 415.674 153.086C410.833 144.738 404.087 138.286 395.37 134.302C389.485 131.613 387.471 127.139 387.25 121.287C386.952 113.427 389.883 106.403 393.117 98.9431C396.997 110.639 403.412 120.182 410.779 129.213V129.213ZM419.427 113.035C421.685 120.202 421.022 126.925 417.049 134.053C411.37 125.505 405.955 117.411 400.602 109.276C397.939 105.23 396.258 100.717 396.084 95.9194C396.023 94.2274 397.352 92.1066 398.668 90.8156C402.252 87.2976 406.169 84.1163 410.465 80.3554C410.582 92.5394 416.101 102.475 419.427 113.035V113.035ZM434.055 69.5429C428.165 81.3504 427.9 93.6723 430.924 106.249C431.585 108.999 432.591 111.682 433.029 114.459C433.22 115.671 432.788 117.526 431.93 118.257C429.27 120.522 426.27 122.389 422.829 124.814C424.483 118.477 422.564 113.214 420.71 107.948C418.858 102.687 416.684 97.52 415.168 92.1657C412.703 83.4582 414.742 78.3868 422.312 73.4884C426.966 70.4775 431.774 67.7051 436.981 65.2948C435.995 66.7056 434.815 68.0193 434.055 69.5429V69.5429ZM466.823 78.3318C467.037 83.6474 464.999 89.307 462.954 94.4029C459.574 102.82 453.954 109.806 446.634 115.273C441.845 118.851 438.091 117.776 435.884 112.227C431.276 100.644 430.526 88.8316 433.986 76.8004C436.546 67.9001 443.239 62.5269 450.445 57.6556C452.444 56.3044 454.761 55.424 457.136 54.2243C463.101 61.3797 466.47 69.5739 466.823 78.3318V78.3318ZM474.115 108.85C469.357 113.278 464.113 117.188 459.406 121.664C456.381 124.542 453.939 128.03 451.193 131.295C449.908 128.427 448.18 125.177 447.076 121.727C446.757 120.726 448.022 118.984 448.92 117.872C453.443 112.273 458.459 107.034 462.583 101.165C467.198 94.596 469.201 86.8674 469.905 78.8908C470.049 77.2494 469.433 75.5412 469.168 73.8634C469.434 73.7384 469.7 73.6134 469.966 73.4878C472.901 79.1181 475.973 84.6825 478.739 90.3958C482.484 98.1302 479.786 103.571 474.115 108.85V108.85ZM484.433 126.417C477.07 130.862 469.381 134.775 461.756 138.774C458.815 140.317 455.671 141.473 452.308 142.94C452.124 133.746 456.732 127.29 463.218 121.645C469.571 116.118 475.7 110.33 481.861 104.586C482.875 103.64 483.547 102.327 484.732 100.694C486.352 105.112 488.064 109.156 489.314 113.338C491.076 119.238 489.837 123.155 484.433 126.417V126.417ZM424.499 177.102C423.353 171.24 422.218 165.189 420.982 159.161C419.386 151.38 419.166 143.72 422.204 136.168C424.375 130.77 427.938 126.571 432.89 123.697C438.169 120.634 441.237 121.557 443.991 127.038C447.584 134.19 447.885 141.609 445.036 149.143C442.048 157.045 436.379 163.042 430.968 169.24C428.657 171.887 426.497 174.665 424.499 177.102V177.102ZM484.067 222.57C484.54 220.804 485.042 218.99 485.511 217.168C487.2 210.61 487.286 204.033 484.709 197.737C480.407 187.226 472.511 185.139 461.084 189.112C458.071 190.16 455.166 191.879 452.626 193.829C450.155 195.725 448.216 198.314 446.04 200.604C442.821 197.619 439.927 194.936 436.952 192.177C444.5 180.776 455.291 174.962 468.541 173.413C471.508 173.066 474.577 173.203 477.563 173.49C486.605 174.359 491.641 180.33 495.424 187.846C499.372 195.694 500.902 204.036 499.742 212.663C499.132 217.196 497.365 221.575 496.083 226.159C491.722 224.856 488.056 223.762 484.067 222.57ZM452.953 218.639C453.056 217.218 453.593 215.546 454.52 214.524C456.413 212.436 458.491 210.329 460.907 208.964C462.652 207.979 465.78 207.206 466.999 208.1C468.506 209.207 469.324 212.155 469.262 214.273C469.179 217.13 468.616 220.389 467.073 222.674C465.497 225.005 462.519 226.41 460.096 228.138C457.323 230.114 454.486 231.998 452.272 233.514C452.455 229.126 452.576 223.874 452.953 218.639V218.639ZM463.461 204.199C460.14 205.715 457.258 208.217 454.247 210.373C453.626 210.818 453.293 211.668 452.699 212.513C450.942 209.182 449.442 206.445 448.077 203.643C447.854 203.185 447.997 202.218 448.35 201.86C452.627 197.514 457.008 193.387 462.947 191.19C472.43 187.683 481.372 192.38 483.258 202.383C484.527 209.109 483.628 215.703 481.083 221.891C477.555 222.163 474.163 222.424 470.792 222.685C471.356 219.987 472.145 217.275 472.429 214.509C472.632 212.537 472.44 210.419 471.926 208.499C470.812 204.326 467.417 202.393 463.461 204.199V204.199ZM413.361 227.207C409.25 227.152 404.624 223.693 403.235 219.635C401.154 213.558 403.355 205.33 408.32 201.304C409.369 200.453 410.984 199.553 412.162 199.746C415.907 200.359 419.813 200.958 423.202 202.537C427.116 204.36 426.603 208.591 426.684 211.727C426.686 221.003 421.073 227.309 413.361 227.207V227.207ZM442.42 286.496C446.633 279.299 448.302 271.902 444.426 263.915C440.815 256.472 433.978 254.256 426.276 255.993C417.801 257.904 413.247 264.109 409.794 271.435C409.492 272.077 409.201 272.724 408.88 273.359C408.753 273.605 408.56 273.826 408.439 273.994C406.129 272.627 403.872 271.293 401.598 269.946C404.416 254.885 417.825 247.533 427.669 247.889C431.088 248.012 434.527 248.271 437.897 248.835C441.269 249.392 444.345 250.914 446.309 253.848C449.013 257.878 452.341 261.771 453.879 266.247C457.182 275.866 455.759 285.045 448.609 292.844C447.731 293.796 446.859 294.762 446.034 295.668C443.682 294.289 441.503 293.019 439.059 291.587C440.136 289.968 441.372 288.284 442.42 286.496V286.496ZM424.346 272.582C425.859 270.529 428.114 269.168 430.702 270.684C433.265 272.186 433.171 274.784 432.245 277.162C429.392 284.488 423.941 289.612 417.441 293.893C417.562 285.997 419.736 278.852 424.346 272.582ZM422.081 270.885C419.307 275.309 417.262 280.187 414.947 284.78C413.744 282.519 412.351 279.954 411.017 277.35C410.816 276.961 410.71 276.358 410.865 275.976C413.22 270.165 416.196 264.821 421.389 260.961C425.027 258.26 433.817 257.327 437.871 260.397C442.068 263.578 444.775 270.308 443.551 276.229C442.454 281.547 439.734 286.03 436.323 290.137C435.979 290.551 435.381 290.959 434.872 291.004C432.054 291.218 429.226 291.322 425.823 291.49C427.695 289.21 429.455 287.312 430.915 285.214C432.412 283.063 433.837 280.802 434.895 278.412C436.735 274.253 435.529 270.192 432.211 268.261C428.955 266.376 424.403 267.179 422.081 270.885V270.885ZM404.366 300.941C404.609 297.43 404.984 293.919 405.064 290.396C405.175 285.557 402.401 281.476 398.391 280.193C392.177 278.198 387.849 279.306 384.806 284.177C382.843 287.325 381.454 290.83 379.75 294.289C377.752 293.531 375.611 292.728 373.53 291.944C374.741 280.945 380.678 275.108 389.24 272.407C396.311 270.172 403.34 272.219 408.098 278.302C413.662 285.408 415.081 293.395 410.945 301.978C408.591 301.609 406.501 301.278 404.366 300.941V300.941ZM389.935 309.589C389.384 310.088 389.02 310.794 388.124 312.012C388.318 305.923 386.697 301.162 383.316 296.99C382.951 296.543 382.853 295.545 383.083 294.995C384.481 291.639 385.61 288.077 387.602 285.103C389.794 281.826 393.471 281.307 397.408 282.752C400.463 283.873 402.439 286.904 402.393 290.726C402.366 293.051 402.219 295.396 401.875 297.696C401.58 299.678 400.739 301 398.59 302.192C395.334 303.992 392.758 307.03 389.935 309.589V309.589ZM373.778 333.382C373.567 333.252 373.482 332.863 373.406 332.578C371.859 326.736 379.391 317.732 385.407 317.783C389.351 317.816 394.289 325.712 393.151 329.981C392.657 331.84 392.128 333.686 391.519 335.506C391.012 337.029 389.872 337.521 388.345 338.195C385.487 339.458 383.071 341.731 380.502 343.629C380.208 343.843 380.115 344.335 379.742 345.061C378.319 340.332 377.858 335.908 373.778 333.382V333.382ZM369.382 338.661C369.859 337.644 371.165 336.374 372.064 336.394C372.998 336.413 374.287 337.67 374.762 338.693C378.2 346.084 375.395 352.789 372.081 360.219C368.582 352.744 365.901 346.033 369.382 338.661V338.661ZM355.673 318.839C356.63 318.062 358.373 317.77 359.661 317.945C365.792 318.761 371.159 325.738 370.674 332.002C370.637 332.481 370.572 333.194 370.265 333.382C366.184 335.914 365.851 340.417 364.429 344.407C361.433 341.68 359.196 337.942 354.499 337.91C354.065 337.903 353.54 337.255 353.219 336.795C349.427 331.335 350.466 323.089 355.673 318.839V318.839ZM372.852 295.247C381.086 295.597 388.043 306.298 384.821 313.832C384.483 314.622 383.293 315.238 382.368 315.555C377.203 317.362 374.51 319.649 372.034 324.786C369.827 319.856 366.429 316.799 361.61 315.613C359.663 315.14 359.08 314.052 358.799 312.342C357.294 303.196 364.112 294.878 372.852 295.247V295.247ZM342.001 295.04C342.012 293.421 341.754 291.801 341.776 290.188C341.835 285.984 344.13 283.315 348.601 282.117C351.61 281.307 355.654 283.056 357.357 286.179C358.611 288.485 359.573 290.953 360.577 293.382C361.256 295.027 360.847 296.362 360.003 298.091C357.979 302.237 356.672 306.732 355.363 310.302C353.017 308.229 350.33 304.847 346.828 303.04C343.15 301.142 341.976 298.719 342.001 295.04V295.04ZM334.871 279.688C338.539 273.722 346.648 270.464 353.416 272.083C363.361 274.46 369.077 281.275 370.67 291.873C368.524 292.702 366.466 293.492 364.316 294.321C362.813 291.186 361.532 287.876 359.729 284.883C356.412 279.371 352.558 278.224 345.887 280.096C341.728 281.268 338.369 286.522 338.898 291.069C339.27 294.276 339.498 297.495 339.81 300.928C337.746 301.246 335.595 301.583 333.172 301.965C329.438 294.25 330.44 286.891 334.871 279.688V279.688ZM313.122 280.213C312.329 278.943 311.696 277.473 311.416 276.009C310.996 273.818 311.231 271.241 313.657 270.651C315.283 270.263 317.852 270.878 319.032 272.031C323.645 276.546 324.908 282.778 326.526 288.737C326.997 290.473 326.95 292.352 327.196 294.69C321.05 290.707 316.653 285.861 313.122 280.213ZM312.057 268.099C308.748 269.841 307.481 273.12 309.255 278.263C310.437 281.696 313.102 284.624 315.184 287.72C315.963 288.886 316.97 289.89 317.928 291.037C311.965 292.579 307.719 290.894 304.691 286.017C301.39 280.699 299.333 275.205 300.822 268.747C303.594 256.731 316.415 256.141 323.558 261.66C328.23 265.269 330.855 270.282 333.02 275.594C333.224 276.099 333.301 276.844 333.075 277.291C331.776 279.902 330.369 282.454 329.12 284.792C326.838 280.226 324.824 275.445 322.148 271.073C319.862 267.334 315.316 266.389 312.057 268.099V268.099ZM336.684 257.534C339.565 260.87 340.995 265.463 343.124 269.55C340.105 271.338 337.851 272.672 336.241 273.625C332.931 269.168 330.073 264.342 326.287 260.423C319.698 253.589 307.336 253.712 301.945 260.326C297.028 266.356 296.283 273.346 298.894 280.472C300.338 284.41 302.731 288.005 304.703 291.769C302.659 292.974 300.415 294.289 298.171 295.61C286.79 286.185 286.082 269.499 293.447 259.665C296.625 255.422 299.127 250.681 304.767 249.23C316.942 246.095 328.116 247.597 336.684 257.534V257.534ZM318.773 219.208C317.855 216.904 317.548 214.355 316.962 211.917C317.386 203.341 324.339 197.805 332.625 199.726C336.564 200.639 338.142 204.073 339.86 207.111C343.398 213.365 342.335 222.942 334.122 226.419C328.667 228.728 321.337 225.641 318.773 219.208V219.208ZM389.557 268.974C389.557 264.497 389.916 260.326 389.478 256.239C388.696 248.945 382.292 241.835 375.929 240.066C367.242 237.652 358.956 244.223 356.067 251.044C353.961 256.012 353.661 261.271 354.462 266.602C354.562 267.27 354.475 267.963 354.475 268.78C353.885 268.89 353.686 268.947 353.484 268.954C345.519 269.265 345.086 268.909 344.972 260.793C344.812 249.34 349.716 240.794 360.078 235.749C363.578 234.046 367.427 231.844 371.082 231.91C381.209 232.09 389.231 236.971 394.961 245.427C399.491 252.106 400.026 259.413 398.219 267.031C398.042 267.776 397.134 268.818 396.475 268.89C394.285 269.122 392.054 268.974 389.557 268.974V268.974ZM374.649 276.585C374.13 278.528 373.122 280.336 372.067 282.849C368.432 274.927 366.21 267.484 367.548 259.354C367.95 256.912 369.196 255.06 371.85 254.943C374.689 254.827 375.997 256.757 376.554 259.264C377.886 265.243 376.166 270.924 374.649 276.585V276.585ZM379.569 266.383C379.66 263.202 379.38 259.925 378.655 256.835C377.995 254.017 374.526 251.788 371.931 251.957C368.662 252.177 366.488 254.108 365.283 257.01C363.579 261.116 364.083 265.34 364.95 269.557C365.333 271.422 365.607 273.301 365.965 275.38C363.249 273.683 360.765 272.154 358.311 270.58C357.918 270.327 357.424 269.887 357.38 269.486C356.551 262.049 356.082 254.703 361.13 248.252C368.248 239.156 379.719 241.17 384.922 251.205C387.905 256.958 387.548 263.183 386.631 269.368C386.55 269.913 385.839 270.457 385.298 270.819C383.026 272.329 380.709 273.774 378.154 275.406C378.664 272.342 379.484 269.368 379.569 266.383V266.383ZM391.824 178.302C388.796 170.232 383.787 163.966 375.259 161.206C369.449 159.327 364.855 162.272 360.817 165.658C355.73 169.925 352.41 175.513 351.146 182.182C350.868 183.65 350.316 185.066 349.89 186.506C346.516 185.769 343.392 184.965 340.22 184.445C338.62 184.183 338.242 183.593 338.398 182.044C339.214 173.966 342.006 166.823 347.174 160.418C353.274 152.858 360.564 147.396 370.204 145.618C372.26 145.239 374.65 145.65 376.683 146.315C392.877 151.612 401.943 163.221 405.54 179.497C405.836 180.838 405.579 182.302 405.579 183.976C401.985 184.787 398.252 185.629 394.194 186.545C393.432 183.852 392.835 181 391.824 178.302V178.302ZM379.695 196.777C379.725 198.704 377.72 200.636 376.734 202.613C375.012 206.067 373.362 209.558 372.163 212.036C369.962 207.912 367.145 202.881 364.619 197.707C364.084 196.61 364.238 194.847 364.717 193.647C366.076 190.241 367.495 186.8 369.423 183.704C370.644 181.743 372.844 181.919 374.638 183.559C378.524 187.114 379.619 191.915 379.695 196.777V196.777ZM378.063 182.338C374.654 176.848 369.366 176.868 365.953 182.404C363.926 185.693 362.657 189.448 361.04 193.009C358.827 191.596 356.195 189.959 353.625 188.226C353.217 187.951 352.799 187.19 352.888 186.754C354.5 178.724 357.261 171.284 364.408 166.42C371.582 161.537 376.157 162.717 383.262 169.441C388.032 173.954 389.932 180.226 391.224 186.561C391.325 187.058 390.873 187.922 390.417 188.234C387.918 189.947 385.338 191.541 383.112 192.967C381.433 189.365 380.106 185.63 378.063 182.338V182.338ZM275.243 217.851C274.764 215.668 274.836 213.255 275.179 211.026C275.688 207.721 277.864 206.651 280.967 207.801C284.937 209.273 287.92 212.012 290.183 215.48C290.846 216.496 290.995 217.947 291.082 219.219C291.439 224.442 291.68 229.673 291.891 233.553C289.01 231.654 285.373 228.69 281.262 226.711C277.278 224.794 276.043 221.492 275.243 217.851ZM287.456 191.214C282.014 187.609 275.774 186.478 269.372 187.765C263.16 189.014 257.638 197.64 257.565 205.635C257.539 208.486 257.444 211.373 257.847 214.177C258.246 216.957 259.231 219.653 259.999 222.533C256.185 223.697 252.543 224.809 248.562 226.023C245.367 219.99 243.57 213.56 243.976 206.825C244.372 200.262 245.446 193.776 248.66 187.745C252.805 179.967 258.041 174 267.522 173.361C284.17 172.238 297.299 178.491 307.214 192.064C304.194 194.884 301.317 197.571 298.58 200.129C294.879 197.125 291.396 193.824 287.456 191.214V191.214ZM271.929 209.924C271.771 212.12 271.695 214.358 271.947 216.535C272.186 218.605 272.902 220.62 273.466 222.897C271.723 222.621 270.074 222.255 268.407 222.127C266.693 221.996 264.96 222.098 263.038 222.098C260.322 214.873 259.091 207.493 261.568 199.922C264.203 191.868 269.494 188.934 278.542 190.662C283.721 191.651 288.206 194.248 291.929 198.042C293.417 199.559 294.86 201.123 296.359 202.703C294.796 205.872 293.329 208.85 291.765 212.024C290.091 210.461 288.507 208.644 286.593 207.294C284.71 205.965 282.586 204.825 280.403 204.107C275.763 202.582 272.281 205.045 271.929 209.924V209.924ZM313.675 245.33C310.114 245.829 306.556 246.373 302.977 246.684C302.214 246.749 301.02 246.114 300.617 245.447C294.488 235.269 292.023 224.289 294.986 212.68C295.949 208.909 298.342 205.237 300.894 202.206C303.875 198.664 307.606 195.695 311.261 192.792C319.363 186.355 328.671 184.836 338.596 187.002C343.223 188.012 347.851 189.249 352.27 190.932C357.392 192.881 360.472 197.168 363.632 201.553C369.261 209.364 369.85 218.296 370.585 227.283C370.629 227.823 369.892 228.812 369.348 228.957C356.844 232.296 347.021 238.692 342.546 251.899C340.475 244.916 338.339 237.944 336.424 230.916C336.215 230.145 337.033 228.727 337.787 228.118C344.4 222.786 346.612 215.922 344.952 207.767C343.701 201.615 336.637 196.026 330.547 195.329C325.856 194.792 321.965 196.151 318.405 198.795C312.161 203.433 310.796 214.89 315.547 221.43C318.9 226.048 323.005 229.488 328.96 230.012C331.394 230.226 332.199 231.602 332.671 233.907C333.85 239.66 335.388 245.337 336.771 251.05C336.908 251.62 336.966 252.203 337.158 253.376C334.842 251.84 332.97 250.577 331.08 249.34C325.773 245.868 319.99 244.456 313.675 245.33V245.33ZM312.446 324.786C311.674 324.87 310.503 324.494 310.068 323.911C308.072 321.262 306.005 318.606 304.468 315.685C302.572 312.083 303.316 309.123 306.14 306.344C308.791 303.733 311.814 303.008 315.274 304.828C318.197 306.363 320.841 308.456 323.516 310.425C324.075 310.839 324.632 311.876 324.511 312.485C323.416 318.049 325.006 323.037 327.528 327.947C322.733 325.2 317.782 324.203 312.446 324.786V324.786ZM333.664 328.588C333.017 328.776 331.803 328.381 331.393 327.843C326.802 321.819 324.759 314.305 330.609 307.905C335.346 302.723 343.268 302.341 348.503 307.367C350.448 309.239 352.015 311.578 353.393 313.916C353.861 314.713 353.642 316.533 353.013 317.252C349.663 321.081 347.558 325.291 348.193 331.128C343.275 327.766 338.652 327.111 333.664 328.588V328.588ZM416.37 320.977C415.9 322.208 415.377 323.419 414.792 324.591C412.6 328.996 412.598 328.932 407.657 328.012C403.554 327.241 399.857 328.517 395.77 331.121C396.618 325.148 394.331 320.893 390.867 317.058C390.429 316.578 390.055 315.672 390.192 315.089C392.04 307.192 401.529 301.913 409.044 304.608C413.593 306.247 419.245 313.463 416.37 320.977V320.977ZM416.779 327.681C419.32 322.784 420.404 317.842 419.597 312.491C419.499 311.843 420.017 310.813 420.573 310.412C423.343 308.391 426.08 306.253 429.099 304.666C432.337 302.975 435.694 303.895 438.192 306.57C440.637 309.188 441.541 312.245 439.761 315.471C438.16 318.366 436.146 321.048 434.196 323.743C433.773 324.326 432.786 324.954 432.16 324.864C426.746 324.08 421.714 325.136 416.779 327.681V327.681ZM407.844 252.896C407.711 253.013 407.457 252.987 406.756 253.142C408.497 245.926 410.059 239.033 411.929 232.223C412.186 231.284 413.904 230.314 415.07 230.124C423.444 228.766 428.943 223.865 430.777 215.885C432.68 207.607 429.459 198.549 419.809 195.808C406.726 192.093 396.991 204.218 398.777 215.344C399.657 220.822 402.404 224.9 406.544 228.317C407.185 228.846 407.992 229.965 407.826 230.561C405.851 237.647 403.706 244.682 401.578 251.834C399.447 248.109 397.751 244.417 395.405 241.198C390.491 234.456 383.022 231.632 375.481 229.019C374.697 228.748 373.449 227.883 373.503 227.421C374.173 221.704 374.213 215.729 376.027 210.366C380.891 195.98 391.293 187.928 406.559 186.844C411.545 186.49 416.815 186.254 421.56 187.486C426.205 188.692 430.684 191.375 434.63 194.243C439.878 198.061 444.894 202.445 447.505 208.659C448.779 211.69 449.731 214.974 450.135 218.23C451.353 228.029 448.366 236.94 443.542 245.311C443.133 246.023 441.719 246.768 440.997 246.593C428.956 243.62 417.664 244.287 407.844 252.896V252.896ZM502.379 170.109C508.774 178.026 514.243 186.379 515.911 196.619C518.033 209.648 516.43 221.899 507.45 232.541C504.444 230.756 501.414 228.955 499.17 227.622C500.527 220.844 502.779 214.543 502.836 208.223C502.933 197.322 500.035 187.058 492.669 178.384C486.67 171.32 478.777 170.059 470.346 170.3C462.792 170.515 455.54 172.732 449.306 176.75C443.777 180.315 439.14 185.265 433.797 189.873C431.554 188.605 428.481 186.868 425.441 185.15C430.878 168.029 452.186 156.533 466.968 157.346C472.129 157.63 477.282 158.105 482.43 158.585C490.831 159.367 497.158 163.644 502.379 170.109V170.109ZM525.849 170.631C526.063 175.157 526.99 179.646 527.402 184.169C527.782 188.324 526.634 192.146 524.657 195.843C522.943 199.048 521.667 202.487 519.911 206.471C519.498 202.784 519.249 199.683 518.787 196.613C517.728 189.572 515.089 183.09 510.943 177.354C507.805 173.013 507.992 168.638 509.975 164.167C513.482 156.26 520.087 151.227 527.221 145.976C524.83 154.618 525.471 162.651 525.849 170.631V170.631ZM543.553 167.913C542.654 173.923 540.276 179.207 536.392 183.758C534.858 185.558 532.692 186.819 530.061 188.928C529.427 177.571 528.571 167.177 528.414 156.774C528.358 153.081 529.89 149.33 530.914 145.667C531.527 143.476 533.103 142.263 535.515 141.855C540.576 140.998 545.59 139.865 551.093 138.751C546.166 148.237 545.016 158.127 543.553 167.913V167.913ZM555.428 173.378C552.758 182.28 552.674 182.254 543.413 183.094C542.552 183.172 541.693 183.274 540.231 183.429C547.559 173.699 546.421 162.213 549.176 151.771C551.423 143.251 554.967 139.91 563.534 138.779C565.112 138.571 566.71 138.45 568.301 138.435C572.97 138.39 577.641 138.42 582.674 138.42C567.093 145.372 559.942 158.328 555.428 173.378ZM593.789 194.828C589.418 196.017 584.887 196.641 580.411 197.416C573.735 198.572 566.929 199.295 561.034 204.364C561.385 200.152 561.398 196.554 562.136 193.112C562.373 192.006 564.404 190.89 565.816 190.495C575.83 187.696 585.694 184.6 593.783 177.669C598.817 173.357 603.697 168.875 605.359 161.984C605.712 162.04 606.065 162.096 606.417 162.151C605.971 169.063 605.572 175.979 605.065 182.886C604.553 189.883 599.845 193.182 593.789 194.828V194.828ZM575.732 216.049C569.305 215.844 562.908 214.64 556.297 213.85C559.548 207.281 565.269 203.682 572.129 201.915C577.71 200.476 583.508 199.894 589.133 198.603C594.604 197.347 599.978 195.672 605.46 194.164C604.461 199.26 603.925 204.992 602.026 210.231C601.24 212.401 597.69 214.53 595.132 214.913C588.745 215.871 582.192 216.254 575.732 216.049V216.049ZM526.034 225.517C522.325 226.794 518.644 228.151 514.882 229.496C517.679 221.922 520.275 214.359 523.255 206.949C527.243 197.027 534.268 190.214 544.867 187.742C547.256 187.185 549.945 187.53 552.435 187.885C555.369 188.303 556.629 190.502 556.84 193.305C557.538 202.568 553.651 209.801 546.767 215.627C540.734 220.732 533.323 223.004 526.034 225.517V225.517ZM598.292 217.409C592.387 225.132 586.9 232.715 577.181 235.408C574.123 236.256 571.401 236.241 568.578 234.283C559.506 227.993 549.395 224.731 537.739 224.884C548.001 219.571 557.495 215.267 569.308 217.95C578.507 220.039 588.262 219.581 598.292 217.409V217.409ZM604.675 139.233C606.197 149.326 605.258 158.841 599.906 167.133C595.013 174.713 587.644 179.912 579.18 183.052C574.194 184.901 568.92 186.274 563.658 186.985C559.125 187.598 556.93 185.218 557.282 180.58C558.022 170.824 561.856 162.163 567.431 154.188C575.332 142.887 586.388 138.555 599.799 139.222C601.409 139.303 603.027 139.233 604.675 139.233V139.233ZM441.381 161.77C447.819 153.675 451.941 144.483 462.684 141.322C470.948 138.891 484.227 131.687 490.197 124.977C489.734 134.841 488.436 139.998 484.601 146.786C481.763 151.808 478.031 154.898 471.642 154.546C461.175 153.968 455.177 154.72 441.381 161.77ZM271.574 154.548C266.674 154.745 263.478 152.582 260.818 148.89C255.764 141.868 254.45 133.767 253.718 124.911C262.225 133.02 272.005 137.673 282.14 141.68C288.048 144.015 293.133 147.168 296.331 152.988C297.956 155.946 300.273 158.524 301.973 160.855C296.672 159.076 291.187 156.754 285.469 155.47C280.986 154.463 276.199 154.361 271.574 154.548V154.548ZM176.608 217.911C182.088 217.192 187.464 216.181 192.736 218.41C197.117 220.261 201.376 222.404 204.887 224.043C198.825 225.527 192.018 226.931 185.391 228.934C182.352 229.853 179.448 231.653 176.869 233.572C171.804 237.34 167.061 236.01 162.109 233.511C155.023 229.937 150.709 223.645 145.772 217.468C156.261 219.605 166.47 219.243 176.608 217.911ZM157.513 283.879C155.648 273.91 157.112 264.038 160.11 254.451C160.877 251.996 162.242 249.463 164.022 247.636C172.867 238.573 182.791 230.983 195.617 228.668C207.296 226.559 218.68 227.296 228.823 234.509C229.893 235.27 231.016 235.96 232.304 236.806C230.398 240.028 228.65 242.985 227.152 245.518C221.877 244.261 216.924 242.797 211.868 241.937C204.843 240.74 197.968 242.124 191.289 244.307C185.818 246.088 181.075 249.12 176.766 252.993C172.514 256.815 170.836 261.712 170.363 267.056C168.815 284.527 175.159 298.558 189.205 309.084C189.445 309.265 189.658 309.479 190.033 309.809C188.303 312.88 186.574 315.95 184.766 319.157C168.863 312.549 160.555 300.145 157.513 283.879V283.879ZM140.148 279.954C137.223 270.587 132.231 261.912 124.701 254.218C131.377 254.613 137.368 255.397 142.99 257.994C144.917 258.882 146.773 259.976 148.529 261.168C152.382 263.792 154.646 267.186 154.284 272.18C153.508 282.894 155.47 293.039 161.189 302.405C152.393 296.582 143.652 291.16 140.148 279.954ZM100.112 259.627C106.124 257.593 111.533 255.008 117.201 254.114C120.876 253.537 123.945 256.906 126.235 260.022C131.753 267.516 135.82 275.782 139.2 284.423C140.19 286.949 141.488 289.359 142.814 292.184C132.402 292.3 125.58 286.69 119.72 279.189C114.161 272.077 108.559 264.958 100.112 259.627V259.627ZM117.534 295.636C111.578 290.609 105.755 285.33 99.3156 280.99C93.233 276.889 86.0681 275.005 78.6453 274.7C76.987 274.635 75.3028 275.076 72.8608 275.387C74.1045 274.473 74.7716 273.852 75.5489 273.443C80.7376 270.69 85.8615 267.814 91.1662 265.313C97.774 262.211 103.319 264.75 107.866 269.595C112.653 274.7 116.874 280.336 121.691 285.408C124.487 288.349 127.972 290.635 131.197 293.259C128.813 294.289 125.998 295.241 123.464 296.685C120.993 298.091 119.446 297.249 117.534 295.636V295.636ZM74.1886 309.615C66.4736 306.817 61.732 300.475 57.3531 293.958C56.0057 291.957 55.1441 289.631 53.9264 287.196C62.0494 281.152 70.7878 277.207 80.8089 277.809C85.136 278.069 89.5213 279.623 93.6088 281.256C101.978 284.598 108.929 290.059 114.494 297.139C118.86 302.69 117.901 306.26 111.371 308.799C99.1019 313.56 86.6252 314.136 74.1886 309.615V309.615ZM105.793 324.481C101.421 326.101 97.0738 327.843 92.5983 329.132C80.7829 332.546 77.3304 328.122 72.4461 320.945C69.6089 316.76 67.2252 312.271 65.055 307.419C66.1563 308.268 67.1603 309.304 68.3717 309.939C77.136 314.532 86.4768 316.423 96.284 314.985C102.179 314.124 107.989 312.685 113.835 311.494C115.759 311.098 117.241 311.319 118.461 313.249C120.177 315.95 122.277 318.418 124.687 321.612C117.539 319.915 111.695 322.305 105.793 324.481V324.481ZM339.816 351.008C339.038 351.286 337.784 350.904 337.012 350.412C331.68 347.017 329.208 341.531 330.882 335.578C331.378 333.816 333.386 331.756 335.133 331.205C340.866 329.398 347.504 332.546 350.394 337.871C350.675 338.382 351.059 339.173 350.863 339.568C348.774 343.817 350.494 347.814 351.701 352.148C347.584 350.813 343.868 349.57 339.816 351.008V351.008ZM392.295 352.212C393.762 347.982 394.965 344.057 393.362 339.872C393.148 339.315 393.353 338.37 393.722 337.858C397.754 332.306 402.324 329.275 409.3 331.302C410.945 331.775 412.81 333.868 413.284 335.578C414.94 341.537 412.146 347.581 406.793 350.632C406.082 351.033 404.966 351.234 404.221 350.982C400.18 349.621 396.446 350.761 392.295 352.212ZM585.961 262.347C588.148 274.182 588.122 285.881 582.536 296.867C577.449 306.868 570.674 315.335 559.205 318.943C557.519 315.97 555.781 312.899 554.323 310.321C558.163 306.324 562.188 302.826 565.359 298.674C570.174 292.378 572.917 285.019 573.688 277.09C574.036 273.502 573.955 269.823 573.664 266.214C572.868 256.316 566.134 250.882 558.226 246.535C551.776 242.985 544.596 241.966 537.416 241.486C531.036 241.06 524.971 242.966 519.081 245.317C518.533 245.538 517.983 245.751 517.264 246.036C515.415 242.921 513.625 239.905 511.849 236.911C526.354 224.425 550.207 225.105 565.459 235.7C569.86 238.757 574.049 242.146 578.148 245.609C583.279 249.936 584.805 256.09 585.961 262.347V262.347ZM602.215 283.762C600.179 288.951 597.151 293.427 592.018 296.31C588.876 298.072 586.103 300.494 582.951 302.775C584.704 298.551 586.501 294.652 587.957 290.622C590.103 284.682 590.348 278.438 589.867 272.245C589.409 266.35 592.554 262.955 597.02 260.151C601.933 257.061 607.345 255.494 613.053 254.794C615.229 254.529 617.402 254.231 619.638 253.939C611.324 262.457 606.469 272.912 602.215 283.762V283.762ZM623.054 280.802C619.014 285.971 613.935 289.456 607.882 291.562C605.931 292.242 603.684 292.073 601.572 292.294C601.312 292.054 601.051 291.814 600.79 291.575C606.319 281.243 611.698 270.826 617.487 260.644C618.811 258.318 621.436 256.64 623.674 254.943C625.477 253.576 627.569 253.939 629.671 254.716C634.194 256.394 638.782 257.89 643.887 259.645C634.931 265.372 629.027 273.152 623.054 280.802V280.802ZM633.881 288.666C631.248 291.056 628.672 293.518 626.109 295.98C624.556 297.476 623.079 297.994 620.944 296.822C618.304 295.371 615.426 294.354 611.886 292.812C621.944 289.1 626.239 280.278 632.602 273.592C634.837 271.248 636.961 268.721 639.502 266.752C644.277 263.053 649.605 263.397 654.74 265.929C660.171 268.618 665.426 271.656 671.056 274.7C666.868 274.953 663.12 274.817 659.514 275.471C649.672 277.246 641.243 281.981 633.881 288.666ZM649.106 312.375C643.138 311.953 637.195 310.023 631.434 308.177C626.929 306.739 625.556 302.833 628.195 299.257C637.643 286.438 649.94 277.997 666.298 277.829C675.1 277.732 682.994 281.638 689.947 287.098C681.716 306.538 669.205 313.78 649.106 312.375V312.375ZM619.49 321.651C621.923 318.237 623.665 315.225 626.002 312.783C626.947 311.792 629.254 311.584 630.828 311.811C638.324 312.886 645.757 315.043 653.258 315.27C662.299 315.542 671.284 313.923 678.605 307.646C678.722 307.542 678.976 307.607 680.075 307.523C675.91 313.845 672.247 319.85 668.129 325.518C664.688 330.259 659.507 331.205 654.159 329.787C648.777 328.355 643.549 326.334 638.289 324.475C632.363 322.376 626.539 319.811 619.49 321.651V321.651ZM564.995 127.857C578.613 128.149 592.235 128.356 605.855 128.44C609.47 128.462 613.088 127.931 616.515 127.668L616.515 165.865C616.514 169.949 616.441 174.035 616.536 178.117C616.602 180.949 617.031 183.774 617.063 186.606C617.124 191.871 617.263 197.157 616.897 202.4C616.602 206.619 615.685 210.802 614.913 214.977C613.509 222.562 608.966 228.395 604.268 234.213C598.934 240.818 590.962 243.387 584.596 247.786C582.688 246.056 580.883 244.424 578.905 242.629C582.292 240.265 585.775 238.351 588.63 235.749C598.586 226.681 604.967 215.804 607.034 202.104C608.698 191.076 608.575 180.064 608.834 169.052C609.07 159.016 608.185 148.956 607.88 138.904C607.829 137.22 607.327 136.555 605.581 136.539C602.953 136.516 600.327 136.121 597.698 136.077C586.001 135.883 574.3 135.515 562.607 135.669C549.896 135.837 537.161 136.804 525.536 142.505C521.192 144.635 517.601 148.325 513.728 151.383C511.915 152.814 510.013 154.24 508.574 156.013C506.222 158.912 504.216 162.091 501.793 165.538C500.045 163.532 498.443 161.695 496.725 159.725C501.007 153.355 503.899 145.536 510.35 139.903C518.651 132.654 528.039 128.551 538.994 127.893C544.241 127.578 549.486 127.024 554.736 126.958C558.151 126.915 561.569 127.784 564.995 127.857ZM646.162 229.545C648.146 224.126 650.015 218.665 651.947 213.227C652.738 210.999 652.15 209.914 649.639 209.509C644.648 208.704 639.729 207.474 634.745 206.62C629.772 205.767 624.756 205.16 619.527 204.413C619.764 199.091 619.998 193.85 620.245 188.325C637.115 192.217 653.826 196.073 670.676 199.963C665.661 216.366 660.642 232.783 655.513 249.554C650.732 246.995 646.173 244.56 641.37 241.987C642.989 237.8 644.643 233.697 646.162 229.545V229.545ZM605.012 237.629C607.104 235.002 610.061 232.574 611.305 229.461C613.951 222.839 618.844 223.156 624.272 224.021C625.27 224.18 626.265 224.367 627.933 224.658C626.241 228.456 624.66 232.123 622.932 235.72C622.728 236.145 621.73 236.321 621.079 236.376C615.769 236.822 610.456 237.211 605.012 237.629V237.629ZM625.823 236.528C626.953 233.996 628.062 231.438 629.229 228.907C631.74 223.46 631.507 222.808 625.73 221.632C622.773 221.032 619.728 220.87 616.652 220.501C617.425 216.688 618.08 212.941 619.017 209.265C619.21 208.506 620.553 207.388 621.198 207.491C630.292 208.947 639.357 210.582 648.427 212.191C648.586 212.22 648.707 212.467 649.259 213.048C645.884 222.091 642.418 231.379 638.905 240.796C634.293 239.291 630.257 237.974 625.823 236.528V236.528ZM691.822 187.86C685.037 211.705 678.317 235.317 671.452 259.445C667.234 257.055 663.886 255.183 660.566 253.272C658.7 252.19 658.068 250.895 658.811 248.531C663.711 232.952 668.427 217.314 673.179 201.689C674.358 197.811 674.134 197.63 670.17 196.742C659.49 194.348 648.829 191.87 638.163 189.416C632.825 188.189 627.504 186.885 622.149 185.735C620.557 185.392 619.581 184.916 619.622 183.047C619.712 178.998 619.65 174.945 619.65 170.164C644.16 174.736 667.522 181.843 691.822 187.86V187.86ZM742.389 369.767C730.856 358.547 719.523 347.121 707.974 335.914C702.349 330.46 696.472 325.252 690.555 320.115C689.076 318.826 689.207 317.913 689.99 316.501C692.11 312.679 694.074 308.773 696.263 304.99C700.484 297.702 703.723 289.806 709.67 283.575C711.076 282.098 710.113 281.042 708.446 280.433C696.182 275.963 686.008 267.769 674.799 261.414C674.24 261.103 673.799 259.723 674.001 259.05C677.612 247.008 681.469 235.036 684.987 222.966C688.333 211.485 691.338 199.906 694.518 188.378C694.98 186.704 694.671 185.716 692.789 185.251C687.869 184.035 682.991 182.655 678.09 181.364C669.249 179.037 660.441 176.572 651.551 174.45C641.599 172.074 631.576 169.994 621.571 167.842C619.828 167.467 619.3 166.53 619.328 164.839C619.399 160.347 619.273 155.851 619.348 151.359C619.483 143.289 619.545 135.213 619.992 127.159C620.137 124.556 619.49 124.134 617.172 124.422C613.152 124.924 609.103 125.466 605.064 125.487C597.553 125.522 590.04 125.152 582.527 125.035C577.451 124.956 577.523 125.002 576.344 120.064C573.403 107.757 570.459 95.4489 567.384 83.175C564.776 72.7615 561.962 62.3985 559.288 52.001C558.848 50.2884 558.211 49.1509 556.179 49.7643C553.557 50.5552 550.937 51.3552 548.3 52.0898C538.036 54.9517 527.74 57.6995 517.505 60.6591C506.981 63.7011 496.485 66.8486 486.05 70.1795C484.274 70.7463 483.473 70.6095 482.64 69.0912C476.493 57.8931 468.247 47.8703 463.953 35.6307C463.334 33.8647 462.12 33.5714 460.641 34.828C460.025 35.3515 459.447 35.9525 458.756 36.3561C448.321 42.4556 437.89 48.5613 427.377 54.5236C426.749 54.8797 425.106 54.3466 424.501 53.6988C419.706 48.5692 415.204 43.1577 410.314 38.122C398.612 26.0682 386.743 14.1777 374.952 2.21083C372.032 -0.752796 372.061 -0.76057 369.018 2.33069C358.303 13.2139 347.514 24.0271 336.885 34.9933C331.146 40.9157 325.542 46.9841 320.162 53.2312C318.587 55.0591 317.502 55.3461 315.676 54.1089C315.012 53.66 314.234 53.3834 313.547 52.9663C303.479 46.8538 292.235 42.6984 283.277 34.7263C281.807 33.4178 280.679 34.0713 280.059 35.8042C275.666 48.1118 267.43 58.2637 261.085 69.4752C260.754 70.0602 259.387 70.5772 258.724 70.3802C246.176 66.6607 233.698 62.7022 221.128 59.0617C210.901 56.0995 200.565 53.5104 190.289 50.7178C185.548 49.4294 185.643 49.408 184.451 53.9657C181.198 66.4158 177.715 78.8084 174.617 91.2967C172.012 101.802 169.858 112.419 167.365 122.953C167.17 123.775 165.89 124.886 165.067 124.928C159.492 125.216 153.898 125.441 148.318 125.324C141.029 125.17 133.745 124.696 126.46 124.328C124.517 124.229 123.476 124.73 124.092 126.963C124.467 128.321 124.785 129.747 124.792 131.144C124.848 142.552 124.79 153.96 124.86 165.367C124.871 167.201 123.83 167.541 122.451 167.826C114.406 169.494 106.299 170.914 98.3317 172.918C82.7852 176.831 67.3358 181.129 51.8088 185.126C49.4379 185.736 49.1724 186.79 49.7554 188.826C52.1132 197.009 54.3416 205.228 56.7125 213.405C61.0913 228.5 65.5609 243.568 69.8881 258.674C70.1277 259.51 69.6872 261.162 69.046 261.531C57.9496 267.879 47.8315 275.976 35.6793 280.446C33.2631 281.333 33.3408 282.409 34.9149 284.222C36.8971 286.515 38.8598 288.912 40.3627 291.536C44.6639 299.037 48.7837 306.654 52.8647 314.285C55.1578 318.58 55.0476 318.632 51.174 321.767C50.7788 322.091 50.429 322.473 50.0663 322.823C41.1983 331.386 32.3174 339.924 23.4753 348.507C16.0972 355.678 8.8162 362.939 1.39928 370.065C0.459958 370.959 -0.00643713 371.71 9.23584e-05 372.468L4.33368 372.468C4.32715 371.321 5.48676 370.168 7.82511 367.83C17.2761 358.398 26.604 348.831 36.1911 339.535C42.6817 333.245 49.5286 327.331 56.6411 320.854C58.9731 325.155 61.1238 328.951 63.08 332.85C63.3974 333.492 63.1837 334.904 62.6719 335.39C54.5359 343.059 46.3157 350.638 38.115 358.237C33.8591 362.188 29.6421 366.185 25.3214 370.065C24.3563 370.926 23.864 371.691 23.8705 372.468L27.2388 372.468L27.2324 372.462C39.8251 360.691 52.3335 348.986 65.101 337.048C67.9254 341.595 70.7237 346.11 73.5415 350.651C67.4719 355.652 61.4411 360.601 55.4362 365.576C53.5643 367.13 51.6856 368.692 49.9367 370.382C49.2113 371.082 48.8615 371.775 48.8678 372.468L51.9319 372.468C54.1213 370.447 56.0906 368.484 58.2217 366.709C62.9116 362.81 67.7051 359.033 72.4208 355.166C74.2411 353.67 75.6078 352.698 77.454 355.496C79.2872 358.262 81.8978 360.517 84.2426 363.082C81.2045 365.511 78.2961 367.888 75.3294 370.188C74.2994 370.985 73.8265 371.729 73.8394 372.468L76.3851 372.468C79.9674 369.903 82.9666 367.713 86.024 365.608C86.4257 365.33 87.2288 365.245 87.6694 365.446C92.8638 367.836 98.0273 370.298 102.594 372.455L102.555 372.468L129.34 372.468C129.382 369.365 129.994 366.282 130.968 363.147C133.754 354.175 137.973 346.032 144.232 339.069C148.995 333.764 155.173 330.376 161.581 327.396C168.398 324.235 175.574 324.436 182.99 324.818L182.99 335.383C179.576 336.199 175.985 336.795 172.573 337.929C156.603 343.215 146.194 353.916 142.387 370.395C142.227 371.095 142.132 371.781 142.088 372.468L145.208 372.468C145.162 367.668 147.096 363.373 149.64 359.292C156.184 348.805 165.385 341.634 177.875 339.36C179.653 339.037 181.448 338.816 183.551 338.505C184.477 342.573 185.325 346.305 186.239 350.321C184.51 350.787 182.774 351.273 181.032 351.726C173.25 353.773 166.811 357.725 162.834 364.941C161.389 367.558 160.609 370.058 160.489 372.468L163.225 372.468C163.159 368.549 165.439 364.934 169.417 361.003C173.959 356.513 179.904 354.596 186.037 353.385C186.653 353.262 187.705 353.864 188.12 354.441C189.821 356.818 191.354 359.318 192.702 361.391C189.036 363.082 185.17 364.397 181.816 366.521C179.236 368.16 177.948 370.311 177.95 372.468L181.981 372.468C182.037 371.529 182.534 370.538 183.442 369.605C187.037 365.926 191.746 364.772 196.511 364.818C198.649 364.844 200.729 367.027 202.898 368.109C206.127 369.715 209.411 371.205 211.837 372.351C211.765 372.39 211.686 372.429 211.612 372.468L231.648 372.468C231.666 363.93 235.977 356.876 242.349 351.461C249.153 345.67 257.275 344.037 266.12 346.052C268.023 346.486 268.745 347.095 268.609 348.999C268.479 350.813 268.581 352.64 268.581 354.583C265.206 354.583 262.277 354.518 259.351 354.589C249.01 354.842 242.006 361.132 239.692 368.743C239.312 369.994 239.142 371.244 239.141 372.468L242.119 372.468C242.126 367.435 245.265 362.564 250.301 359.824C256.198 356.624 262.62 356.883 269.027 357.848C269.512 357.919 270.022 358.496 270.332 358.962C271.895 361.32 273.395 363.717 275.068 366.334C271.88 365.815 268.859 364.986 265.819 364.908C262.641 364.831 259.352 365.116 256.281 365.906C253.557 366.606 251.649 369.819 251.688 372.468L254.715 372.468L254.714 372.455C254.707 371.095 256.286 369.236 257.657 368.497C259.249 367.636 261.383 367.428 263.259 367.506C269.588 367.778 275.69 369.184 281.425 371.963C281.529 372.015 281.591 372.164 281.714 372.468L294.82 372.468C294.815 372.177 294.812 371.885 294.823 371.587C295.041 365.485 300.873 359.895 306.953 359.603C308.054 359.551 309.146 359.228 310.247 359.195C312.517 359.13 314.525 359.26 315.278 362.188C316.495 366.93 319.5 370.35 324.458 372.442L324.396 372.468L335.976 372.468L335.97 372.423C335.997 371.477 337.29 370.181 338.333 369.715C345.713 366.411 352.399 368.931 359.712 372.468L384.44 372.468C384.379 372.442 384.32 372.41 384.259 372.384C391.506 369.255 397.942 366.353 405.109 369.514C406.343 370.058 407.229 371.393 408.276 372.364L408.178 372.468L419.763 372.468L419.675 372.423C424.745 370.291 427.547 366.606 429.078 361.709C429.373 360.769 430.703 359.603 431.652 359.506C436.441 359.027 443.027 360.173 446.451 364.526C448.312 366.891 449.195 369.689 449.177 372.468L462.254 372.468C462.206 372.105 462.158 371.743 462.11 371.373C467.889 370.078 473.632 368.549 479.468 367.59C481.755 367.215 484.431 367.675 486.587 368.581C487.852 369.113 489.16 371.043 489.301 372.468L492.491 372.468C492.492 372.364 492.496 372.254 492.49 372.151C492.36 369.372 490.092 366.139 486.931 365.679C483.013 365.109 478.968 365.284 474.984 365.375C473.011 365.42 471.049 366.003 469.025 366.353C470.621 363.846 471.85 361.19 473.769 359.189C474.865 358.049 477.053 357.673 478.804 357.498C486.485 356.714 493.559 357.835 498.91 364.261C501.1 366.891 502.015 369.722 501.981 372.468L504.907 372.468C505.012 368.886 503.549 365.699 501.372 362.836C497.097 357.2 491.174 354.622 484.132 354.583C481.397 354.564 478.664 354.577 475.499 354.577C475.499 352.413 475.38 350.094 475.582 347.807C475.633 347.231 476.629 346.44 477.326 346.259C490.815 342.632 504.014 349.582 508.74 360.504C510.254 364.002 512.422 367.623 512.529 371.237C512.542 371.652 512.534 372.06 512.526 372.468L532.614 372.468L532.459 372.384C535.658 370.79 539.936 368.977 543.851 366.573C546.471 364.967 548.984 364.105 551.77 365.252C554.814 366.502 557.863 367.901 560.589 369.722C561.718 370.473 562.183 371.445 562.11 372.468L566.174 372.468C566.166 370.253 564.686 368.037 561.734 366.211C558.53 364.228 554.857 363.004 551.364 361.423C552.966 359.007 554.852 356.164 556.844 353.158C566.718 355.082 575.586 358.483 580.029 368.737C580.599 370.052 580.853 371.289 580.875 372.468L583.715 372.468C583.838 368.063 581.373 364.397 578.505 360.99C574.373 356.079 568.947 352.866 562.492 351.642C560.916 351.338 559.393 350.755 557.822 350.301C558.765 346.298 559.661 342.502 560.573 338.635C576.37 339.691 587.49 347.756 595.34 360.555C597.808 364.578 598.907 368.556 598.865 372.468L601.785 372.468C601.862 367.584 599.992 363.173 597.675 359.105C592.32 349.692 584.551 342.548 574.228 338.719C570.838 337.463 567.178 336.886 563.602 336.199C561.758 335.843 560.678 335.344 560.835 333.148C561.03 330.434 560.882 327.688 560.882 325.051C574.642 322.946 586.074 327.377 596.207 335.804C606.364 344.258 611.357 355.755 614.436 368.16C614.773 369.521 614.876 370.985 614.831 372.468L641.486 372.468L641.448 372.449C645.947 370.343 650.971 367.96 656.041 365.673C656.649 365.401 657.693 365.394 658.216 365.744C661.237 367.759 664.162 369.922 667.679 372.429L667.626 372.468L670.349 372.468C670.362 371.386 668.933 370.311 666.048 367.785C664.076 366.062 661.785 364.701 659.735 363.237C662.75 359.882 665.66 356.649 668.952 352.983C676.812 359.467 684.454 365.77 692.568 372.455L692.556 372.468L695.39 372.468C695.395 371.743 694.942 371.03 694.117 370.337C686.352 363.807 678.586 357.271 670.61 350.56C673.28 346.246 676.076 341.731 678.97 337.054C691.723 348.967 704.201 360.627 716.849 372.449L716.829 372.468L720.298 372.468C720.3 371.548 719.425 370.635 717.664 369.015C709.335 361.372 701.072 353.657 692.785 345.968C689.212 342.658 685.701 339.276 682.041 336.063C680.696 334.884 680.101 333.939 681.124 332.222C683.248 328.653 685.218 324.999 687.762 320.465C705.779 337.948 723.34 354.991 741.333 372.449L741.313 372.468L744 372.468C744.006 371.632 743.458 370.81 742.389 369.767V369.767Z" fill="url(#paint0_linear_114_392)"/>
</g>
<defs>
<linearGradient id="paint0_linear_114_392" x1="372.509" y1="-303.883" x2="372.509" y2="372.509" gradientUnits="userSpaceOnUse">
<stop stop-color="white" stop-opacity="0"/>
<stop offset="1" stop-color="#121212"/>
</linearGradient>
<clipPath id="clip0_114_392">
<rect width="744" height="206" fill="white"/>
</clipPath>
</defs>
</svg>
