<svg width="221" height="213" viewBox="0 0 221 213" fill="none" xmlns="http://www.w3.org/2000/svg">
<path fill-rule="evenodd" clip-rule="evenodd" d="M101.483 4.33388C96.5318 6.50822 88.3846 12.9497 83.3781 18.6519C78.3716 24.3511 71.5633 29.0171 68.2509 29.0171C57.9555 29.0171 39.5072 40.2962 34.7481 49.5C31.3105 56.1511 30.871 60.6861 32.9434 68.1929C35.5515 77.6412 34.8151 81.4106 30.3558 81.4106C29.2439 81.4106 28.8364 77.81 29.4476 73.406C30.5013 65.8468 30.3994 65.7682 27.6575 72.0147C26.0624 75.6531 22.7849 79.3847 20.3777 80.3074C17.9705 81.2331 13.0979 86.7693 9.54681 92.6141C5.99569 98.4589 2.03998 103.975 0.753429 104.871C-3.14698 107.587 8.82204 128.83 19.9673 138.971C25.7248 144.213 30.4373 151.242 30.4373 154.593C30.4373 164.655 50.9843 182.781 64.9181 185.007C71.5691 186.073 77.0093 187.906 77.0093 189.082C77.0093 190.261 80.3276 194.546 84.3852 198.6C89.3335 203.549 93.883 205.513 98.2113 204.567C102.877 203.549 103.576 203.927 100.744 205.938C97.7601 208.055 98.9913 209.475 105.899 211.882C117.638 215.975 137.731 207.912 146.987 195.393C151.024 189.932 157.072 186.023 163.296 184.856C176.804 182.321 192.645 167.697 196.761 153.955C198.626 147.726 202.573 140.441 205.528 137.766C211.416 132.439 212.93 126.388 207.542 129.715C205.443 131.013 204.975 130.512 206.29 128.384C207.449 126.51 209.559 125.695 210.983 126.574C212.403 127.453 215.459 124.513 217.773 120.036C221.371 113.083 221.406 110.218 218.018 100.296C215.838 93.9094 210.424 85.5439 205.988 81.7017C201.133 77.4957 197.552 71.124 196.996 65.6926C195.317 49.2788 174.45 29.0171 159.226 29.0171C155.023 29.0171 149.662 25.952 146.227 21.5859C141.945 16.1457 112.171 -1.8078 110.666 0.148222C110.564 0.276296 106.431 2.16246 101.483 4.33388ZM115.347 10.5483C118.275 13.1971 120.671 17.051 120.671 19.1089C120.671 21.1668 122.12 23.7486 123.893 24.843C126.082 26.1965 126.46 24.7674 125.075 20.3983C123.232 14.5943 123.625 14.2828 129.109 17.2169C132.45 19.007 138.062 24.357 141.576 29.1102C145.089 33.8606 149.758 37.7493 151.952 37.7493C154.147 37.7493 155.215 38.9253 154.331 40.3603C153.443 41.7982 154.782 52.1197 157.305 63.297C161.744 82.9591 161.695 84.0157 155.777 95.6151C152.412 102.211 148.998 107.607 148.189 107.607C147.38 107.607 148.85 103.486 151.452 98.4502C155.766 90.1079 155.774 89.453 151.528 91.0831C147.578 92.5966 146.867 90.2477 146.867 75.6706C146.867 66.2078 145.558 57.6589 143.957 56.6692C142.356 55.6796 141.046 52.3293 141.046 49.2206C141.046 46.1119 139.736 43.5708 138.135 43.5708C134.569 43.5708 134.424 41.2015 139.486 65.3898L143.744 85.7505L134.922 103.864C125.252 123.713 115.527 133.324 94.1566 144.152C59.6467 161.64 36.4014 144.757 48.2395 110.803C50.0237 105.68 50.7747 100.779 49.9073 99.9114C47.535 97.5391 39.9438 113.621 37.6385 125.901C36.5237 131.848 34.3697 136.715 32.8532 136.715C31.3338 136.715 30.97 138.132 32.0411 139.867C33.1123 141.599 29.9366 140.921 24.9854 138.362C20.0343 135.801 13.9944 129.863 11.5669 125.168C5.40481 113.251 6.05973 110.154 12.5129 120.706C15.4469 125.509 20.3544 131.362 23.4165 133.717C27.7186 137.023 27.5411 136.363 22.6277 130.806C19.1319 126.85 14.8764 119.934 13.1707 115.437C11.4679 110.937 8.76382 108.064 7.16581 109.054C2.27284 112.078 9.87864 95.1174 16.6665 87.8754C20.0837 84.2253 24.5809 81.8909 26.6591 82.6884C33.2171 85.2062 39.4635 81.1021 37.6734 75.4581C35.5544 68.7896 42.3626 52.4748 50.1547 45.5327C53.4381 42.6103 61.5037 39.8189 68.0791 39.327C77.9408 38.5934 81.1863 36.716 86.5857 28.6328C90.1863 23.2421 97.4341 16.6697 102.688 14.0296C108.579 11.0694 110.789 8.64471 108.451 7.71036C106.367 6.87497 105.869 6.08616 107.342 5.961C108.818 5.83583 112.419 7.89956 115.347 10.5483ZM94.4738 12.5568C94.4738 13.1098 91.5253 16.0555 87.9247 19.106L81.3755 24.6509L86.9204 18.1017C92.1307 11.9484 94.4738 10.2282 94.4738 12.5568ZM106.117 17.3741C106.117 18.975 104.152 20.2848 101.751 20.2848C99.3494 20.2848 97.405 22.5785 97.4283 25.3786C97.4632 29.2849 98.0482 29.5643 99.9373 26.5866C101.294 24.4472 103.238 22.8113 104.26 22.9481C105.281 23.085 109.065 23.0442 112.666 22.8579C117.649 22.6018 117.99 22.2001 114.087 21.1813C111.266 20.4449 109.706 18.6344 110.62 17.1528C111.534 15.6742 110.893 14.4633 109.199 14.4633C107.505 14.4633 106.117 15.7731 106.117 17.3741ZM162.047 33.0979C167.994 34.1778 173.635 36.3201 174.584 37.8541C175.646 39.5715 173.376 39.5278 168.675 37.7406C164.477 36.1455 158.181 34.7833 154.683 34.7163C150.547 34.6348 146.017 30.8188 141.73 23.801L135.14 13.0079L143.185 22.0691C148.235 27.7538 155.262 31.8638 162.047 33.0979ZM68.6264 35.0714C52.0001 38.3373 42.5577 44.7555 37.5948 56.1598C35.3856 61.242 33.5256 63.2854 33.4616 60.7006C33.153 47.9893 55.3242 31.954 72.6432 32.3615C79.6319 32.5245 78.8286 33.0659 68.6264 35.0714ZM107.572 35.3567C104.37 37.1439 94.8755 44.4091 86.4693 51.5026L71.1878 64.3973V90.2302C71.1878 104.44 69.6655 119.408 67.8055 123.491C63.6344 132.64 66.3618 136.136 72.7131 129.784C75.3036 127.194 79.2972 125.072 81.5821 125.072C87.1126 125.072 86.9379 114.512 81.3755 112.375C78.9741 111.455 77.0093 109.191 77.0093 107.343C77.0093 104.865 78.1125 104.9 81.2154 107.473C87.4182 112.623 98.2229 110.012 101.972 102.461C107.246 91.8428 109.057 91.5313 106.129 101.748C100.022 123.034 82.8337 137.728 66.094 135.967C55.5047 134.855 55.4581 134.902 59.6467 142.729C61.7599 146.678 65.7564 148.358 73.0361 148.358C87.4793 148.358 100.869 134.456 107.895 112.166C111.438 100.924 117.044 91.2693 124.254 83.9866C130.288 77.8915 135.224 71.5432 135.224 69.8811C135.224 64.1382 126.611 66.8801 121.858 74.1337C119.236 78.136 116.063 81.4106 114.805 81.4106C113.548 81.4106 110.949 74.8614 109.028 66.8568C107.107 58.8523 104.4 52.3031 103.008 52.3031C101.617 52.3031 100.985 53.9418 101.608 55.9415C102.228 57.9441 103.526 66.7841 104.493 75.5891C106.062 89.9187 105.852 90.8385 102.47 84.3476C100.394 80.3598 96.4357 76.6603 93.6734 76.1305C89.7788 75.3795 88.6523 77.2162 88.6523 84.3039C88.6523 92.1222 89.4965 93.1788 94.4738 91.5983C97.7688 90.5533 100.295 91.0743 100.295 92.8033C100.295 94.4799 96.817 96.727 92.5644 97.7923C83.3839 100.098 77.0093 93.3301 77.0093 81.2767C77.0093 75.0244 78.8431 72.9956 86.4693 70.8067C96.8316 67.8349 100.496 56.3054 90.8354 57.0738C83.9078 57.6239 84.2338 57.0563 95.9642 48.1087C105.223 41.0443 106.612 40.7387 110.725 44.8516C113.222 47.349 116.342 49.3923 117.655 49.3923C121.902 49.3923 123.782 40.043 120.365 35.9243C116.415 31.1652 115.175 31.1099 107.572 35.3567ZM181.814 51.5317C185.1 55.7087 187.667 63.4746 187.731 69.4329C187.822 78.0429 189.53 81.0177 197.127 85.7942C209.265 93.432 213.323 104.796 208.322 117.172C206.244 122.318 204.448 128.16 204.329 130.154C204.209 132.148 201.406 136.077 198.1 138.886C192.281 143.823 192.226 143.808 196.4 138.424C201.432 131.935 201.357 131.962 173.865 146.198C150.902 158.091 149.778 158.464 149.778 154.179C149.778 152.579 151.743 151.269 154.144 151.269C158.816 151.269 160.234 141.034 155.929 138.374C154.511 137.498 151.731 138.729 149.752 141.113C147.773 143.497 144.35 145.447 142.146 145.447C137.143 145.447 136.776 157.058 141.774 157.178C148.454 157.341 136.543 162.592 122.208 165.805C104.563 169.758 102.234 167.697 116.665 160.9C123.293 157.777 132.014 149.743 138.083 141.165C143.715 133.205 152.517 122.545 157.646 117.475C162.775 112.404 167.828 104.836 168.876 100.657C169.926 96.4738 172.695 93.0536 175.029 93.0536C177.87 93.0536 178.967 90.6202 178.35 85.6865C176.979 74.6984 172.173 76.407 167.193 89.6539C161.925 103.672 157.061 109.721 161.657 96.5436C164.841 87.4097 163.951 60.983 159.945 45.7888C157.876 37.9356 157.978 37.8658 166.928 40.9861C171.923 42.7267 178.621 47.4742 181.814 51.5317ZM190.418 56.6692C190.441 59.7837 186.41 54.5211 181.502 45.0262C179.506 41.1607 180.492 41.6468 184.448 46.4816C187.72 50.4839 190.409 55.0683 190.418 56.6692ZM125.208 49.1129C124.126 50.8681 120.697 52.3031 117.588 52.3031C113.769 52.3031 111.938 54.3057 111.938 58.4884C111.938 63.9024 113.108 64.4409 121.308 62.7993C134.156 60.2291 137.538 56.2821 131.804 50.5479C128.658 47.4014 126.55 46.9415 125.208 49.1129ZM203.848 84.9064C209.329 89.7179 213.815 94.6283 213.815 95.8159C213.815 97.0035 208.575 92.9896 202.172 86.8974C193.559 78.7065 190.642 73.7088 190.965 67.701L191.402 59.58L192.642 67.8669C193.346 72.5852 198.172 79.9232 203.848 84.9064ZM16.096 91.9912C12.7777 96.2089 10.1028 101.777 10.1493 104.362C10.2192 108.05 10.9323 107.808 13.4589 103.241C15.2286 100.039 19.3473 94.4712 22.6103 90.8706C25.8732 87.27 27.0987 84.3214 25.3347 84.3214C23.5708 84.3214 19.4114 87.7735 16.096 91.9912ZM120.671 100.331C120.671 104.726 122.333 107.607 124.865 107.607C131.007 107.607 133.344 102.167 129.298 97.2917C124.047 90.9666 120.671 92.1542 120.671 100.331ZM146.867 119.25C145.153 122.452 143.267 125.072 142.67 125.072C142.076 125.072 142.277 122.452 143.113 119.25C143.951 116.049 145.84 113.429 147.31 113.429C148.786 113.429 148.588 116.034 146.867 119.25ZM214.819 117.92C213.87 120.391 212.47 121.789 211.707 121.026C210.945 120.263 211.183 118.24 212.24 116.535C215.11 111.889 216.787 112.791 214.819 117.92ZM138.135 131.994C138.135 132.596 135.841 134.89 133.041 137.087C128.425 140.706 128.323 140.604 131.941 135.987C135.745 131.138 138.135 129.598 138.135 131.994ZM55.5251 164.862C59.8708 167.709 66.1551 170.232 69.4909 170.468C72.8266 170.704 78.0368 171.932 81.0698 173.198C92.5702 178.001 135.376 169.385 160.918 157.131C174.31 150.704 186.381 145.447 187.746 145.447C191.969 145.447 184.757 161.852 177.555 168.614C173.801 172.145 165.685 175.728 159.523 176.581C151.094 177.748 146.882 180.367 142.495 187.176C139.291 192.15 133.396 197.876 129.397 199.899C125.398 201.922 124.091 203.566 126.492 203.555C132.148 203.525 142.414 195.16 146.422 187.315C148.451 183.339 153.478 180.525 160.589 179.381C174.776 177.099 184.297 170.296 189.257 158.901C191.859 152.919 193.25 151.653 193.326 155.198C193.515 164.224 175.238 179.96 162.128 182.056C153.743 183.398 149.542 185.857 147.321 190.73C143.884 198.274 134.666 204.946 123.581 207.915C118.01 209.408 117.329 209.149 120.671 206.809C124.361 204.224 124.388 203.744 120.842 203.706C117.661 203.674 117.888 202.754 121.78 199.91C128.172 195.236 125.584 181.578 117.926 179.576C104.076 175.955 97.7601 193.186 109.755 201.872C115.877 206.308 115.571 206.331 105.034 202.227C91.3739 196.909 90.6579 196.866 93.3154 201.479C94.468 203.482 91.9269 201.942 87.6656 198.062C83.4072 194.179 79.9201 189.673 79.9201 188.046C79.9201 186.416 81.8441 187.627 84.1931 190.736C89.7119 198.033 89.8196 194.933 84.4056 184.501C80.901 177.745 78.0601 176.208 68.1374 175.699C60.2143 175.291 53.5836 172.756 48.6964 168.267C44.6185 164.521 41.8591 163.302 42.5635 165.56C43.2679 167.816 48.3413 172.075 53.8339 175.02C59.5565 178.088 61.7046 180.376 58.8695 180.376C51.9419 180.376 34.4338 162.129 32.7106 153.111C31.9218 148.992 32.3991 146.315 33.7672 147.162C35.1381 148.009 36.2646 146.987 36.2704 144.891C36.2763 142.795 38.8319 145.267 41.9522 150.384C45.0725 155.498 51.1793 162.015 55.5251 164.862ZM126.492 143.541C126.492 144.094 123.544 147.039 119.943 150.09L113.394 155.635L118.939 149.086C124.149 142.932 126.492 141.212 126.492 143.541ZM36.4625 153.28C36.3519 156.787 37.5686 160.467 39.1695 161.456C42.613 163.584 42.613 160.734 39.1695 152.724C36.7565 147.112 36.6605 147.133 36.4625 153.28ZM77.7923 182.286C75.8217 183.083 71.8922 183.133 69.0601 182.393C66.2279 181.654 67.8405 181.002 72.6432 180.944C77.4459 180.886 79.7629 181.488 77.7923 182.286Z" fill="white"/>
</svg>
