<svg width="259" height="5" viewBox="0 0 259 5" fill="none" xmlns="http://www.w3.org/2000/svg">
<path d="M49.6192 2.5C49.6192 3.88071 48.5084 5 47.1382 5C45.768 5 44.6572 3.88071 44.6572 2.5C44.6572 1.11929 45.768 0 47.1382 0C48.5084 0 49.6192 1.11929 49.6192 2.5Z" fill="#2BA2A6"/>
<path d="M138.935 2.5C138.935 3.88071 137.824 5 136.454 5C135.083 5 133.973 3.88071 133.973 2.5C133.973 1.11929 135.083 0 136.454 0C137.824 0 138.935 1.11929 138.935 2.5Z" fill="#2BA2A6"/>
<path d="M228.25 2.5C228.25 3.88071 227.139 5 225.769 5C224.398 5 223.288 3.88071 223.288 2.5C223.288 1.11929 224.398 0 225.769 0C227.139 0 228.25 1.11929 228.25 2.5Z" fill="#2BA2A6"/>
<path d="M94.2769 2.5C94.2769 3.88071 93.1661 5 91.7959 5C90.4257 5 89.3149 3.88071 89.3149 2.5C89.3149 1.11929 90.4257 0 91.7959 0C93.1661 0 94.2769 1.11929 94.2769 2.5Z" fill="#2BA2A6"/>
<path d="M183.592 2.5C183.592 3.88071 182.481 5 181.111 5C179.741 5 178.63 3.88071 178.63 2.5C178.63 1.11929 179.741 0 181.111 0C182.481 0 183.592 1.11929 183.592 2.5Z" fill="#2BA2A6"/>
<path d="M4.96198 2.5C4.96198 3.88071 3.85116 5 2.48096 5C1.11075 5 0 3.88071 0 2.5C0 1.11929 1.11075 0 2.48096 0C3.85116 0 4.96198 1.11929 4.96198 2.5Z" fill="#2BA2A6"/>
<path d="M64.5051 2.5C64.5051 3.88071 63.3943 5 62.0241 5C60.6539 5 59.5432 3.88071 59.5432 2.5C59.5432 1.11929 60.6539 0 62.0241 0C63.3943 0 64.5051 1.11929 64.5051 2.5Z" fill="#2BA2A6"/>
<path d="M153.821 2.5C153.821 3.88071 152.71 5 151.34 5C149.969 5 148.859 3.88071 148.859 2.5C148.859 1.11929 149.969 0 151.34 0C152.71 0 153.821 1.11929 153.821 2.5Z" fill="#2BA2A6"/>
<path d="M243.135 2.5C243.135 3.88071 242.025 5 240.654 5C239.284 5 238.174 3.88071 238.174 2.5C238.174 1.11929 239.284 0 240.654 0C242.025 0 243.135 1.11929 243.135 2.5Z" fill="#2BA2A6"/>
<path d="M109.163 2.5C109.163 3.88071 108.052 5 106.682 5C105.312 5 104.201 3.88071 104.201 2.5C104.201 1.11929 105.312 0 106.682 0C108.052 0 109.163 1.11929 109.163 2.5Z" fill="#2BA2A6"/>
<path d="M198.478 2.5C198.478 3.88071 197.367 5 195.997 5C194.627 5 193.516 3.88071 193.516 2.5C193.516 1.11929 194.627 0 195.997 0C197.367 0 198.478 1.11929 198.478 2.5Z" fill="#2BA2A6"/>
<path d="M19.8478 2.5C19.8478 3.88071 18.7371 5 17.3669 5C15.9967 5 14.8859 3.88071 14.8859 2.5C14.8859 1.11929 15.9967 0 17.3669 0C18.7371 0 19.8478 1.11929 19.8478 2.5Z" fill="#2BA2A6"/>
<path d="M79.391 2.5C79.391 3.88071 78.2802 5 76.91 5C75.5398 5 74.4291 3.88071 74.4291 2.5C74.4291 1.11929 75.5398 0 76.91 0C78.2802 0 79.391 1.11929 79.391 2.5Z" fill="#2BA2A6"/>
<path d="M168.706 2.5C168.706 3.88071 167.595 5 166.225 5C164.855 5 163.744 3.88071 163.744 2.5C163.744 1.11929 164.855 0 166.225 0C167.595 0 168.706 1.11929 168.706 2.5Z" fill="#2BA2A6"/>
<path d="M258.021 2.5C258.021 3.88071 256.91 5 255.54 5C254.17 5 253.059 3.88071 253.059 2.5C253.059 1.11929 254.17 0 255.54 0C256.91 0 258.021 1.11929 258.021 2.5Z" fill="#2BA2A6"/>
<path d="M124.049 2.5C124.049 3.88071 122.938 5 121.568 5C120.198 5 119.087 3.88071 119.087 2.5C119.087 1.11929 120.198 0 121.568 0C122.938 0 124.049 1.11929 124.049 2.5Z" fill="#2BA2A6"/>
<path d="M213.364 2.5C213.364 3.88071 212.253 5 210.883 5C209.512 5 208.402 3.88071 208.402 2.5C208.402 1.11929 209.512 0 210.883 0C212.253 0 213.364 1.11929 213.364 2.5Z" fill="#2BA2A6"/>
<path d="M34.7338 2.5C34.7338 3.88071 33.623 5 32.2527 5C30.8825 5 29.7719 3.88071 29.7719 2.5C29.7719 1.11929 30.8825 0 32.2527 0C33.623 0 34.7338 1.11929 34.7338 2.5Z" fill="#2BA2A6"/>
</svg>
